<?xml version="1.0" encoding="utf-8" standalone="no"?>
<!DOCTYPE svg PUBLIC "-//W3C//DTD SVG 1.1//EN"
  "http://www.w3.org/Graphics/SVG/1.1/DTD/svg11.dtd">
<svg xmlns:xlink="http://www.w3.org/1999/xlink" width="235.296563pt" height="223.73275pt" viewBox="0 0 235.296563 223.73275" xmlns="http://www.w3.org/2000/svg" version="1.1">
 <metadata>
  <rdf:RDF xmlns:dc="http://purl.org/dc/elements/1.1/" xmlns:cc="http://creativecommons.org/ns#" xmlns:rdf="http://www.w3.org/1999/02/22-rdf-syntax-ns#">
   <cc:Work>
    <dc:type rdf:resource="http://purl.org/dc/dcmitype/StillImage"/>
    <dc:date>2024-07-31T13:27:18.129671</dc:date>
    <dc:format>image/svg+xml</dc:format>
    <dc:creator>
     <cc:Agent>
      <dc:title>Matplotlib v3.9.1, https://matplotlib.org/</dc:title>
     </cc:Agent>
    </dc:creator>
   </cc:Work>
  </rdf:RDF>
 </metadata>
 <defs>
  <style type="text/css">*{stroke-linejoin: round; stroke-linecap: butt}</style>
 </defs>
 <g id="figure_1">
  <g id="patch_1">
   <path d="M 0 223.73275 
L 235.296563 223.73275 
L 235.296563 0 
L 0 0 
z
" style="fill: #ffffff"/>
  </g>
  <g id="axes_1">
   <g id="patch_2">
    <path d="M 49.564375 178.434 
L 216.964375 178.434 
L 216.964375 15.354 
L 49.564375 15.354 
z
" style="fill: #ffffff"/>
   </g>
   <g id="PathCollection_1">
    <defs>
     <path id="me71b1ef9b6" d="M 0 3.162278 
C 0.838646 3.162278 1.643056 2.82908 2.236068 2.236068 
C 2.82908 1.643056 3.162278 0.838646 3.162278 0 
C 3.162278 -0.838646 2.82908 -1.643056 2.236068 -2.236068 
C 1.643056 -2.82908 0.838646 -3.162278 0 -3.162278 
C -0.838646 -3.162278 -1.643056 -2.82908 -2.236068 -2.236068 
C -2.82908 -1.643056 -3.162278 -0.838646 -3.162278 0 
C -3.162278 0.838646 -2.82908 1.643056 -2.236068 2.236068 
C -1.643056 2.82908 -0.838646 3.162278 0 3.162278 
z
" style="stroke: #000000; stroke-width: 0.2"/>
    </defs>
    <g clip-path="url(#pb0606049bd)">
     <use xlink:href="#me71b1ef9b6" x="62.839127" y="162.784909" style="fill: #cbc3e3; stroke: #000000; stroke-width: 0.2"/>
     <use xlink:href="#me71b1ef9b6" x="56.024747" y="105.130364" style="fill: #cbc3e3; stroke: #000000; stroke-width: 0.2"/>
     <use xlink:href="#me71b1ef9b6" x="76.641864" y="162.784909" style="fill: #cbc3e3; stroke: #000000; stroke-width: 0.2"/>
     <use xlink:href="#me71b1ef9b6" x="87.390517" y="138.075818" style="fill: #cbc3e3; stroke: #000000; stroke-width: 0.2"/>
     <use xlink:href="#me71b1ef9b6" x="60.777632" y="162.784909" style="fill: #cbc3e3; stroke: #000000; stroke-width: 0.2"/>
     <use xlink:href="#me71b1ef9b6" x="64.400942" y="121.603091" style="fill: #cbc3e3; stroke: #000000; stroke-width: 0.2"/>
     <use xlink:href="#me71b1ef9b6" x="56.055331" y="121.603091" style="fill: #cbc3e3; stroke: #000000; stroke-width: 0.2"/>
     <use xlink:href="#me71b1ef9b6" x="61.919198" y="154.548545" style="fill: #cbc3e3; stroke: #000000; stroke-width: 0.2"/>
     <use xlink:href="#me71b1ef9b6" x="63.683896" y="63.948545" style="fill: #cbc3e3; stroke: #000000; stroke-width: 0.2"/>
     <use xlink:href="#me71b1ef9b6" x="56.068471" y="162.784909" style="fill: #cbc3e3; stroke: #000000; stroke-width: 0.2"/>
     <use xlink:href="#me71b1ef9b6" x="65.0884" y="96.894" style="fill: #cbc3e3; stroke: #000000; stroke-width: 0.2"/>
     <use xlink:href="#me71b1ef9b6" x="74.120509" y="88.657636" style="fill: #cbc3e3; stroke: #000000; stroke-width: 0.2"/>
     <use xlink:href="#me71b1ef9b6" x="56.202173" y="162.784909" style="fill: #cbc3e3; stroke: #000000; stroke-width: 0.2"/>
     <use xlink:href="#me71b1ef9b6" x="103.094418" y="171.021273" style="fill: #cbc3e3; stroke: #000000; stroke-width: 0.2"/>
     <use xlink:href="#me71b1ef9b6" x="65.700698" y="105.130364" style="fill: #cbc3e3; stroke: #000000; stroke-width: 0.2"/>
     <use xlink:href="#me71b1ef9b6" x="62.646434" y="121.603091" style="fill: #cbc3e3; stroke: #000000; stroke-width: 0.2"/>
     <use xlink:href="#me71b1ef9b6" x="78.308591" y="146.312182" style="fill: #cbc3e3; stroke: #000000; stroke-width: 0.2"/>
     <use xlink:href="#me71b1ef9b6" x="165.280014" y="105.130364" style="fill: #cbc3e3; stroke: #000000; stroke-width: 0.2"/>
     <use xlink:href="#me71b1ef9b6" x="66.001099" y="47.475818" style="fill: #cbc3e3; stroke: #000000; stroke-width: 0.2"/>
     <use xlink:href="#me71b1ef9b6" x="79.408999" y="138.075818" style="fill: #cbc3e3; stroke: #000000; stroke-width: 0.2"/>
     <use xlink:href="#me71b1ef9b6" x="115.654701" y="88.657636" style="fill: #cbc3e3; stroke: #000000; stroke-width: 0.2"/>
     <use xlink:href="#me71b1ef9b6" x="86.310716" y="39.239455" style="fill: #cbc3e3; stroke: #000000; stroke-width: 0.2"/>
     <use xlink:href="#me71b1ef9b6" x="69.857109" y="63.948545" style="fill: #cbc3e3; stroke: #000000; stroke-width: 0.2"/>
     <use xlink:href="#me71b1ef9b6" x="162.934452" y="171.021273" style="fill: #cbc3e3; stroke: #000000; stroke-width: 0.2"/>
     <use xlink:href="#me71b1ef9b6" x="86.310716" y="31.003091" style="fill: #cbc3e3; stroke: #000000; stroke-width: 0.2"/>
     <use xlink:href="#me71b1ef9b6" x="53.647302" y="158.666727" style="fill: #cbc3e3; stroke: #000000; stroke-width: 0.2"/>
     <use xlink:href="#me71b1ef9b6" x="107.945789" y="171.021273" style="fill: #cbc3e3; stroke: #000000; stroke-width: 0.2"/>
     <use xlink:href="#me71b1ef9b6" x="79.804873" y="138.075818" style="fill: #cbc3e3; stroke: #000000; stroke-width: 0.2"/>
     <use xlink:href="#me71b1ef9b6" x="152.79748" y="121.603091" style="fill: #cbc3e3; stroke: #000000; stroke-width: 0.2"/>
     <use xlink:href="#me71b1ef9b6" x="110.512005" y="154.548545" style="fill: #cbc3e3; stroke: #000000; stroke-width: 0.2"/>
     <use xlink:href="#me71b1ef9b6" x="90.877389" y="171.021273" style="fill: #cbc3e3; stroke: #000000; stroke-width: 0.2"/>
     <use xlink:href="#me71b1ef9b6" x="63.356303" y="146.312182" style="fill: #cbc3e3; stroke: #000000; stroke-width: 0.2"/>
     <use xlink:href="#me71b1ef9b6" x="67.760421" y="154.548545" style="fill: #cbc3e3; stroke: #000000; stroke-width: 0.2"/>
     <use xlink:href="#me71b1ef9b6" x="85.90479" y="162.784909" style="fill: #cbc3e3; stroke: #000000; stroke-width: 0.2"/>
     <use xlink:href="#me71b1ef9b6" x="65.58953" y="162.784909" style="fill: #cbc3e3; stroke: #000000; stroke-width: 0.2"/>
     <use xlink:href="#me71b1ef9b6" x="86.310716" y="121.603091" style="fill: #cbc3e3; stroke: #000000; stroke-width: 0.2"/>
     <use xlink:href="#me71b1ef9b6" x="56.092489" y="113.366727" style="fill: #cbc3e3; stroke: #000000; stroke-width: 0.2"/>
     <use xlink:href="#me71b1ef9b6" x="76.45001" y="171.021273" style="fill: #cbc3e3; stroke: #000000; stroke-width: 0.2"/>
     <use xlink:href="#me71b1ef9b6" x="65.073409" y="88.657636" style="fill: #cbc3e3; stroke: #000000; stroke-width: 0.2"/>
     <use xlink:href="#me71b1ef9b6" x="106.223276" y="171.021273" style="fill: #cbc3e3; stroke: #000000; stroke-width: 0.2"/>
     <use xlink:href="#me71b1ef9b6" x="77.625232" y="121.603091" style="fill: #cbc3e3; stroke: #000000; stroke-width: 0.2"/>
     <use xlink:href="#me71b1ef9b6" x="53.647302" y="105.130364" style="fill: #cbc3e3; stroke: #000000; stroke-width: 0.2"/>
     <use xlink:href="#me71b1ef9b6" x="53.647302" y="121.603091" style="fill: #cbc3e3; stroke: #000000; stroke-width: 0.2"/>
     <use xlink:href="#me71b1ef9b6" x="71.732275" y="63.948545" style="fill: #cbc3e3; stroke: #000000; stroke-width: 0.2"/>
     <use xlink:href="#me71b1ef9b6" x="54.449141" y="80.421273" style="fill: #cbc3e3; stroke: #000000; stroke-width: 0.2"/>
     <use xlink:href="#me71b1ef9b6" x="63.734671" y="154.548545" style="fill: #cbc3e3; stroke: #000000; stroke-width: 0.2"/>
     <use xlink:href="#me71b1ef9b6" x="68.318416" y="96.894" style="fill: #cbc3e3; stroke: #000000; stroke-width: 0.2"/>
     <use xlink:href="#me71b1ef9b6" x="53.647302" y="171.021273" style="fill: #cbc3e3; stroke: #000000; stroke-width: 0.2"/>
     <use xlink:href="#me71b1ef9b6" x="63.478392" y="121.603091" style="fill: #cbc3e3; stroke: #000000; stroke-width: 0.2"/>
     <use xlink:href="#me71b1ef9b6" x="61.840863" y="146.312182" style="fill: #cbc3e3; stroke: #000000; stroke-width: 0.2"/>
     <use xlink:href="#me71b1ef9b6" x="104.659732" y="171.021273" style="fill: #cbc3e3; stroke: #000000; stroke-width: 0.2"/>
     <use xlink:href="#me71b1ef9b6" x="67.70382" y="22.766727" style="fill: #cbc3e3; stroke: #000000; stroke-width: 0.2"/>
     <use xlink:href="#me71b1ef9b6" x="109.206021" y="80.421273" style="fill: #cbc3e3; stroke: #000000; stroke-width: 0.2"/>
     <use xlink:href="#me71b1ef9b6" x="55.696168" y="146.312182" style="fill: #cbc3e3; stroke: #000000; stroke-width: 0.2"/>
     <use xlink:href="#me71b1ef9b6" x="64.248093" y="162.784909" style="fill: #cbc3e3; stroke: #000000; stroke-width: 0.2"/>
     <use xlink:href="#me71b1ef9b6" x="60.365197" y="129.839455" style="fill: #cbc3e3; stroke: #000000; stroke-width: 0.2"/>
     <use xlink:href="#me71b1ef9b6" x="60.864505" y="121.603091" style="fill: #cbc3e3; stroke: #000000; stroke-width: 0.2"/>
     <use xlink:href="#me71b1ef9b6" x="123.675324" y="162.784909" style="fill: #cbc3e3; stroke: #000000; stroke-width: 0.2"/>
     <use xlink:href="#me71b1ef9b6" x="66.137178" y="72.184909" style="fill: #cbc3e3; stroke: #000000; stroke-width: 0.2"/>
     <use xlink:href="#me71b1ef9b6" x="78.154107" y="154.548545" style="fill: #cbc3e3; stroke: #000000; stroke-width: 0.2"/>
     <use xlink:href="#me71b1ef9b6" x="75.308313" y="146.312182" style="fill: #cbc3e3; stroke: #000000; stroke-width: 0.2"/>
     <use xlink:href="#me71b1ef9b6" x="57.629613" y="138.075818" style="fill: #cbc3e3; stroke: #000000; stroke-width: 0.2"/>
     <use xlink:href="#me71b1ef9b6" x="74.8255" y="72.184909" style="fill: #cbc3e3; stroke: #000000; stroke-width: 0.2"/>
     <use xlink:href="#me71b1ef9b6" x="93.013861" y="105.130364" style="fill: #cbc3e3; stroke: #000000; stroke-width: 0.2"/>
    </g>
   </g>
   <g id="matplotlib.axis_1">
    <g id="xtick_1">
     <g id="line2d_1">
      <defs>
       <path id="m34115bc8d3" d="M 0 0 
L 0 3.5 
" style="stroke: #000000; stroke-width: 0.8"/>
      </defs>
      <g>
       <use xlink:href="#m34115bc8d3" x="53.647302" y="178.434" style="stroke: #000000; stroke-width: 0.8"/>
      </g>
     </g>
     <g id="text_1">
      <!-- 0.0 -->
      <g transform="translate(42.515114 196.071813) scale(0.14 -0.14)">
       <defs>
        <path id="DejaVuSans-30" d="M 2034 4250 
Q 1547 4250 1301 3770 
Q 1056 3291 1056 2328 
Q 1056 1369 1301 889 
Q 1547 409 2034 409 
Q 2525 409 2770 889 
Q 3016 1369 3016 2328 
Q 3016 3291 2770 3770 
Q 2525 4250 2034 4250 
z
M 2034 4750 
Q 2819 4750 3233 4129 
Q 3647 3509 3647 2328 
Q 3647 1150 3233 529 
Q 2819 -91 2034 -91 
Q 1250 -91 836 529 
Q 422 1150 422 2328 
Q 422 3509 836 4129 
Q 1250 4750 2034 4750 
z
" transform="scale(0.015625)"/>
        <path id="DejaVuSans-2e" d="M 684 794 
L 1344 794 
L 1344 0 
L 684 0 
L 684 794 
z
" transform="scale(0.015625)"/>
       </defs>
       <use xlink:href="#DejaVuSans-30"/>
       <use xlink:href="#DejaVuSans-2e" x="63.623047"/>
       <use xlink:href="#DejaVuSans-30" x="95.410156"/>
      </g>
     </g>
    </g>
    <g id="xtick_2">
     <g id="line2d_2">
      <g>
       <use xlink:href="#m34115bc8d3" x="135.305838" y="178.434" style="stroke: #000000; stroke-width: 0.8"/>
      </g>
     </g>
     <g id="text_2">
      <!-- 0.5 -->
      <g transform="translate(124.173651 196.071813) scale(0.14 -0.14)">
       <defs>
        <path id="DejaVuSans-35" d="M 691 4666 
L 3169 4666 
L 3169 4134 
L 1269 4134 
L 1269 2991 
Q 1406 3038 1543 3061 
Q 1681 3084 1819 3084 
Q 2600 3084 3056 2656 
Q 3513 2228 3513 1497 
Q 3513 744 3044 326 
Q 2575 -91 1722 -91 
Q 1428 -91 1123 -41 
Q 819 9 494 109 
L 494 744 
Q 775 591 1075 516 
Q 1375 441 1709 441 
Q 2250 441 2565 725 
Q 2881 1009 2881 1497 
Q 2881 1984 2565 2268 
Q 2250 2553 1709 2553 
Q 1456 2553 1204 2497 
Q 953 2441 691 2322 
L 691 4666 
z
" transform="scale(0.015625)"/>
       </defs>
       <use xlink:href="#DejaVuSans-30"/>
       <use xlink:href="#DejaVuSans-2e" x="63.623047"/>
       <use xlink:href="#DejaVuSans-35" x="95.410156"/>
      </g>
     </g>
    </g>
    <g id="xtick_3">
     <g id="line2d_3">
      <g>
       <use xlink:href="#m34115bc8d3" x="216.964375" y="178.434" style="stroke: #000000; stroke-width: 0.8"/>
      </g>
     </g>
     <g id="text_3">
      <!-- 1.0 -->
      <g transform="translate(205.832188 196.071813) scale(0.14 -0.14)">
       <defs>
        <path id="DejaVuSans-31" d="M 794 531 
L 1825 531 
L 1825 4091 
L 703 3866 
L 703 4441 
L 1819 4666 
L 2450 4666 
L 2450 531 
L 3481 531 
L 3481 0 
L 794 0 
L 794 531 
z
" transform="scale(0.015625)"/>
       </defs>
       <use xlink:href="#DejaVuSans-31"/>
       <use xlink:href="#DejaVuSans-2e" x="63.623047"/>
       <use xlink:href="#DejaVuSans-30" x="95.410156"/>
      </g>
     </g>
    </g>
    <g id="text_4">
     <!-- RW Learning rate -->
     <g transform="translate(72.700156 213.621188) scale(0.14 -0.14)">
      <defs>
       <path id="DejaVuSans-52" d="M 2841 2188 
Q 3044 2119 3236 1894 
Q 3428 1669 3622 1275 
L 4263 0 
L 3584 0 
L 2988 1197 
Q 2756 1666 2539 1819 
Q 2322 1972 1947 1972 
L 1259 1972 
L 1259 0 
L 628 0 
L 628 4666 
L 2053 4666 
Q 2853 4666 3247 4331 
Q 3641 3997 3641 3322 
Q 3641 2881 3436 2590 
Q 3231 2300 2841 2188 
z
M 1259 4147 
L 1259 2491 
L 2053 2491 
Q 2509 2491 2742 2702 
Q 2975 2913 2975 3322 
Q 2975 3731 2742 3939 
Q 2509 4147 2053 4147 
L 1259 4147 
z
" transform="scale(0.015625)"/>
       <path id="DejaVuSans-57" d="M 213 4666 
L 850 4666 
L 1831 722 
L 2809 4666 
L 3519 4666 
L 4500 722 
L 5478 4666 
L 6119 4666 
L 4947 0 
L 4153 0 
L 3169 4050 
L 2175 0 
L 1381 0 
L 213 4666 
z
" transform="scale(0.015625)"/>
       <path id="DejaVuSans-20" transform="scale(0.015625)"/>
       <path id="DejaVuSans-4c" d="M 628 4666 
L 1259 4666 
L 1259 531 
L 3531 531 
L 3531 0 
L 628 0 
L 628 4666 
z
" transform="scale(0.015625)"/>
       <path id="DejaVuSans-65" d="M 3597 1894 
L 3597 1613 
L 953 1613 
Q 991 1019 1311 708 
Q 1631 397 2203 397 
Q 2534 397 2845 478 
Q 3156 559 3463 722 
L 3463 178 
Q 3153 47 2828 -22 
Q 2503 -91 2169 -91 
Q 1331 -91 842 396 
Q 353 884 353 1716 
Q 353 2575 817 3079 
Q 1281 3584 2069 3584 
Q 2775 3584 3186 3129 
Q 3597 2675 3597 1894 
z
M 3022 2063 
Q 3016 2534 2758 2815 
Q 2500 3097 2075 3097 
Q 1594 3097 1305 2825 
Q 1016 2553 972 2059 
L 3022 2063 
z
" transform="scale(0.015625)"/>
       <path id="DejaVuSans-61" d="M 2194 1759 
Q 1497 1759 1228 1600 
Q 959 1441 959 1056 
Q 959 750 1161 570 
Q 1363 391 1709 391 
Q 2188 391 2477 730 
Q 2766 1069 2766 1631 
L 2766 1759 
L 2194 1759 
z
M 3341 1997 
L 3341 0 
L 2766 0 
L 2766 531 
Q 2569 213 2275 61 
Q 1981 -91 1556 -91 
Q 1019 -91 701 211 
Q 384 513 384 1019 
Q 384 1609 779 1909 
Q 1175 2209 1959 2209 
L 2766 2209 
L 2766 2266 
Q 2766 2663 2505 2880 
Q 2244 3097 1772 3097 
Q 1472 3097 1187 3025 
Q 903 2953 641 2809 
L 641 3341 
Q 956 3463 1253 3523 
Q 1550 3584 1831 3584 
Q 2591 3584 2966 3190 
Q 3341 2797 3341 1997 
z
" transform="scale(0.015625)"/>
       <path id="DejaVuSans-72" d="M 2631 2963 
Q 2534 3019 2420 3045 
Q 2306 3072 2169 3072 
Q 1681 3072 1420 2755 
Q 1159 2438 1159 1844 
L 1159 0 
L 581 0 
L 581 3500 
L 1159 3500 
L 1159 2956 
Q 1341 3275 1631 3429 
Q 1922 3584 2338 3584 
Q 2397 3584 2469 3576 
Q 2541 3569 2628 3553 
L 2631 2963 
z
" transform="scale(0.015625)"/>
       <path id="DejaVuSans-6e" d="M 3513 2113 
L 3513 0 
L 2938 0 
L 2938 2094 
Q 2938 2591 2744 2837 
Q 2550 3084 2163 3084 
Q 1697 3084 1428 2787 
Q 1159 2491 1159 1978 
L 1159 0 
L 581 0 
L 581 3500 
L 1159 3500 
L 1159 2956 
Q 1366 3272 1645 3428 
Q 1925 3584 2291 3584 
Q 2894 3584 3203 3211 
Q 3513 2838 3513 2113 
z
" transform="scale(0.015625)"/>
       <path id="DejaVuSans-69" d="M 603 3500 
L 1178 3500 
L 1178 0 
L 603 0 
L 603 3500 
z
M 603 4863 
L 1178 4863 
L 1178 4134 
L 603 4134 
L 603 4863 
z
" transform="scale(0.015625)"/>
       <path id="DejaVuSans-67" d="M 2906 1791 
Q 2906 2416 2648 2759 
Q 2391 3103 1925 3103 
Q 1463 3103 1205 2759 
Q 947 2416 947 1791 
Q 947 1169 1205 825 
Q 1463 481 1925 481 
Q 2391 481 2648 825 
Q 2906 1169 2906 1791 
z
M 3481 434 
Q 3481 -459 3084 -895 
Q 2688 -1331 1869 -1331 
Q 1566 -1331 1297 -1286 
Q 1028 -1241 775 -1147 
L 775 -588 
Q 1028 -725 1275 -790 
Q 1522 -856 1778 -856 
Q 2344 -856 2625 -561 
Q 2906 -266 2906 331 
L 2906 616 
Q 2728 306 2450 153 
Q 2172 0 1784 0 
Q 1141 0 747 490 
Q 353 981 353 1791 
Q 353 2603 747 3093 
Q 1141 3584 1784 3584 
Q 2172 3584 2450 3431 
Q 2728 3278 2906 2969 
L 2906 3500 
L 3481 3500 
L 3481 434 
z
" transform="scale(0.015625)"/>
       <path id="DejaVuSans-74" d="M 1172 4494 
L 1172 3500 
L 2356 3500 
L 2356 3053 
L 1172 3053 
L 1172 1153 
Q 1172 725 1289 603 
Q 1406 481 1766 481 
L 2356 481 
L 2356 0 
L 1766 0 
Q 1100 0 847 248 
Q 594 497 594 1153 
L 594 3053 
L 172 3053 
L 172 3500 
L 594 3500 
L 594 4494 
L 1172 4494 
z
" transform="scale(0.015625)"/>
      </defs>
      <use xlink:href="#DejaVuSans-52"/>
      <use xlink:href="#DejaVuSans-57" x="65.482422"/>
      <use xlink:href="#DejaVuSans-20" x="164.359375"/>
      <use xlink:href="#DejaVuSans-4c" x="196.146484"/>
      <use xlink:href="#DejaVuSans-65" x="250.109375"/>
      <use xlink:href="#DejaVuSans-61" x="311.632812"/>
      <use xlink:href="#DejaVuSans-72" x="372.912109"/>
      <use xlink:href="#DejaVuSans-6e" x="412.275391"/>
      <use xlink:href="#DejaVuSans-69" x="475.654297"/>
      <use xlink:href="#DejaVuSans-6e" x="503.4375"/>
      <use xlink:href="#DejaVuSans-67" x="566.816406"/>
      <use xlink:href="#DejaVuSans-20" x="630.292969"/>
      <use xlink:href="#DejaVuSans-72" x="662.080078"/>
      <use xlink:href="#DejaVuSans-61" x="703.193359"/>
      <use xlink:href="#DejaVuSans-74" x="764.472656"/>
      <use xlink:href="#DejaVuSans-65" x="803.681641"/>
     </g>
    </g>
   </g>
   <g id="matplotlib.axis_2">
    <g id="ytick_1">
     <g id="line2d_4">
      <defs>
       <path id="m067ba623fd" d="M 0 0 
L -3.5 0 
" style="stroke: #000000; stroke-width: 0.8"/>
      </defs>
      <g>
       <use xlink:href="#m067ba623fd" x="49.564375" y="171.021273" style="stroke: #000000; stroke-width: 0.8"/>
      </g>
     </g>
     <g id="text_5">
      <!-- 0 -->
      <g transform="translate(33.656875 176.340179) scale(0.14 -0.14)">
       <use xlink:href="#DejaVuSans-30"/>
      </g>
     </g>
    </g>
    <g id="ytick_2">
     <g id="line2d_5">
      <g>
       <use xlink:href="#m067ba623fd" x="49.564375" y="129.839455" style="stroke: #000000; stroke-width: 0.8"/>
      </g>
     </g>
     <g id="text_6">
      <!-- 5 -->
      <g transform="translate(33.656875 135.158361) scale(0.14 -0.14)">
       <use xlink:href="#DejaVuSans-35"/>
      </g>
     </g>
    </g>
    <g id="ytick_3">
     <g id="line2d_6">
      <g>
       <use xlink:href="#m067ba623fd" x="49.564375" y="88.657636" style="stroke: #000000; stroke-width: 0.8"/>
      </g>
     </g>
     <g id="text_7">
      <!-- 10 -->
      <g transform="translate(24.749375 93.976543) scale(0.14 -0.14)">
       <use xlink:href="#DejaVuSans-31"/>
       <use xlink:href="#DejaVuSans-30" x="63.623047"/>
      </g>
     </g>
    </g>
    <g id="ytick_4">
     <g id="line2d_7">
      <g>
       <use xlink:href="#m067ba623fd" x="49.564375" y="47.475818" style="stroke: #000000; stroke-width: 0.8"/>
      </g>
     </g>
     <g id="text_8">
      <!-- 15 -->
      <g transform="translate(24.749375 52.794724) scale(0.14 -0.14)">
       <use xlink:href="#DejaVuSans-31"/>
       <use xlink:href="#DejaVuSans-35" x="63.623047"/>
      </g>
     </g>
    </g>
    <g id="text_9">
     <!-- BDI score -->
     <g transform="translate(17.837813 130.182281) rotate(-90) scale(0.14 -0.14)">
      <defs>
       <path id="DejaVuSans-42" d="M 1259 2228 
L 1259 519 
L 2272 519 
Q 2781 519 3026 730 
Q 3272 941 3272 1375 
Q 3272 1813 3026 2020 
Q 2781 2228 2272 2228 
L 1259 2228 
z
M 1259 4147 
L 1259 2741 
L 2194 2741 
Q 2656 2741 2882 2914 
Q 3109 3088 3109 3444 
Q 3109 3797 2882 3972 
Q 2656 4147 2194 4147 
L 1259 4147 
z
M 628 4666 
L 2241 4666 
Q 2963 4666 3353 4366 
Q 3744 4066 3744 3513 
Q 3744 3084 3544 2831 
Q 3344 2578 2956 2516 
Q 3422 2416 3680 2098 
Q 3938 1781 3938 1306 
Q 3938 681 3513 340 
Q 3088 0 2303 0 
L 628 0 
L 628 4666 
z
" transform="scale(0.015625)"/>
       <path id="DejaVuSans-44" d="M 1259 4147 
L 1259 519 
L 2022 519 
Q 2988 519 3436 956 
Q 3884 1394 3884 2338 
Q 3884 3275 3436 3711 
Q 2988 4147 2022 4147 
L 1259 4147 
z
M 628 4666 
L 1925 4666 
Q 3281 4666 3915 4102 
Q 4550 3538 4550 2338 
Q 4550 1131 3912 565 
Q 3275 0 1925 0 
L 628 0 
L 628 4666 
z
" transform="scale(0.015625)"/>
       <path id="DejaVuSans-49" d="M 628 4666 
L 1259 4666 
L 1259 0 
L 628 0 
L 628 4666 
z
" transform="scale(0.015625)"/>
       <path id="DejaVuSans-73" d="M 2834 3397 
L 2834 2853 
Q 2591 2978 2328 3040 
Q 2066 3103 1784 3103 
Q 1356 3103 1142 2972 
Q 928 2841 928 2578 
Q 928 2378 1081 2264 
Q 1234 2150 1697 2047 
L 1894 2003 
Q 2506 1872 2764 1633 
Q 3022 1394 3022 966 
Q 3022 478 2636 193 
Q 2250 -91 1575 -91 
Q 1294 -91 989 -36 
Q 684 19 347 128 
L 347 722 
Q 666 556 975 473 
Q 1284 391 1588 391 
Q 1994 391 2212 530 
Q 2431 669 2431 922 
Q 2431 1156 2273 1281 
Q 2116 1406 1581 1522 
L 1381 1569 
Q 847 1681 609 1914 
Q 372 2147 372 2553 
Q 372 3047 722 3315 
Q 1072 3584 1716 3584 
Q 2034 3584 2315 3537 
Q 2597 3491 2834 3397 
z
" transform="scale(0.015625)"/>
       <path id="DejaVuSans-63" d="M 3122 3366 
L 3122 2828 
Q 2878 2963 2633 3030 
Q 2388 3097 2138 3097 
Q 1578 3097 1268 2742 
Q 959 2388 959 1747 
Q 959 1106 1268 751 
Q 1578 397 2138 397 
Q 2388 397 2633 464 
Q 2878 531 3122 666 
L 3122 134 
Q 2881 22 2623 -34 
Q 2366 -91 2075 -91 
Q 1284 -91 818 406 
Q 353 903 353 1747 
Q 353 2603 823 3093 
Q 1294 3584 2113 3584 
Q 2378 3584 2631 3529 
Q 2884 3475 3122 3366 
z
" transform="scale(0.015625)"/>
       <path id="DejaVuSans-6f" d="M 1959 3097 
Q 1497 3097 1228 2736 
Q 959 2375 959 1747 
Q 959 1119 1226 758 
Q 1494 397 1959 397 
Q 2419 397 2687 759 
Q 2956 1122 2956 1747 
Q 2956 2369 2687 2733 
Q 2419 3097 1959 3097 
z
M 1959 3584 
Q 2709 3584 3137 3096 
Q 3566 2609 3566 1747 
Q 3566 888 3137 398 
Q 2709 -91 1959 -91 
Q 1206 -91 779 398 
Q 353 888 353 1747 
Q 353 2609 779 3096 
Q 1206 3584 1959 3584 
z
" transform="scale(0.015625)"/>
      </defs>
      <use xlink:href="#DejaVuSans-42"/>
      <use xlink:href="#DejaVuSans-44" x="68.603516"/>
      <use xlink:href="#DejaVuSans-49" x="145.605469"/>
      <use xlink:href="#DejaVuSans-20" x="175.097656"/>
      <use xlink:href="#DejaVuSans-73" x="206.884766"/>
      <use xlink:href="#DejaVuSans-63" x="258.984375"/>
      <use xlink:href="#DejaVuSans-6f" x="313.964844"/>
      <use xlink:href="#DejaVuSans-72" x="375.146484"/>
      <use xlink:href="#DejaVuSans-65" x="414.009766"/>
     </g>
    </g>
   </g>
   <g id="line2d_8">
    <path d="M 62.839127 122.919937 
L 56.024747 121.89217 
L 76.641864 125.00171 
L 87.390517 126.622856 
L 60.777632 122.609016 
L 64.400942 123.155495 
L 56.055331 121.896783 
L 61.919198 122.78119 
L 63.683896 123.047348 
L 56.068471 121.898765 
L 65.0884 123.259179 
L 74.120509 124.621431 
L 56.202173 121.91893 
L 103.094418 128.991368 
L 65.700698 123.351528 
L 62.646434 122.890874 
L 78.308591 125.253091 
L 165.280014 138.370398 
L 66.001099 123.396836 
L 79.408999 125.419058 
L 115.654701 130.88575 
L 86.310716 126.459997 
L 69.857109 123.978411 
L 162.934452 138.016633 
L 86.310716 126.459997 
L 53.647302 121.533597 
L 107.945789 129.723068 
L 79.804873 125.478765 
L 152.79748 136.487743 
L 110.512005 130.110112 
L 90.877389 127.148757 
L 63.356303 122.997939 
L 67.760421 123.662182 
L 85.90479 126.398774 
L 65.58953 123.334761 
L 86.310716 126.459997 
L 56.092489 121.902387 
L 76.45001 124.972774 
L 65.073409 123.256919 
L 106.223276 129.463273 
L 77.625232 125.150025 
L 53.647302 121.533597 
L 53.647302 121.533597 
L 71.732275 124.26123 
L 54.449141 121.654532 
L 63.734671 123.055006 
L 68.318416 123.746341 
L 53.647302 121.533597 
L 63.478392 123.016353 
L 61.840863 122.769376 
L 104.659732 129.227454 
L 67.70382 123.653645 
L 109.206021 129.91314 
L 55.696168 121.842613 
L 64.248093 123.132442 
L 60.365197 122.546811 
L 60.864505 122.622118 
L 123.675324 132.095446 
L 66.137178 123.41736 
L 78.154107 125.229791 
L 75.308313 124.800579 
L 57.629613 122.134221 
L 74.8255 124.72776 
L 93.013861 127.470987 
" clip-path="url(#pb0606049bd)" style="fill: none; stroke: #800080; stroke-width: 1.5; stroke-linecap: square"/>
   </g>
   <g id="patch_3">
    <path d="M 49.564375 178.434 
L 49.564375 15.354 
" style="fill: none; stroke: #000000; stroke-width: 0.8; stroke-linejoin: miter; stroke-linecap: square"/>
   </g>
   <g id="patch_4">
    <path d="M 49.564375 178.434 
L 216.964375 178.434 
" style="fill: none; stroke: #000000; stroke-width: 0.8; stroke-linejoin: miter; stroke-linecap: square"/>
   </g>
   <g id="text_10">
    <!-- $R^2 = 0.01, p = 0.45$ -->
    <g transform="translate(108.154375 18.12) scale(0.12 -0.12)">
     <defs>
      <path id="DejaVuSans-Oblique-52" d="M 1613 4147 
L 1294 2491 
L 2106 2491 
Q 2584 2491 2879 2755 
Q 3175 3019 3175 3444 
Q 3175 3784 2976 3965 
Q 2778 4147 2406 4147 
L 1613 4147 
z
M 2772 2241 
Q 2972 2194 3105 2009 
Q 3238 1825 3413 1275 
L 3809 0 
L 3144 0 
L 2778 1197 
Q 2638 1659 2453 1815 
Q 2269 1972 1888 1972 
L 1191 1972 
L 806 0 
L 172 0 
L 1081 4666 
L 2503 4666 
Q 3150 4666 3495 4373 
Q 3841 4081 3841 3531 
Q 3841 3044 3547 2687 
Q 3253 2331 2772 2241 
z
" transform="scale(0.015625)"/>
      <path id="DejaVuSans-32" d="M 1228 531 
L 3431 531 
L 3431 0 
L 469 0 
L 469 531 
Q 828 903 1448 1529 
Q 2069 2156 2228 2338 
Q 2531 2678 2651 2914 
Q 2772 3150 2772 3378 
Q 2772 3750 2511 3984 
Q 2250 4219 1831 4219 
Q 1534 4219 1204 4116 
Q 875 4013 500 3803 
L 500 4441 
Q 881 4594 1212 4672 
Q 1544 4750 1819 4750 
Q 2544 4750 2975 4387 
Q 3406 4025 3406 3419 
Q 3406 3131 3298 2873 
Q 3191 2616 2906 2266 
Q 2828 2175 2409 1742 
Q 1991 1309 1228 531 
z
" transform="scale(0.015625)"/>
      <path id="DejaVuSans-3d" d="M 678 2906 
L 4684 2906 
L 4684 2381 
L 678 2381 
L 678 2906 
z
M 678 1631 
L 4684 1631 
L 4684 1100 
L 678 1100 
L 678 1631 
z
" transform="scale(0.015625)"/>
      <path id="DejaVuSans-2c" d="M 750 794 
L 1409 794 
L 1409 256 
L 897 -744 
L 494 -744 
L 750 256 
L 750 794 
z
" transform="scale(0.015625)"/>
      <path id="DejaVuSans-Oblique-70" d="M 3175 2156 
Q 3175 2616 2975 2859 
Q 2775 3103 2400 3103 
Q 2144 3103 1911 2972 
Q 1678 2841 1497 2591 
Q 1319 2344 1212 1994 
Q 1106 1644 1106 1300 
Q 1106 863 1306 627 
Q 1506 391 1875 391 
Q 2147 391 2380 519 
Q 2613 647 2778 891 
Q 2956 1147 3065 1494 
Q 3175 1841 3175 2156 
z
M 1394 2969 
Q 1625 3272 1939 3428 
Q 2253 3584 2638 3584 
Q 3175 3584 3472 3232 
Q 3769 2881 3769 2247 
Q 3769 1728 3584 1258 
Q 3400 788 3053 416 
Q 2822 169 2531 39 
Q 2241 -91 1919 -91 
Q 1547 -91 1294 64 
Q 1041 219 916 525 
L 556 -1331 
L -19 -1331 
L 922 3500 
L 1497 3500 
L 1394 2969 
z
" transform="scale(0.015625)"/>
      <path id="DejaVuSans-34" d="M 2419 4116 
L 825 1625 
L 2419 1625 
L 2419 4116 
z
M 2253 4666 
L 3047 4666 
L 3047 1625 
L 3713 1625 
L 3713 1100 
L 3047 1100 
L 3047 0 
L 2419 0 
L 2419 1100 
L 313 1100 
L 313 1709 
L 2253 4666 
z
" transform="scale(0.015625)"/>
     </defs>
     <use xlink:href="#DejaVuSans-Oblique-52" transform="translate(0 0.765625)"/>
     <use xlink:href="#DejaVuSans-32" transform="translate(76.499193 39.046875) scale(0.7)"/>
     <use xlink:href="#DejaVuSans-3d" transform="translate(143.252122 0.765625)"/>
     <use xlink:href="#DejaVuSans-30" transform="translate(246.523607 0.765625)"/>
     <use xlink:href="#DejaVuSans-2e" transform="translate(310.146654 0.765625)"/>
     <use xlink:href="#DejaVuSans-30" transform="translate(341.933763 0.765625)"/>
     <use xlink:href="#DejaVuSans-31" transform="translate(405.55681 0.765625)"/>
     <use xlink:href="#DejaVuSans-2c" transform="translate(469.179857 0.765625)"/>
     <use xlink:href="#DejaVuSans-Oblique-70" transform="translate(520.449388 0.765625)"/>
     <use xlink:href="#DejaVuSans-3d" transform="translate(603.408372 0.765625)"/>
     <use xlink:href="#DejaVuSans-30" transform="translate(706.679857 0.765625)"/>
     <use xlink:href="#DejaVuSans-2e" transform="translate(770.302904 0.765625)"/>
     <use xlink:href="#DejaVuSans-34" transform="translate(802.090013 0.765625)"/>
     <use xlink:href="#DejaVuSans-35" transform="translate(865.71306 0.765625)"/>
    </g>
   </g>
  </g>
 </g>
 <defs>
  <clipPath id="pb0606049bd">
   <rect x="49.564375" y="15.354" width="167.4" height="163.08"/>
  </clipPath>
 </defs>
</svg>
