<?xml version="1.0" encoding="utf-8" standalone="no"?>
<!DOCTYPE svg PUBLIC "-//W3C//DTD SVG 1.1//EN"
  "http://www.w3.org/Graphics/SVG/1.1/DTD/svg11.dtd">
<svg xmlns:xlink="http://www.w3.org/1999/xlink" width="340.245pt" height="444.885011pt" viewBox="0 0 340.245 444.885011" xmlns="http://www.w3.org/2000/svg" version="1.1">
 <metadata>
  <rdf:RDF xmlns:dc="http://purl.org/dc/elements/1.1/" xmlns:cc="http://creativecommons.org/ns#" xmlns:rdf="http://www.w3.org/1999/02/22-rdf-syntax-ns#">
   <cc:Work>
    <dc:type rdf:resource="http://purl.org/dc/dcmitype/StillImage"/>
    <dc:date>2024-07-30T14:54:22.099044</dc:date>
    <dc:format>image/svg+xml</dc:format>
    <dc:creator>
     <cc:Agent>
      <dc:title>Matplotlib v3.9.1, https://matplotlib.org/</dc:title>
     </cc:Agent>
    </dc:creator>
   </cc:Work>
  </rdf:RDF>
 </metadata>
 <defs>
  <style type="text/css">*{stroke-linejoin: round; stroke-linecap: butt}</style>
 </defs>
 <g id="figure_1">
  <g id="patch_1">
   <path d="M 0 444.885011 
L 340.245 444.885011 
L 340.245 -0 
L 0 -0 
z
" style="fill: #ffffff"/>
  </g>
  <g id="axes_1">
   <g id="patch_2">
    <path d="M 54.045 279 
L 333.045 279 
L 333.045 7.2 
L 54.045 7.2 
z
" style="fill: #ffffff"/>
   </g>
   <g id="patch_3">
    <path d="M 70.141154 19.554545 
L 91.602692 19.554545 
L 91.602692 19.554545 
L 70.141154 19.554545 
L 70.141154 19.554545 
z
" clip-path="url(#p24bf55edda)" style="fill: #0000ff; stroke: #000000; stroke-linejoin: miter"/>
   </g>
   <g id="line2d_1">
    <path d="M 80.871923 19.554545 
L 80.871923 19.554545 
" clip-path="url(#p24bf55edda)" style="fill: none; stroke: #000000; stroke-linecap: square"/>
   </g>
   <g id="line2d_2">
    <path d="M 80.871923 19.554545 
L 80.871923 19.554545 
" clip-path="url(#p24bf55edda)" style="fill: none; stroke: #000000; stroke-linecap: square"/>
   </g>
   <g id="line2d_3">
    <path d="M 75.506538 19.554545 
L 86.237308 19.554545 
" clip-path="url(#p24bf55edda)" style="fill: none; stroke: #000000; stroke-linecap: square"/>
   </g>
   <g id="line2d_4">
    <path d="M 75.506538 19.554545 
L 86.237308 19.554545 
" clip-path="url(#p24bf55edda)" style="fill: none; stroke: #000000; stroke-linecap: square"/>
   </g>
   <g id="line2d_5"/>
   <g id="patch_4">
    <path d="M 107.698846 193.32798 
L 129.160385 193.32798 
L 129.160385 187.115796 
L 107.698846 187.115796 
L 107.698846 193.32798 
z
" clip-path="url(#p24bf55edda)" style="fill: #008000; stroke: #000000; stroke-linejoin: miter"/>
   </g>
   <g id="line2d_6">
    <path d="M 118.429615 193.32798 
L 118.429615 202.485504 
" clip-path="url(#p24bf55edda)" style="fill: none; stroke: #000000; stroke-linecap: square"/>
   </g>
   <g id="line2d_7">
    <path d="M 118.429615 187.115796 
L 118.429615 183.567075 
" clip-path="url(#p24bf55edda)" style="fill: none; stroke: #000000; stroke-linecap: square"/>
   </g>
   <g id="line2d_8">
    <path d="M 113.064231 202.485504 
L 123.795 202.485504 
" clip-path="url(#p24bf55edda)" style="fill: none; stroke: #000000; stroke-linecap: square"/>
   </g>
   <g id="line2d_9">
    <path d="M 113.064231 183.567075 
L 123.795 183.567075 
" clip-path="url(#p24bf55edda)" style="fill: none; stroke: #000000; stroke-linecap: square"/>
   </g>
   <g id="line2d_10">
    <defs>
     <path id="m49735182a9" d="M 0 3 
C 0.795609 3 1.55874 2.683901 2.12132 2.12132 
C 2.683901 1.55874 3 0.795609 3 0 
C 3 -0.795609 2.683901 -1.55874 2.12132 -2.12132 
C 1.55874 -2.683901 0.795609 -3 0 -3 
C -0.795609 -3 -1.55874 -2.683901 -2.12132 -2.12132 
C -2.683901 -1.55874 -3 -0.795609 -3 0 
C -3 0.795609 -2.683901 1.55874 -2.12132 2.12132 
C -1.55874 2.683901 -0.795609 3 0 3 
z
" style="stroke: #000000"/>
    </defs>
    <g clip-path="url(#p24bf55edda)">
     <use xlink:href="#m49735182a9" x="118.429615" y="205.892653" style="fill-opacity: 0; stroke: #000000"/>
     <use xlink:href="#m49735182a9" x="118.429615" y="173.593521" style="fill-opacity: 0; stroke: #000000"/>
    </g>
   </g>
   <g id="patch_5">
    <path d="M 145.256538 192.538363 
L 166.718077 192.538363 
L 166.718077 187.683783 
L 145.256538 187.683783 
L 145.256538 192.538363 
z
" clip-path="url(#p24bf55edda)" style="fill: #ff0000; stroke: #000000; stroke-linejoin: miter"/>
   </g>
   <g id="line2d_11">
    <path d="M 155.987308 192.538363 
L 155.987308 198.496855 
" clip-path="url(#p24bf55edda)" style="fill: none; stroke: #000000; stroke-linecap: square"/>
   </g>
   <g id="line2d_12">
    <path d="M 155.987308 187.683783 
L 155.987308 184.439574 
" clip-path="url(#p24bf55edda)" style="fill: none; stroke: #000000; stroke-linecap: square"/>
   </g>
   <g id="line2d_13">
    <path d="M 150.621923 198.496855 
L 161.352692 198.496855 
" clip-path="url(#p24bf55edda)" style="fill: none; stroke: #000000; stroke-linecap: square"/>
   </g>
   <g id="line2d_14">
    <path d="M 150.621923 184.439574 
L 161.352692 184.439574 
" clip-path="url(#p24bf55edda)" style="fill: none; stroke: #000000; stroke-linecap: square"/>
   </g>
   <g id="line2d_15">
    <g clip-path="url(#p24bf55edda)">
     <use xlink:href="#m49735182a9" x="155.987308" y="203.756307" style="fill-opacity: 0; stroke: #000000"/>
     <use xlink:href="#m49735182a9" x="155.987308" y="203.881515" style="fill-opacity: 0; stroke: #000000"/>
     <use xlink:href="#m49735182a9" x="155.987308" y="178.466932" style="fill-opacity: 0; stroke: #000000"/>
     <use xlink:href="#m49735182a9" x="155.987308" y="180.144178" style="fill-opacity: 0; stroke: #000000"/>
    </g>
   </g>
   <g id="patch_6">
    <path d="M 182.814231 193.505933 
L 204.275769 193.505933 
L 204.275769 187.250922 
L 182.814231 187.250922 
L 182.814231 193.505933 
z
" clip-path="url(#p24bf55edda)" style="fill: #800080; stroke: #000000; stroke-linejoin: miter"/>
   </g>
   <g id="line2d_16">
    <path d="M 193.545 193.505933 
L 193.545 199.541138 
" clip-path="url(#p24bf55edda)" style="fill: none; stroke: #000000; stroke-linecap: square"/>
   </g>
   <g id="line2d_17">
    <path d="M 193.545 187.250922 
L 193.545 180.34712 
" clip-path="url(#p24bf55edda)" style="fill: none; stroke: #000000; stroke-linecap: square"/>
   </g>
   <g id="line2d_18">
    <path d="M 188.179615 199.541138 
L 198.910385 199.541138 
" clip-path="url(#p24bf55edda)" style="fill: none; stroke: #000000; stroke-linecap: square"/>
   </g>
   <g id="line2d_19">
    <path d="M 188.179615 180.34712 
L 198.910385 180.34712 
" clip-path="url(#p24bf55edda)" style="fill: none; stroke: #000000; stroke-linecap: square"/>
   </g>
   <g id="line2d_20">
    <g clip-path="url(#p24bf55edda)">
     <use xlink:href="#m49735182a9" x="193.545" y="204.076897" style="fill-opacity: 0; stroke: #000000"/>
     <use xlink:href="#m49735182a9" x="193.545" y="204.209302" style="fill-opacity: 0; stroke: #000000"/>
     <use xlink:href="#m49735182a9" x="193.545" y="208.677367" style="fill-opacity: 0; stroke: #000000"/>
     <use xlink:href="#m49735182a9" x="193.545" y="166.166933" style="fill-opacity: 0; stroke: #000000"/>
     <use xlink:href="#m49735182a9" x="193.545" y="177.680989" style="fill-opacity: 0; stroke: #000000"/>
    </g>
   </g>
   <g id="patch_7">
    <path d="M 220.371923 185.532019 
L 241.833462 185.532019 
L 241.833462 184.411377 
L 220.371923 184.411377 
L 220.371923 185.532019 
z
" clip-path="url(#p24bf55edda)" style="fill: #ffc0cb; stroke: #000000; stroke-linejoin: miter"/>
   </g>
   <g id="line2d_21">
    <path d="M 231.102692 185.532019 
L 231.102692 187.174345 
" clip-path="url(#p24bf55edda)" style="fill: none; stroke: #000000; stroke-linecap: square"/>
   </g>
   <g id="line2d_22">
    <path d="M 231.102692 184.411377 
L 231.102692 183.72843 
" clip-path="url(#p24bf55edda)" style="fill: none; stroke: #000000; stroke-linecap: square"/>
   </g>
   <g id="line2d_23">
    <path d="M 225.737308 187.174345 
L 236.468077 187.174345 
" clip-path="url(#p24bf55edda)" style="fill: none; stroke: #000000; stroke-linecap: square"/>
   </g>
   <g id="line2d_24">
    <path d="M 225.737308 183.72843 
L 236.468077 183.72843 
" clip-path="url(#p24bf55edda)" style="fill: none; stroke: #000000; stroke-linecap: square"/>
   </g>
   <g id="line2d_25">
    <g clip-path="url(#p24bf55edda)">
     <use xlink:href="#m49735182a9" x="231.102692" y="189.183591" style="fill-opacity: 0; stroke: #000000"/>
     <use xlink:href="#m49735182a9" x="231.102692" y="201.295848" style="fill-opacity: 0; stroke: #000000"/>
     <use xlink:href="#m49735182a9" x="231.102692" y="192.924887" style="fill-opacity: 0; stroke: #000000"/>
     <use xlink:href="#m49735182a9" x="231.102692" y="204.406578" style="fill-opacity: 0; stroke: #000000"/>
     <use xlink:href="#m49735182a9" x="231.102692" y="187.579843" style="fill-opacity: 0; stroke: #000000"/>
    </g>
   </g>
   <g id="patch_8">
    <path d="M 257.929615 187.190129 
L 279.391154 187.190129 
L 279.391154 184.991972 
L 257.929615 184.991972 
L 257.929615 187.190129 
z
" clip-path="url(#p24bf55edda)" style="fill: #ffa500; stroke: #000000; stroke-linejoin: miter"/>
   </g>
   <g id="line2d_26">
    <path d="M 268.660385 187.190129 
L 268.660385 189.9558 
" clip-path="url(#p24bf55edda)" style="fill: none; stroke: #000000; stroke-linecap: square"/>
   </g>
   <g id="line2d_27">
    <path d="M 268.660385 184.991972 
L 268.660385 184.104979 
" clip-path="url(#p24bf55edda)" style="fill: none; stroke: #000000; stroke-linecap: square"/>
   </g>
   <g id="line2d_28">
    <path d="M 263.295 189.9558 
L 274.025769 189.9558 
" clip-path="url(#p24bf55edda)" style="fill: none; stroke: #000000; stroke-linecap: square"/>
   </g>
   <g id="line2d_29">
    <path d="M 263.295 184.104979 
L 274.025769 184.104979 
" clip-path="url(#p24bf55edda)" style="fill: none; stroke: #000000; stroke-linecap: square"/>
   </g>
   <g id="line2d_30">
    <g clip-path="url(#p24bf55edda)">
     <use xlink:href="#m49735182a9" x="268.660385" y="200.112451" style="fill-opacity: 0; stroke: #000000"/>
     <use xlink:href="#m49735182a9" x="268.660385" y="208.429621" style="fill-opacity: 0; stroke: #000000"/>
    </g>
   </g>
   <g id="patch_9">
    <path d="M 295.487308 196.220661 
L 316.948846 196.220661 
L 316.948846 190.359276 
L 295.487308 190.359276 
L 295.487308 196.220661 
z
" clip-path="url(#p24bf55edda)" style="fill: #c0c0c0; stroke: #000000; stroke-linejoin: miter"/>
   </g>
   <g id="line2d_31">
    <path d="M 306.218077 196.220661 
L 306.218077 203.754907 
" clip-path="url(#p24bf55edda)" style="fill: none; stroke: #000000; stroke-linecap: square"/>
   </g>
   <g id="line2d_32">
    <path d="M 306.218077 190.359276 
L 306.218077 184.19168 
" clip-path="url(#p24bf55edda)" style="fill: none; stroke: #000000; stroke-linecap: square"/>
   </g>
   <g id="line2d_33">
    <path d="M 300.852692 203.754907 
L 311.583462 203.754907 
" clip-path="url(#p24bf55edda)" style="fill: none; stroke: #000000; stroke-linecap: square"/>
   </g>
   <g id="line2d_34">
    <path d="M 300.852692 184.19168 
L 311.583462 184.19168 
" clip-path="url(#p24bf55edda)" style="fill: none; stroke: #000000; stroke-linecap: square"/>
   </g>
   <g id="line2d_35">
    <g clip-path="url(#p24bf55edda)">
     <use xlink:href="#m49735182a9" x="306.218077" y="210.075641" style="fill-opacity: 0; stroke: #000000"/>
     <use xlink:href="#m49735182a9" x="306.218077" y="266.645455" style="fill-opacity: 0; stroke: #000000"/>
    </g>
   </g>
   <g id="line2d_36">
    <path d="M 70.141154 19.554545 
L 91.602692 19.554545 
" clip-path="url(#p24bf55edda)" style="fill: none; stroke: #000000"/>
   </g>
   <g id="line2d_37">
    <path d="M 107.698846 190.6928 
L 129.160385 190.6928 
" clip-path="url(#p24bf55edda)" style="fill: none; stroke: #000000"/>
   </g>
   <g id="line2d_38">
    <path d="M 145.256538 189.738812 
L 166.718077 189.738812 
" clip-path="url(#p24bf55edda)" style="fill: none; stroke: #000000"/>
   </g>
   <g id="line2d_39">
    <path d="M 182.814231 191.385626 
L 204.275769 191.385626 
" clip-path="url(#p24bf55edda)" style="fill: none; stroke: #000000"/>
   </g>
   <g id="line2d_40">
    <path d="M 220.371923 184.915028 
L 241.833462 184.915028 
" clip-path="url(#p24bf55edda)" style="fill: none; stroke: #000000"/>
   </g>
   <g id="line2d_41">
    <path d="M 257.929615 186.005905 
L 279.391154 186.005905 
" clip-path="url(#p24bf55edda)" style="fill: none; stroke: #000000"/>
   </g>
   <g id="line2d_42">
    <path d="M 295.487308 192.663136 
L 316.948846 192.663136 
" clip-path="url(#p24bf55edda)" style="fill: none; stroke: #000000"/>
   </g>
   <g id="matplotlib.axis_1">
    <g id="xtick_1">
     <g id="line2d_43">
      <defs>
       <path id="m175ff5ba17" d="M 0 0 
L 0 3.5 
" style="stroke: #000000; stroke-width: 0.8"/>
      </defs>
      <g>
       <use xlink:href="#m175ff5ba17" x="80.871923" y="279" style="stroke: #000000; stroke-width: 0.8"/>
      </g>
     </g>
     <g id="text_1">
      <!-- Random -->
      <g transform="translate(31.683808 341.431868) rotate(-45) scale(0.16 -0.16)">
       <defs>
        <path id="DejaVuSans-52" d="M 2841 2188 
Q 3044 2119 3236 1894 
Q 3428 1669 3622 1275 
L 4263 0 
L 3584 0 
L 2988 1197 
Q 2756 1666 2539 1819 
Q 2322 1972 1947 1972 
L 1259 1972 
L 1259 0 
L 628 0 
L 628 4666 
L 2053 4666 
Q 2853 4666 3247 4331 
Q 3641 3997 3641 3322 
Q 3641 2881 3436 2590 
Q 3231 2300 2841 2188 
z
M 1259 4147 
L 1259 2491 
L 2053 2491 
Q 2509 2491 2742 2702 
Q 2975 2913 2975 3322 
Q 2975 3731 2742 3939 
Q 2509 4147 2053 4147 
L 1259 4147 
z
" transform="scale(0.015625)"/>
        <path id="DejaVuSans-61" d="M 2194 1759 
Q 1497 1759 1228 1600 
Q 959 1441 959 1056 
Q 959 750 1161 570 
Q 1363 391 1709 391 
Q 2188 391 2477 730 
Q 2766 1069 2766 1631 
L 2766 1759 
L 2194 1759 
z
M 3341 1997 
L 3341 0 
L 2766 0 
L 2766 531 
Q 2569 213 2275 61 
Q 1981 -91 1556 -91 
Q 1019 -91 701 211 
Q 384 513 384 1019 
Q 384 1609 779 1909 
Q 1175 2209 1959 2209 
L 2766 2209 
L 2766 2266 
Q 2766 2663 2505 2880 
Q 2244 3097 1772 3097 
Q 1472 3097 1187 3025 
Q 903 2953 641 2809 
L 641 3341 
Q 956 3463 1253 3523 
Q 1550 3584 1831 3584 
Q 2591 3584 2966 3190 
Q 3341 2797 3341 1997 
z
" transform="scale(0.015625)"/>
        <path id="DejaVuSans-6e" d="M 3513 2113 
L 3513 0 
L 2938 0 
L 2938 2094 
Q 2938 2591 2744 2837 
Q 2550 3084 2163 3084 
Q 1697 3084 1428 2787 
Q 1159 2491 1159 1978 
L 1159 0 
L 581 0 
L 581 3500 
L 1159 3500 
L 1159 2956 
Q 1366 3272 1645 3428 
Q 1925 3584 2291 3584 
Q 2894 3584 3203 3211 
Q 3513 2838 3513 2113 
z
" transform="scale(0.015625)"/>
        <path id="DejaVuSans-64" d="M 2906 2969 
L 2906 4863 
L 3481 4863 
L 3481 0 
L 2906 0 
L 2906 525 
Q 2725 213 2448 61 
Q 2172 -91 1784 -91 
Q 1150 -91 751 415 
Q 353 922 353 1747 
Q 353 2572 751 3078 
Q 1150 3584 1784 3584 
Q 2172 3584 2448 3432 
Q 2725 3281 2906 2969 
z
M 947 1747 
Q 947 1113 1208 752 
Q 1469 391 1925 391 
Q 2381 391 2643 752 
Q 2906 1113 2906 1747 
Q 2906 2381 2643 2742 
Q 2381 3103 1925 3103 
Q 1469 3103 1208 2742 
Q 947 2381 947 1747 
z
" transform="scale(0.015625)"/>
        <path id="DejaVuSans-6f" d="M 1959 3097 
Q 1497 3097 1228 2736 
Q 959 2375 959 1747 
Q 959 1119 1226 758 
Q 1494 397 1959 397 
Q 2419 397 2687 759 
Q 2956 1122 2956 1747 
Q 2956 2369 2687 2733 
Q 2419 3097 1959 3097 
z
M 1959 3584 
Q 2709 3584 3137 3096 
Q 3566 2609 3566 1747 
Q 3566 888 3137 398 
Q 2709 -91 1959 -91 
Q 1206 -91 779 398 
Q 353 888 353 1747 
Q 353 2609 779 3096 
Q 1206 3584 1959 3584 
z
" transform="scale(0.015625)"/>
        <path id="DejaVuSans-6d" d="M 3328 2828 
Q 3544 3216 3844 3400 
Q 4144 3584 4550 3584 
Q 5097 3584 5394 3201 
Q 5691 2819 5691 2113 
L 5691 0 
L 5113 0 
L 5113 2094 
Q 5113 2597 4934 2840 
Q 4756 3084 4391 3084 
Q 3944 3084 3684 2787 
Q 3425 2491 3425 1978 
L 3425 0 
L 2847 0 
L 2847 2094 
Q 2847 2600 2669 2842 
Q 2491 3084 2119 3084 
Q 1678 3084 1418 2786 
Q 1159 2488 1159 1978 
L 1159 0 
L 581 0 
L 581 3500 
L 1159 3500 
L 1159 2956 
Q 1356 3278 1631 3431 
Q 1906 3584 2284 3584 
Q 2666 3584 2933 3390 
Q 3200 3197 3328 2828 
z
" transform="scale(0.015625)"/>
       </defs>
       <use xlink:href="#DejaVuSans-52"/>
       <use xlink:href="#DejaVuSans-61" x="67.232422"/>
       <use xlink:href="#DejaVuSans-6e" x="128.511719"/>
       <use xlink:href="#DejaVuSans-64" x="191.890625"/>
       <use xlink:href="#DejaVuSans-6f" x="255.367188"/>
       <use xlink:href="#DejaVuSans-6d" x="316.548828"/>
      </g>
     </g>
    </g>
    <g id="xtick_2">
     <g id="line2d_44">
      <g>
       <use xlink:href="#m175ff5ba17" x="118.429615" y="279" style="stroke: #000000; stroke-width: 0.8"/>
      </g>
     </g>
     <g id="text_2">
      <!-- Biased -->
      <g transform="translate(78.200543 332.472825) rotate(-45) scale(0.16 -0.16)">
       <defs>
        <path id="DejaVuSans-42" d="M 1259 2228 
L 1259 519 
L 2272 519 
Q 2781 519 3026 730 
Q 3272 941 3272 1375 
Q 3272 1813 3026 2020 
Q 2781 2228 2272 2228 
L 1259 2228 
z
M 1259 4147 
L 1259 2741 
L 2194 2741 
Q 2656 2741 2882 2914 
Q 3109 3088 3109 3444 
Q 3109 3797 2882 3972 
Q 2656 4147 2194 4147 
L 1259 4147 
z
M 628 4666 
L 2241 4666 
Q 2963 4666 3353 4366 
Q 3744 4066 3744 3513 
Q 3744 3084 3544 2831 
Q 3344 2578 2956 2516 
Q 3422 2416 3680 2098 
Q 3938 1781 3938 1306 
Q 3938 681 3513 340 
Q 3088 0 2303 0 
L 628 0 
L 628 4666 
z
" transform="scale(0.015625)"/>
        <path id="DejaVuSans-69" d="M 603 3500 
L 1178 3500 
L 1178 0 
L 603 0 
L 603 3500 
z
M 603 4863 
L 1178 4863 
L 1178 4134 
L 603 4134 
L 603 4863 
z
" transform="scale(0.015625)"/>
        <path id="DejaVuSans-73" d="M 2834 3397 
L 2834 2853 
Q 2591 2978 2328 3040 
Q 2066 3103 1784 3103 
Q 1356 3103 1142 2972 
Q 928 2841 928 2578 
Q 928 2378 1081 2264 
Q 1234 2150 1697 2047 
L 1894 2003 
Q 2506 1872 2764 1633 
Q 3022 1394 3022 966 
Q 3022 478 2636 193 
Q 2250 -91 1575 -91 
Q 1294 -91 989 -36 
Q 684 19 347 128 
L 347 722 
Q 666 556 975 473 
Q 1284 391 1588 391 
Q 1994 391 2212 530 
Q 2431 669 2431 922 
Q 2431 1156 2273 1281 
Q 2116 1406 1581 1522 
L 1381 1569 
Q 847 1681 609 1914 
Q 372 2147 372 2553 
Q 372 3047 722 3315 
Q 1072 3584 1716 3584 
Q 2034 3584 2315 3537 
Q 2597 3491 2834 3397 
z
" transform="scale(0.015625)"/>
        <path id="DejaVuSans-65" d="M 3597 1894 
L 3597 1613 
L 953 1613 
Q 991 1019 1311 708 
Q 1631 397 2203 397 
Q 2534 397 2845 478 
Q 3156 559 3463 722 
L 3463 178 
Q 3153 47 2828 -22 
Q 2503 -91 2169 -91 
Q 1331 -91 842 396 
Q 353 884 353 1716 
Q 353 2575 817 3079 
Q 1281 3584 2069 3584 
Q 2775 3584 3186 3129 
Q 3597 2675 3597 1894 
z
M 3022 2063 
Q 3016 2534 2758 2815 
Q 2500 3097 2075 3097 
Q 1594 3097 1305 2825 
Q 1016 2553 972 2059 
L 3022 2063 
z
" transform="scale(0.015625)"/>
       </defs>
       <use xlink:href="#DejaVuSans-42"/>
       <use xlink:href="#DejaVuSans-69" x="68.603516"/>
       <use xlink:href="#DejaVuSans-61" x="96.386719"/>
       <use xlink:href="#DejaVuSans-73" x="157.666016"/>
       <use xlink:href="#DejaVuSans-65" x="209.765625"/>
       <use xlink:href="#DejaVuSans-64" x="271.289062"/>
      </g>
     </g>
    </g>
    <g id="xtick_3">
     <g id="line2d_45">
      <g>
       <use xlink:href="#m175ff5ba17" x="155.987308" y="279" style="stroke: #000000; stroke-width: 0.8"/>
      </g>
     </g>
     <g id="text_3">
      <!-- Win-Stay-Lose-Shift -->
      <g transform="translate(43.495458 404.735603) rotate(-45) scale(0.16 -0.16)">
       <defs>
        <path id="DejaVuSans-57" d="M 213 4666 
L 850 4666 
L 1831 722 
L 2809 4666 
L 3519 4666 
L 4500 722 
L 5478 4666 
L 6119 4666 
L 4947 0 
L 4153 0 
L 3169 4050 
L 2175 0 
L 1381 0 
L 213 4666 
z
" transform="scale(0.015625)"/>
        <path id="DejaVuSans-2d" d="M 313 2009 
L 1997 2009 
L 1997 1497 
L 313 1497 
L 313 2009 
z
" transform="scale(0.015625)"/>
        <path id="DejaVuSans-53" d="M 3425 4513 
L 3425 3897 
Q 3066 4069 2747 4153 
Q 2428 4238 2131 4238 
Q 1616 4238 1336 4038 
Q 1056 3838 1056 3469 
Q 1056 3159 1242 3001 
Q 1428 2844 1947 2747 
L 2328 2669 
Q 3034 2534 3370 2195 
Q 3706 1856 3706 1288 
Q 3706 609 3251 259 
Q 2797 -91 1919 -91 
Q 1588 -91 1214 -16 
Q 841 59 441 206 
L 441 856 
Q 825 641 1194 531 
Q 1563 422 1919 422 
Q 2459 422 2753 634 
Q 3047 847 3047 1241 
Q 3047 1584 2836 1778 
Q 2625 1972 2144 2069 
L 1759 2144 
Q 1053 2284 737 2584 
Q 422 2884 422 3419 
Q 422 4038 858 4394 
Q 1294 4750 2059 4750 
Q 2388 4750 2728 4690 
Q 3069 4631 3425 4513 
z
" transform="scale(0.015625)"/>
        <path id="DejaVuSans-74" d="M 1172 4494 
L 1172 3500 
L 2356 3500 
L 2356 3053 
L 1172 3053 
L 1172 1153 
Q 1172 725 1289 603 
Q 1406 481 1766 481 
L 2356 481 
L 2356 0 
L 1766 0 
Q 1100 0 847 248 
Q 594 497 594 1153 
L 594 3053 
L 172 3053 
L 172 3500 
L 594 3500 
L 594 4494 
L 1172 4494 
z
" transform="scale(0.015625)"/>
        <path id="DejaVuSans-79" d="M 2059 -325 
Q 1816 -950 1584 -1140 
Q 1353 -1331 966 -1331 
L 506 -1331 
L 506 -850 
L 844 -850 
Q 1081 -850 1212 -737 
Q 1344 -625 1503 -206 
L 1606 56 
L 191 3500 
L 800 3500 
L 1894 763 
L 2988 3500 
L 3597 3500 
L 2059 -325 
z
" transform="scale(0.015625)"/>
        <path id="DejaVuSans-4c" d="M 628 4666 
L 1259 4666 
L 1259 531 
L 3531 531 
L 3531 0 
L 628 0 
L 628 4666 
z
" transform="scale(0.015625)"/>
        <path id="DejaVuSans-68" d="M 3513 2113 
L 3513 0 
L 2938 0 
L 2938 2094 
Q 2938 2591 2744 2837 
Q 2550 3084 2163 3084 
Q 1697 3084 1428 2787 
Q 1159 2491 1159 1978 
L 1159 0 
L 581 0 
L 581 4863 
L 1159 4863 
L 1159 2956 
Q 1366 3272 1645 3428 
Q 1925 3584 2291 3584 
Q 2894 3584 3203 3211 
Q 3513 2838 3513 2113 
z
" transform="scale(0.015625)"/>
        <path id="DejaVuSans-66" d="M 2375 4863 
L 2375 4384 
L 1825 4384 
Q 1516 4384 1395 4259 
Q 1275 4134 1275 3809 
L 1275 3500 
L 2222 3500 
L 2222 3053 
L 1275 3053 
L 1275 0 
L 697 0 
L 697 3053 
L 147 3053 
L 147 3500 
L 697 3500 
L 697 3744 
Q 697 4328 969 4595 
Q 1241 4863 1831 4863 
L 2375 4863 
z
" transform="scale(0.015625)"/>
       </defs>
       <use xlink:href="#DejaVuSans-57"/>
       <use xlink:href="#DejaVuSans-69" x="96.626953"/>
       <use xlink:href="#DejaVuSans-6e" x="124.410156"/>
       <use xlink:href="#DejaVuSans-2d" x="187.789062"/>
       <use xlink:href="#DejaVuSans-53" x="223.873047"/>
       <use xlink:href="#DejaVuSans-74" x="287.349609"/>
       <use xlink:href="#DejaVuSans-61" x="326.558594"/>
       <use xlink:href="#DejaVuSans-79" x="387.837891"/>
       <use xlink:href="#DejaVuSans-2d" x="445.267578"/>
       <use xlink:href="#DejaVuSans-4c" x="481.351562"/>
       <use xlink:href="#DejaVuSans-6f" x="535.314453"/>
       <use xlink:href="#DejaVuSans-73" x="596.496094"/>
       <use xlink:href="#DejaVuSans-65" x="648.595703"/>
       <use xlink:href="#DejaVuSans-2d" x="710.119141"/>
       <use xlink:href="#DejaVuSans-53" x="746.203125"/>
       <use xlink:href="#DejaVuSans-68" x="809.679688"/>
       <use xlink:href="#DejaVuSans-69" x="873.058594"/>
       <use xlink:href="#DejaVuSans-66" x="900.841797"/>
       <use xlink:href="#DejaVuSans-74" x="934.296875"/>
      </g>
     </g>
    </g>
    <g id="xtick_4">
     <g id="line2d_46">
      <g>
       <use xlink:href="#m175ff5ba17" x="193.545" y="279" style="stroke: #000000; stroke-width: 0.8"/>
      </g>
     </g>
     <g id="text_4">
      <!-- RW -->
      <g transform="translate(172.596962 313.191791) rotate(-45) scale(0.16 -0.16)">
       <use xlink:href="#DejaVuSans-52"/>
       <use xlink:href="#DejaVuSans-57" x="65.482422"/>
      </g>
     </g>
    </g>
    <g id="xtick_5">
     <g id="line2d_47">
      <g>
       <use xlink:href="#m175ff5ba17" x="231.102692" y="279" style="stroke: #000000; stroke-width: 0.8"/>
      </g>
     </g>
     <g id="text_5">
      <!-- Choice Kernel -->
      <g transform="translate(151.293318 372.053128) rotate(-45) scale(0.16 -0.16)">
       <defs>
        <path id="DejaVuSans-43" d="M 4122 4306 
L 4122 3641 
Q 3803 3938 3442 4084 
Q 3081 4231 2675 4231 
Q 1875 4231 1450 3742 
Q 1025 3253 1025 2328 
Q 1025 1406 1450 917 
Q 1875 428 2675 428 
Q 3081 428 3442 575 
Q 3803 722 4122 1019 
L 4122 359 
Q 3791 134 3420 21 
Q 3050 -91 2638 -91 
Q 1578 -91 968 557 
Q 359 1206 359 2328 
Q 359 3453 968 4101 
Q 1578 4750 2638 4750 
Q 3056 4750 3426 4639 
Q 3797 4528 4122 4306 
z
" transform="scale(0.015625)"/>
        <path id="DejaVuSans-63" d="M 3122 3366 
L 3122 2828 
Q 2878 2963 2633 3030 
Q 2388 3097 2138 3097 
Q 1578 3097 1268 2742 
Q 959 2388 959 1747 
Q 959 1106 1268 751 
Q 1578 397 2138 397 
Q 2388 397 2633 464 
Q 2878 531 3122 666 
L 3122 134 
Q 2881 22 2623 -34 
Q 2366 -91 2075 -91 
Q 1284 -91 818 406 
Q 353 903 353 1747 
Q 353 2603 823 3093 
Q 1294 3584 2113 3584 
Q 2378 3584 2631 3529 
Q 2884 3475 3122 3366 
z
" transform="scale(0.015625)"/>
        <path id="DejaVuSans-20" transform="scale(0.015625)"/>
        <path id="DejaVuSans-4b" d="M 628 4666 
L 1259 4666 
L 1259 2694 
L 3353 4666 
L 4166 4666 
L 1850 2491 
L 4331 0 
L 3500 0 
L 1259 2247 
L 1259 0 
L 628 0 
L 628 4666 
z
" transform="scale(0.015625)"/>
        <path id="DejaVuSans-72" d="M 2631 2963 
Q 2534 3019 2420 3045 
Q 2306 3072 2169 3072 
Q 1681 3072 1420 2755 
Q 1159 2438 1159 1844 
L 1159 0 
L 581 0 
L 581 3500 
L 1159 3500 
L 1159 2956 
Q 1341 3275 1631 3429 
Q 1922 3584 2338 3584 
Q 2397 3584 2469 3576 
Q 2541 3569 2628 3553 
L 2631 2963 
z
" transform="scale(0.015625)"/>
        <path id="DejaVuSans-6c" d="M 603 4863 
L 1178 4863 
L 1178 0 
L 603 0 
L 603 4863 
z
" transform="scale(0.015625)"/>
       </defs>
       <use xlink:href="#DejaVuSans-43"/>
       <use xlink:href="#DejaVuSans-68" x="69.824219"/>
       <use xlink:href="#DejaVuSans-6f" x="133.203125"/>
       <use xlink:href="#DejaVuSans-69" x="194.384766"/>
       <use xlink:href="#DejaVuSans-63" x="222.167969"/>
       <use xlink:href="#DejaVuSans-65" x="277.148438"/>
       <use xlink:href="#DejaVuSans-20" x="338.671875"/>
       <use xlink:href="#DejaVuSans-4b" x="370.458984"/>
       <use xlink:href="#DejaVuSans-65" x="431.035156"/>
       <use xlink:href="#DejaVuSans-72" x="492.558594"/>
       <use xlink:href="#DejaVuSans-6e" x="531.921875"/>
       <use xlink:href="#DejaVuSans-65" x="595.300781"/>
       <use xlink:href="#DejaVuSans-6c" x="656.824219"/>
      </g>
     </g>
    </g>
    <g id="xtick_6">
     <g id="line2d_48">
      <g>
       <use xlink:href="#m175ff5ba17" x="268.660385" y="279" style="stroke: #000000; stroke-width: 0.8"/>
      </g>
     </g>
     <g id="text_6">
      <!-- RW + Choice Kernel -->
      <g transform="translate(153.584059 407.320078) rotate(-45) scale(0.16 -0.16)">
       <defs>
        <path id="DejaVuSans-2b" d="M 2944 4013 
L 2944 2272 
L 4684 2272 
L 4684 1741 
L 2944 1741 
L 2944 0 
L 2419 0 
L 2419 1741 
L 678 1741 
L 678 2272 
L 2419 2272 
L 2419 4013 
L 2944 4013 
z
" transform="scale(0.015625)"/>
       </defs>
       <use xlink:href="#DejaVuSans-52"/>
       <use xlink:href="#DejaVuSans-57" x="65.482422"/>
       <use xlink:href="#DejaVuSans-20" x="164.359375"/>
       <use xlink:href="#DejaVuSans-2b" x="196.146484"/>
       <use xlink:href="#DejaVuSans-20" x="279.935547"/>
       <use xlink:href="#DejaVuSans-43" x="311.722656"/>
       <use xlink:href="#DejaVuSans-68" x="381.546875"/>
       <use xlink:href="#DejaVuSans-6f" x="444.925781"/>
       <use xlink:href="#DejaVuSans-69" x="506.107422"/>
       <use xlink:href="#DejaVuSans-63" x="533.890625"/>
       <use xlink:href="#DejaVuSans-65" x="588.871094"/>
       <use xlink:href="#DejaVuSans-20" x="650.394531"/>
       <use xlink:href="#DejaVuSans-4b" x="682.181641"/>
       <use xlink:href="#DejaVuSans-65" x="742.757812"/>
       <use xlink:href="#DejaVuSans-72" x="804.28125"/>
       <use xlink:href="#DejaVuSans-6e" x="843.644531"/>
       <use xlink:href="#DejaVuSans-65" x="907.023438"/>
       <use xlink:href="#DejaVuSans-6c" x="968.546875"/>
      </g>
     </g>
    </g>
    <g id="xtick_7">
     <g id="line2d_49">
      <g>
       <use xlink:href="#m175ff5ba17" x="306.218077" y="279" style="stroke: #000000; stroke-width: 0.8"/>
      </g>
     </g>
     <g id="text_7">
      <!-- RW + Performance Delta -->
      <g transform="translate(163.129716 435.332113) rotate(-45) scale(0.16 -0.16)">
       <defs>
        <path id="DejaVuSans-50" d="M 1259 4147 
L 1259 2394 
L 2053 2394 
Q 2494 2394 2734 2622 
Q 2975 2850 2975 3272 
Q 2975 3691 2734 3919 
Q 2494 4147 2053 4147 
L 1259 4147 
z
M 628 4666 
L 2053 4666 
Q 2838 4666 3239 4311 
Q 3641 3956 3641 3272 
Q 3641 2581 3239 2228 
Q 2838 1875 2053 1875 
L 1259 1875 
L 1259 0 
L 628 0 
L 628 4666 
z
" transform="scale(0.015625)"/>
        <path id="DejaVuSans-44" d="M 1259 4147 
L 1259 519 
L 2022 519 
Q 2988 519 3436 956 
Q 3884 1394 3884 2338 
Q 3884 3275 3436 3711 
Q 2988 4147 2022 4147 
L 1259 4147 
z
M 628 4666 
L 1925 4666 
Q 3281 4666 3915 4102 
Q 4550 3538 4550 2338 
Q 4550 1131 3912 565 
Q 3275 0 1925 0 
L 628 0 
L 628 4666 
z
" transform="scale(0.015625)"/>
       </defs>
       <use xlink:href="#DejaVuSans-52"/>
       <use xlink:href="#DejaVuSans-57" x="65.482422"/>
       <use xlink:href="#DejaVuSans-20" x="164.359375"/>
       <use xlink:href="#DejaVuSans-2b" x="196.146484"/>
       <use xlink:href="#DejaVuSans-20" x="279.935547"/>
       <use xlink:href="#DejaVuSans-50" x="311.722656"/>
       <use xlink:href="#DejaVuSans-65" x="368.400391"/>
       <use xlink:href="#DejaVuSans-72" x="429.923828"/>
       <use xlink:href="#DejaVuSans-66" x="471.037109"/>
       <use xlink:href="#DejaVuSans-6f" x="506.242188"/>
       <use xlink:href="#DejaVuSans-72" x="567.423828"/>
       <use xlink:href="#DejaVuSans-6d" x="606.787109"/>
       <use xlink:href="#DejaVuSans-61" x="704.199219"/>
       <use xlink:href="#DejaVuSans-6e" x="765.478516"/>
       <use xlink:href="#DejaVuSans-63" x="828.857422"/>
       <use xlink:href="#DejaVuSans-65" x="883.837891"/>
       <use xlink:href="#DejaVuSans-20" x="945.361328"/>
       <use xlink:href="#DejaVuSans-44" x="977.148438"/>
       <use xlink:href="#DejaVuSans-65" x="1054.150391"/>
       <use xlink:href="#DejaVuSans-6c" x="1115.673828"/>
       <use xlink:href="#DejaVuSans-74" x="1143.457031"/>
       <use xlink:href="#DejaVuSans-61" x="1182.666016"/>
      </g>
     </g>
    </g>
   </g>
   <g id="matplotlib.axis_2">
    <g id="ytick_1">
     <g id="line2d_50">
      <defs>
       <path id="mfad403056b" d="M 0 0 
L -3.5 0 
" style="stroke: #000000; stroke-width: 0.8"/>
      </defs>
      <g>
       <use xlink:href="#mfad403056b" x="54.045" y="225.242248" style="stroke: #000000; stroke-width: 0.8"/>
      </g>
     </g>
     <g id="text_8">
      <!-- 0 -->
      <g transform="translate(36.865 231.320998) scale(0.16 -0.16)">
       <defs>
        <path id="DejaVuSans-30" d="M 2034 4250 
Q 1547 4250 1301 3770 
Q 1056 3291 1056 2328 
Q 1056 1369 1301 889 
Q 1547 409 2034 409 
Q 2525 409 2770 889 
Q 3016 1369 3016 2328 
Q 3016 3291 2770 3770 
Q 2525 4250 2034 4250 
z
M 2034 4750 
Q 2819 4750 3233 4129 
Q 3647 3509 3647 2328 
Q 3647 1150 3233 529 
Q 2819 -91 2034 -91 
Q 1250 -91 836 529 
Q 422 1150 422 2328 
Q 422 3509 836 4129 
Q 1250 4750 2034 4750 
z
" transform="scale(0.015625)"/>
       </defs>
       <use xlink:href="#DejaVuSans-30"/>
      </g>
     </g>
    </g>
    <g id="ytick_2">
     <g id="line2d_51">
      <g>
       <use xlink:href="#mfad403056b" x="54.045" y="161.435795" style="stroke: #000000; stroke-width: 0.8"/>
      </g>
     </g>
     <g id="text_9">
      <!-- 20 -->
      <g transform="translate(26.685 167.514545) scale(0.16 -0.16)">
       <defs>
        <path id="DejaVuSans-32" d="M 1228 531 
L 3431 531 
L 3431 0 
L 469 0 
L 469 531 
Q 828 903 1448 1529 
Q 2069 2156 2228 2338 
Q 2531 2678 2651 2914 
Q 2772 3150 2772 3378 
Q 2772 3750 2511 3984 
Q 2250 4219 1831 4219 
Q 1534 4219 1204 4116 
Q 875 4013 500 3803 
L 500 4441 
Q 881 4594 1212 4672 
Q 1544 4750 1819 4750 
Q 2544 4750 2975 4387 
Q 3406 4025 3406 3419 
Q 3406 3131 3298 2873 
Q 3191 2616 2906 2266 
Q 2828 2175 2409 1742 
Q 1991 1309 1228 531 
z
" transform="scale(0.015625)"/>
       </defs>
       <use xlink:href="#DejaVuSans-32"/>
       <use xlink:href="#DejaVuSans-30" x="63.623047"/>
      </g>
     </g>
    </g>
    <g id="ytick_3">
     <g id="line2d_52">
      <g>
       <use xlink:href="#mfad403056b" x="54.045" y="97.629342" style="stroke: #000000; stroke-width: 0.8"/>
      </g>
     </g>
     <g id="text_10">
      <!-- 40 -->
      <g transform="translate(26.685 103.708092) scale(0.16 -0.16)">
       <defs>
        <path id="DejaVuSans-34" d="M 2419 4116 
L 825 1625 
L 2419 1625 
L 2419 4116 
z
M 2253 4666 
L 3047 4666 
L 3047 1625 
L 3713 1625 
L 3713 1100 
L 3047 1100 
L 3047 0 
L 2419 0 
L 2419 1100 
L 313 1100 
L 313 1709 
L 2253 4666 
z
" transform="scale(0.015625)"/>
       </defs>
       <use xlink:href="#DejaVuSans-34"/>
       <use xlink:href="#DejaVuSans-30" x="63.623047"/>
      </g>
     </g>
    </g>
    <g id="ytick_4">
     <g id="line2d_53">
      <g>
       <use xlink:href="#mfad403056b" x="54.045" y="33.822889" style="stroke: #000000; stroke-width: 0.8"/>
      </g>
     </g>
     <g id="text_11">
      <!-- 60 -->
      <g transform="translate(26.685 39.901639) scale(0.16 -0.16)">
       <defs>
        <path id="DejaVuSans-36" d="M 2113 2584 
Q 1688 2584 1439 2293 
Q 1191 2003 1191 1497 
Q 1191 994 1439 701 
Q 1688 409 2113 409 
Q 2538 409 2786 701 
Q 3034 994 3034 1497 
Q 3034 2003 2786 2293 
Q 2538 2584 2113 2584 
z
M 3366 4563 
L 3366 3988 
Q 3128 4100 2886 4159 
Q 2644 4219 2406 4219 
Q 1781 4219 1451 3797 
Q 1122 3375 1075 2522 
Q 1259 2794 1537 2939 
Q 1816 3084 2150 3084 
Q 2853 3084 3261 2657 
Q 3669 2231 3669 1497 
Q 3669 778 3244 343 
Q 2819 -91 2113 -91 
Q 1303 -91 875 529 
Q 447 1150 447 2328 
Q 447 3434 972 4092 
Q 1497 4750 2381 4750 
Q 2619 4750 2861 4703 
Q 3103 4656 3366 4563 
z
" transform="scale(0.015625)"/>
       </defs>
       <use xlink:href="#DejaVuSans-36"/>
       <use xlink:href="#DejaVuSans-30" x="63.623047"/>
      </g>
     </g>
    </g>
    <g id="text_12">
     <!-- Cross-validated NLL -->
     <g transform="translate(19.3575 222.345) rotate(-90) scale(0.16 -0.16)">
      <defs>
       <path id="DejaVuSans-76" d="M 191 3500 
L 800 3500 
L 1894 563 
L 2988 3500 
L 3597 3500 
L 2284 0 
L 1503 0 
L 191 3500 
z
" transform="scale(0.015625)"/>
       <path id="DejaVuSans-4e" d="M 628 4666 
L 1478 4666 
L 3547 763 
L 3547 4666 
L 4159 4666 
L 4159 0 
L 3309 0 
L 1241 3903 
L 1241 0 
L 628 0 
L 628 4666 
z
" transform="scale(0.015625)"/>
      </defs>
      <use xlink:href="#DejaVuSans-43"/>
      <use xlink:href="#DejaVuSans-72" x="69.824219"/>
      <use xlink:href="#DejaVuSans-6f" x="108.6875"/>
      <use xlink:href="#DejaVuSans-73" x="169.869141"/>
      <use xlink:href="#DejaVuSans-73" x="221.96875"/>
      <use xlink:href="#DejaVuSans-2d" x="274.068359"/>
      <use xlink:href="#DejaVuSans-76" x="307.527344"/>
      <use xlink:href="#DejaVuSans-61" x="366.707031"/>
      <use xlink:href="#DejaVuSans-6c" x="427.986328"/>
      <use xlink:href="#DejaVuSans-69" x="455.769531"/>
      <use xlink:href="#DejaVuSans-64" x="483.552734"/>
      <use xlink:href="#DejaVuSans-61" x="547.029297"/>
      <use xlink:href="#DejaVuSans-74" x="608.308594"/>
      <use xlink:href="#DejaVuSans-65" x="647.517578"/>
      <use xlink:href="#DejaVuSans-64" x="709.041016"/>
      <use xlink:href="#DejaVuSans-20" x="772.517578"/>
      <use xlink:href="#DejaVuSans-4e" x="804.304688"/>
      <use xlink:href="#DejaVuSans-4c" x="879.109375"/>
      <use xlink:href="#DejaVuSans-4c" x="934.822266"/>
     </g>
    </g>
   </g>
   <g id="line2d_54">
    <path d="M 193.545 160.259401 
L 155.987308 160.259401 
" clip-path="url(#p24bf55edda)" style="fill: none; stroke: #000000; stroke-width: 1.5; stroke-linecap: square"/>
   </g>
   <g id="line2d_55">
    <path d="M 193.545 162.858715 
L 193.545 160.259401 
" clip-path="url(#p24bf55edda)" style="fill: none; stroke: #000000; stroke-width: 1.5; stroke-linecap: square"/>
   </g>
   <g id="line2d_56">
    <path d="M 155.987308 162.858715 
L 155.987308 160.259401 
" clip-path="url(#p24bf55edda)" style="fill: none; stroke: #000000; stroke-width: 1.5; stroke-linecap: square"/>
   </g>
   <g id="line2d_57">
    <path d="M 193.545 157.305636 
L 306.218077 157.305636 
" clip-path="url(#p24bf55edda)" style="fill: none; stroke: #000000; stroke-width: 1.5; stroke-linecap: square"/>
   </g>
   <g id="line2d_58">
    <path d="M 193.545 159.683417 
L 193.545 157.305636 
" clip-path="url(#p24bf55edda)" style="fill: none; stroke: #000000; stroke-width: 1.5; stroke-linecap: square"/>
   </g>
   <g id="line2d_59">
    <path d="M 306.218077 159.683417 
L 306.218077 157.305636 
" clip-path="url(#p24bf55edda)" style="fill: none; stroke: #000000; stroke-width: 1.5; stroke-linecap: square"/>
   </g>
   <g id="patch_10">
    <path d="M 54.045 279 
L 54.045 7.2 
" style="fill: none; stroke: #000000; stroke-width: 0.8; stroke-linejoin: miter; stroke-linecap: square"/>
   </g>
   <g id="patch_11">
    <path d="M 54.045 279 
L 333.045 279 
" style="fill: none; stroke: #000000; stroke-width: 0.8; stroke-linejoin: miter; stroke-linecap: square"/>
   </g>
   <g id="text_13">
    <!-- ns -->
    <g transform="translate(165.528654 156.931901) scale(0.16 -0.16)">
     <use xlink:href="#DejaVuSans-6e"/>
     <use xlink:href="#DejaVuSans-73" x="63.378906"/>
    </g>
   </g>
   <g id="text_14">
    <!-- *** -->
    <g transform="translate(237.881538 153.978136) scale(0.16 -0.16)">
     <defs>
      <path id="DejaVuSans-2a" d="M 3009 3897 
L 1888 3291 
L 3009 2681 
L 2828 2375 
L 1778 3009 
L 1778 1831 
L 1422 1831 
L 1422 3009 
L 372 2375 
L 191 2681 
L 1313 3291 
L 191 3897 
L 372 4206 
L 1422 3572 
L 1422 4750 
L 1778 4750 
L 1778 3572 
L 2828 4206 
L 3009 3897 
z
" transform="scale(0.015625)"/>
     </defs>
     <use xlink:href="#DejaVuSans-2a"/>
     <use xlink:href="#DejaVuSans-2a" x="50"/>
     <use xlink:href="#DejaVuSans-2a" x="100"/>
    </g>
   </g>
  </g>
 </g>
 <defs>
  <clipPath id="p24bf55edda">
   <rect x="54.045" y="7.2" width="279" height="271.8"/>
  </clipPath>
 </defs>
</svg>
