<?xml version="1.0" encoding="utf-8" standalone="no"?>
<!DOCTYPE svg PUBLIC "-//W3C//DTD SVG 1.1//EN"
  "http://www.w3.org/Graphics/SVG/1.1/DTD/svg11.dtd">
<svg xmlns:xlink="http://www.w3.org/1999/xlink" width="250.886875pt" height="229.128125pt" viewBox="0 0 250.886875 229.128125" xmlns="http://www.w3.org/2000/svg" version="1.1">
 <metadata>
  <rdf:RDF xmlns:dc="http://purl.org/dc/elements/1.1/" xmlns:cc="http://creativecommons.org/ns#" xmlns:rdf="http://www.w3.org/1999/02/22-rdf-syntax-ns#">
   <cc:Work>
    <dc:type rdf:resource="http://purl.org/dc/dcmitype/StillImage"/>
    <dc:date>2024-07-31T12:54:58.734935</dc:date>
    <dc:format>image/svg+xml</dc:format>
    <dc:creator>
     <cc:Agent>
      <dc:title>Matplotlib v3.9.1, https://matplotlib.org/</dc:title>
     </cc:Agent>
    </dc:creator>
   </cc:Work>
  </rdf:RDF>
 </metadata>
 <defs>
  <style type="text/css">*{stroke-linejoin: round; stroke-linecap: butt}</style>
 </defs>
 <g id="figure_1">
  <g id="patch_1">
   <path d="M 0 229.128125 
L 250.886875 229.128125 
L 250.886875 0 
L 0 0 
z
" style="fill: #ffffff"/>
  </g>
  <g id="axes_1">
   <g id="patch_2">
    <path d="M 67.379375 170.28 
L 234.779375 170.28 
L 234.779375 7.2 
L 67.379375 7.2 
z
" style="fill: #ffffff"/>
   </g>
   <g id="PathCollection_1">
    <defs>
     <path id="mee9aea51c9" d="M 0 3.162278 
C 0.838646 3.162278 1.643056 2.82908 2.236068 2.236068 
C 2.82908 1.643056 3.162278 0.838646 3.162278 0 
C 3.162278 -0.838646 2.82908 -1.643056 2.236068 -2.236068 
C 1.643056 -2.82908 0.838646 -3.162278 0 -3.162278 
C -0.838646 -3.162278 -1.643056 -2.82908 -2.236068 -2.236068 
C -2.82908 -1.643056 -3.162278 -0.838646 -3.162278 0 
C -3.162278 0.838646 -2.82908 1.643056 -2.236068 2.236068 
C -1.643056 2.82908 -0.838646 3.162278 0 3.162278 
z
" style="stroke: #000000; stroke-width: 0.2"/>
    </defs>
    <g clip-path="url(#p5cf0837f8f)">
     <use xlink:href="#mee9aea51c9" x="100.333697" y="138.825995" style="fill: #eeeeee; stroke: #000000; stroke-width: 0.2"/>
     <use xlink:href="#mee9aea51c9" x="159.187439" y="154.853514" style="fill: #eeeeee; stroke: #000000; stroke-width: 0.2"/>
     <use xlink:href="#mee9aea51c9" x="142.297466" y="150.846634" style="fill: #eeeeee; stroke: #000000; stroke-width: 0.2"/>
     <use xlink:href="#mee9aea51c9" x="89.337306" y="50.674644" style="fill: #eeeeee; stroke: #000000; stroke-width: 0.2"/>
     <use xlink:href="#mee9aea51c9" x="79.532511" y="126.805356" style="fill: #eeeeee; stroke: #000000; stroke-width: 0.2"/>
     <use xlink:href="#mee9aea51c9" x="101.442428" y="142.832875" style="fill: #eeeeee; stroke: #000000; stroke-width: 0.2"/>
     <use xlink:href="#mee9aea51c9" x="119.24556" y="86.73656" style="fill: #eeeeee; stroke: #000000; stroke-width: 0.2"/>
     <use xlink:href="#mee9aea51c9" x="71.506756" y="146.839754" style="fill: #eeeeee; stroke: #000000; stroke-width: 0.2"/>
     <use xlink:href="#mee9aea51c9" x="107.535252" y="154.853514" style="fill: #eeeeee; stroke: #000000; stroke-width: 0.2"/>
     <use xlink:href="#mee9aea51c9" x="121.998149" y="62.695283" style="fill: #eeeeee; stroke: #000000; stroke-width: 0.2"/>
     <use xlink:href="#mee9aea51c9" x="109.703931" y="130.812236" style="fill: #eeeeee; stroke: #000000; stroke-width: 0.2"/>
     <use xlink:href="#mee9aea51c9" x="80.963182" y="38.654005" style="fill: #eeeeee; stroke: #000000; stroke-width: 0.2"/>
     <use xlink:href="#mee9aea51c9" x="185.080294" y="134.819115" style="fill: #eeeeee; stroke: #000000; stroke-width: 0.2"/>
     <use xlink:href="#mee9aea51c9" x="77.06651" y="110.777838" style="fill: #eeeeee; stroke: #000000; stroke-width: 0.2"/>
     <use xlink:href="#mee9aea51c9" x="74.573054" y="82.729681" style="fill: #eeeeee; stroke: #000000; stroke-width: 0.2"/>
     <use xlink:href="#mee9aea51c9" x="135.118087" y="62.695283" style="fill: #eeeeee; stroke: #000000; stroke-width: 0.2"/>
     <use xlink:href="#mee9aea51c9" x="136.076816" y="82.729681" style="fill: #eeeeee; stroke: #000000; stroke-width: 0.2"/>
     <use xlink:href="#mee9aea51c9" x="82.670955" y="150.846634" style="fill: #eeeeee; stroke: #000000; stroke-width: 0.2"/>
     <use xlink:href="#mee9aea51c9" x="100.854545" y="130.812236" style="fill: #eeeeee; stroke: #000000; stroke-width: 0.2"/>
     <use xlink:href="#mee9aea51c9" x="93.595492" y="122.798477" style="fill: #eeeeee; stroke: #000000; stroke-width: 0.2"/>
     <use xlink:href="#mee9aea51c9" x="127.705971" y="142.832875" style="fill: #eeeeee; stroke: #000000; stroke-width: 0.2"/>
     <use xlink:href="#mee9aea51c9" x="91.841913" y="130.812236" style="fill: #eeeeee; stroke: #000000; stroke-width: 0.2"/>
     <use xlink:href="#mee9aea51c9" x="80.128553" y="138.825995" style="fill: #eeeeee; stroke: #000000; stroke-width: 0.2"/>
     <use xlink:href="#mee9aea51c9" x="83.611015" y="154.853514" style="fill: #eeeeee; stroke: #000000; stroke-width: 0.2"/>
     <use xlink:href="#mee9aea51c9" x="176.407882" y="162.867273" style="fill: #eeeeee; stroke: #000000; stroke-width: 0.2"/>
     <use xlink:href="#mee9aea51c9" x="73.704687" y="154.853514" style="fill: #eeeeee; stroke: #000000; stroke-width: 0.2"/>
     <use xlink:href="#mee9aea51c9" x="181.923424" y="118.791597" style="fill: #eeeeee; stroke: #000000; stroke-width: 0.2"/>
     <use xlink:href="#mee9aea51c9" x="77.260705" y="110.777838" style="fill: #eeeeee; stroke: #000000; stroke-width: 0.2"/>
     <use xlink:href="#mee9aea51c9" x="126.920052" y="150.846634" style="fill: #eeeeee; stroke: #000000; stroke-width: 0.2"/>
     <use xlink:href="#mee9aea51c9" x="147.275239" y="106.770958" style="fill: #eeeeee; stroke: #000000; stroke-width: 0.2"/>
     <use xlink:href="#mee9aea51c9" x="100.210585" y="146.839754" style="fill: #eeeeee; stroke: #000000; stroke-width: 0.2"/>
     <use xlink:href="#mee9aea51c9" x="116.894044" y="134.819115" style="fill: #eeeeee; stroke: #000000; stroke-width: 0.2"/>
     <use xlink:href="#mee9aea51c9" x="82.846737" y="110.777838" style="fill: #eeeeee; stroke: #000000; stroke-width: 0.2"/>
     <use xlink:href="#mee9aea51c9" x="195.562247" y="98.757199" style="fill: #eeeeee; stroke: #000000; stroke-width: 0.2"/>
     <use xlink:href="#mee9aea51c9" x="109.126372" y="118.791597" style="fill: #eeeeee; stroke: #000000; stroke-width: 0.2"/>
     <use xlink:href="#mee9aea51c9" x="72.450177" y="146.839754" style="fill: #eeeeee; stroke: #000000; stroke-width: 0.2"/>
     <use xlink:href="#mee9aea51c9" x="76.574811" y="110.777838" style="fill: #eeeeee; stroke: #000000; stroke-width: 0.2"/>
     <use xlink:href="#mee9aea51c9" x="172.625134" y="102.764079" style="fill: #eeeeee; stroke: #000000; stroke-width: 0.2"/>
     <use xlink:href="#mee9aea51c9" x="117.753748" y="118.791597" style="fill: #eeeeee; stroke: #000000; stroke-width: 0.2"/>
     <use xlink:href="#mee9aea51c9" x="71.792063" y="154.853514" style="fill: #eeeeee; stroke: #000000; stroke-width: 0.2"/>
     <use xlink:href="#mee9aea51c9" x="86.332292" y="150.846634" style="fill: #eeeeee; stroke: #000000; stroke-width: 0.2"/>
     <use xlink:href="#mee9aea51c9" x="72.889944" y="126.805356" style="fill: #eeeeee; stroke: #000000; stroke-width: 0.2"/>
     <use xlink:href="#mee9aea51c9" x="73.595447" y="130.812236" style="fill: #eeeeee; stroke: #000000; stroke-width: 0.2"/>
     <use xlink:href="#mee9aea51c9" x="123.903436" y="98.757199" style="fill: #eeeeee; stroke: #000000; stroke-width: 0.2"/>
     <use xlink:href="#mee9aea51c9" x="79.083362" y="102.764079" style="fill: #eeeeee; stroke: #000000; stroke-width: 0.2"/>
     <use xlink:href="#mee9aea51c9" x="137.086819" y="142.832875" style="fill: #eeeeee; stroke: #000000; stroke-width: 0.2"/>
     <use xlink:href="#mee9aea51c9" x="72.233596" y="150.846634" style="fill: #eeeeee; stroke: #000000; stroke-width: 0.2"/>
     <use xlink:href="#mee9aea51c9" x="123.408305" y="134.819115" style="fill: #eeeeee; stroke: #000000; stroke-width: 0.2"/>
     <use xlink:href="#mee9aea51c9" x="71.462302" y="86.73656" style="fill: #eeeeee; stroke: #000000; stroke-width: 0.2"/>
     <use xlink:href="#mee9aea51c9" x="81.693915" y="146.839754" style="fill: #eeeeee; stroke: #000000; stroke-width: 0.2"/>
     <use xlink:href="#mee9aea51c9" x="71.762313" y="114.784717" style="fill: #eeeeee; stroke: #000000; stroke-width: 0.2"/>
     <use xlink:href="#mee9aea51c9" x="207.592748" y="126.805356" style="fill: #eeeeee; stroke: #000000; stroke-width: 0.2"/>
     <use xlink:href="#mee9aea51c9" x="78.38728" y="154.853514" style="fill: #eeeeee; stroke: #000000; stroke-width: 0.2"/>
     <use xlink:href="#mee9aea51c9" x="96.937421" y="110.777838" style="fill: #eeeeee; stroke: #000000; stroke-width: 0.2"/>
     <use xlink:href="#mee9aea51c9" x="72.260221" y="130.812236" style="fill: #eeeeee; stroke: #000000; stroke-width: 0.2"/>
     <use xlink:href="#mee9aea51c9" x="140.018395" y="130.812236" style="fill: #eeeeee; stroke: #000000; stroke-width: 0.2"/>
     <use xlink:href="#mee9aea51c9" x="85.135051" y="146.839754" style="fill: #eeeeee; stroke: #000000; stroke-width: 0.2"/>
     <use xlink:href="#mee9aea51c9" x="149.25299" y="86.73656" style="fill: #eeeeee; stroke: #000000; stroke-width: 0.2"/>
     <use xlink:href="#mee9aea51c9" x="92.248615" y="82.729681" style="fill: #eeeeee; stroke: #000000; stroke-width: 0.2"/>
     <use xlink:href="#mee9aea51c9" x="199.738144" y="98.757199" style="fill: #eeeeee; stroke: #000000; stroke-width: 0.2"/>
     <use xlink:href="#mee9aea51c9" x="122.285922" y="158.860393" style="fill: #eeeeee; stroke: #000000; stroke-width: 0.2"/>
     <use xlink:href="#mee9aea51c9" x="71.743831" y="102.764079" style="fill: #eeeeee; stroke: #000000; stroke-width: 0.2"/>
     <use xlink:href="#mee9aea51c9" x="75.125806" y="130.812236" style="fill: #eeeeee; stroke: #000000; stroke-width: 0.2"/>
     <use xlink:href="#mee9aea51c9" x="79.724012" y="146.839754" style="fill: #eeeeee; stroke: #000000; stroke-width: 0.2"/>
     <use xlink:href="#mee9aea51c9" x="132.210438" y="158.860393" style="fill: #eeeeee; stroke: #000000; stroke-width: 0.2"/>
     <use xlink:href="#mee9aea51c9" x="170.637983" y="150.846634" style="fill: #eeeeee; stroke: #000000; stroke-width: 0.2"/>
     <use xlink:href="#mee9aea51c9" x="154.397801" y="138.825995" style="fill: #eeeeee; stroke: #000000; stroke-width: 0.2"/>
     <use xlink:href="#mee9aea51c9" x="180.255709" y="150.846634" style="fill: #eeeeee; stroke: #000000; stroke-width: 0.2"/>
     <use xlink:href="#mee9aea51c9" x="141.383203" y="162.867273" style="fill: #eeeeee; stroke: #000000; stroke-width: 0.2"/>
     <use xlink:href="#mee9aea51c9" x="72.038978" y="98.757199" style="fill: #eeeeee; stroke: #000000; stroke-width: 0.2"/>
     <use xlink:href="#mee9aea51c9" x="73.261049" y="158.860393" style="fill: #eeeeee; stroke: #000000; stroke-width: 0.2"/>
     <use xlink:href="#mee9aea51c9" x="184.778017" y="114.784717" style="fill: #eeeeee; stroke: #000000; stroke-width: 0.2"/>
     <use xlink:href="#mee9aea51c9" x="111.405992" y="70.709042" style="fill: #eeeeee; stroke: #000000; stroke-width: 0.2"/>
     <use xlink:href="#mee9aea51c9" x="72.369619" y="70.709042" style="fill: #eeeeee; stroke: #000000; stroke-width: 0.2"/>
     <use xlink:href="#mee9aea51c9" x="78.957044" y="102.764079" style="fill: #eeeeee; stroke: #000000; stroke-width: 0.2"/>
     <use xlink:href="#mee9aea51c9" x="122.061051" y="110.777838" style="fill: #eeeeee; stroke: #000000; stroke-width: 0.2"/>
     <use xlink:href="#mee9aea51c9" x="181.747485" y="162.867273" style="fill: #eeeeee; stroke: #000000; stroke-width: 0.2"/>
     <use xlink:href="#mee9aea51c9" x="89.298488" y="146.839754" style="fill: #eeeeee; stroke: #000000; stroke-width: 0.2"/>
     <use xlink:href="#mee9aea51c9" x="109.797301" y="118.791597" style="fill: #eeeeee; stroke: #000000; stroke-width: 0.2"/>
     <use xlink:href="#mee9aea51c9" x="89.308947" y="130.812236" style="fill: #eeeeee; stroke: #000000; stroke-width: 0.2"/>
     <use xlink:href="#mee9aea51c9" x="81.992711" y="94.750319" style="fill: #eeeeee; stroke: #000000; stroke-width: 0.2"/>
     <use xlink:href="#mee9aea51c9" x="72.70672" y="122.798477" style="fill: #eeeeee; stroke: #000000; stroke-width: 0.2"/>
     <use xlink:href="#mee9aea51c9" x="144.64897" y="150.846634" style="fill: #eeeeee; stroke: #000000; stroke-width: 0.2"/>
     <use xlink:href="#mee9aea51c9" x="147.132625" y="150.846634" style="fill: #eeeeee; stroke: #000000; stroke-width: 0.2"/>
     <use xlink:href="#mee9aea51c9" x="111.400419" y="94.750319" style="fill: #eeeeee; stroke: #000000; stroke-width: 0.2"/>
     <use xlink:href="#mee9aea51c9" x="118.56575" y="130.812236" style="fill: #eeeeee; stroke: #000000; stroke-width: 0.2"/>
     <use xlink:href="#mee9aea51c9" x="115.394201" y="150.846634" style="fill: #eeeeee; stroke: #000000; stroke-width: 0.2"/>
     <use xlink:href="#mee9aea51c9" x="88.633734" y="158.860393" style="fill: #eeeeee; stroke: #000000; stroke-width: 0.2"/>
     <use xlink:href="#mee9aea51c9" x="83.034872" y="122.798477" style="fill: #eeeeee; stroke: #000000; stroke-width: 0.2"/>
     <use xlink:href="#mee9aea51c9" x="91.886012" y="110.777838" style="fill: #eeeeee; stroke: #000000; stroke-width: 0.2"/>
     <use xlink:href="#mee9aea51c9" x="83.689495" y="110.777838" style="fill: #eeeeee; stroke: #000000; stroke-width: 0.2"/>
     <use xlink:href="#mee9aea51c9" x="107.917837" y="162.867273" style="fill: #eeeeee; stroke: #000000; stroke-width: 0.2"/>
     <use xlink:href="#mee9aea51c9" x="73.427673" y="162.867273" style="fill: #eeeeee; stroke: #000000; stroke-width: 0.2"/>
     <use xlink:href="#mee9aea51c9" x="108.292348" y="94.750319" style="fill: #eeeeee; stroke: #000000; stroke-width: 0.2"/>
     <use xlink:href="#mee9aea51c9" x="141.191298" y="126.805356" style="fill: #eeeeee; stroke: #000000; stroke-width: 0.2"/>
     <use xlink:href="#mee9aea51c9" x="136.013014" y="146.839754" style="fill: #eeeeee; stroke: #000000; stroke-width: 0.2"/>
     <use xlink:href="#mee9aea51c9" x="125.42265" y="158.860393" style="fill: #eeeeee; stroke: #000000; stroke-width: 0.2"/>
     <use xlink:href="#mee9aea51c9" x="76.379459" y="158.860393" style="fill: #eeeeee; stroke: #000000; stroke-width: 0.2"/>
     <use xlink:href="#mee9aea51c9" x="71.60609" y="106.770958" style="fill: #eeeeee; stroke: #000000; stroke-width: 0.2"/>
     <use xlink:href="#mee9aea51c9" x="82.966608" y="162.867273" style="fill: #eeeeee; stroke: #000000; stroke-width: 0.2"/>
     <use xlink:href="#mee9aea51c9" x="97.392181" y="150.846634" style="fill: #eeeeee; stroke: #000000; stroke-width: 0.2"/>
     <use xlink:href="#mee9aea51c9" x="101.768898" y="14.612727" style="fill: #eeeeee; stroke: #000000; stroke-width: 0.2"/>
     <use xlink:href="#mee9aea51c9" x="116.620392" y="142.832875" style="fill: #eeeeee; stroke: #000000; stroke-width: 0.2"/>
     <use xlink:href="#mee9aea51c9" x="96.392022" y="102.764079" style="fill: #eeeeee; stroke: #000000; stroke-width: 0.2"/>
     <use xlink:href="#mee9aea51c9" x="154.501832" y="86.73656" style="fill: #eeeeee; stroke: #000000; stroke-width: 0.2"/>
     <use xlink:href="#mee9aea51c9" x="170.92255" y="126.805356" style="fill: #eeeeee; stroke: #000000; stroke-width: 0.2"/>
     <use xlink:href="#mee9aea51c9" x="92.504633" y="158.860393" style="fill: #eeeeee; stroke: #000000; stroke-width: 0.2"/>
     <use xlink:href="#mee9aea51c9" x="113.150709" y="98.757199" style="fill: #eeeeee; stroke: #000000; stroke-width: 0.2"/>
     <use xlink:href="#mee9aea51c9" x="82.265732" y="106.770958" style="fill: #eeeeee; stroke: #000000; stroke-width: 0.2"/>
     <use xlink:href="#mee9aea51c9" x="145.401879" y="138.825995" style="fill: #eeeeee; stroke: #000000; stroke-width: 0.2"/>
     <use xlink:href="#mee9aea51c9" x="80.006836" y="82.729681" style="fill: #eeeeee; stroke: #000000; stroke-width: 0.2"/>
     <use xlink:href="#mee9aea51c9" x="122.679133" y="162.867273" style="fill: #eeeeee; stroke: #000000; stroke-width: 0.2"/>
     <use xlink:href="#mee9aea51c9" x="116.993902" y="118.791597" style="fill: #eeeeee; stroke: #000000; stroke-width: 0.2"/>
     <use xlink:href="#mee9aea51c9" x="163.21661" y="126.805356" style="fill: #eeeeee; stroke: #000000; stroke-width: 0.2"/>
     <use xlink:href="#mee9aea51c9" x="166.763034" y="86.73656" style="fill: #eeeeee; stroke: #000000; stroke-width: 0.2"/>
     <use xlink:href="#mee9aea51c9" x="103.534373" y="158.860393" style="fill: #eeeeee; stroke: #000000; stroke-width: 0.2"/>
     <use xlink:href="#mee9aea51c9" x="187.497635" y="54.681523" style="fill: #eeeeee; stroke: #000000; stroke-width: 0.2"/>
     <use xlink:href="#mee9aea51c9" x="128.058353" y="102.764079" style="fill: #eeeeee; stroke: #000000; stroke-width: 0.2"/>
     <use xlink:href="#mee9aea51c9" x="105.213295" y="150.846634" style="fill: #eeeeee; stroke: #000000; stroke-width: 0.2"/>
     <use xlink:href="#mee9aea51c9" x="78.709198" y="158.860393" style="fill: #eeeeee; stroke: #000000; stroke-width: 0.2"/>
     <use xlink:href="#mee9aea51c9" x="196.056208" y="38.654005" style="fill: #eeeeee; stroke: #000000; stroke-width: 0.2"/>
     <use xlink:href="#mee9aea51c9" x="98.933088" y="154.853514" style="fill: #eeeeee; stroke: #000000; stroke-width: 0.2"/>
     <use xlink:href="#mee9aea51c9" x="163.152507" y="90.74344" style="fill: #eeeeee; stroke: #000000; stroke-width: 0.2"/>
     <use xlink:href="#mee9aea51c9" x="82.484123" y="114.784717" style="fill: #eeeeee; stroke: #000000; stroke-width: 0.2"/>
     <use xlink:href="#mee9aea51c9" x="81.22477" y="62.695283" style="fill: #eeeeee; stroke: #000000; stroke-width: 0.2"/>
     <use xlink:href="#mee9aea51c9" x="195.017304" y="58.688403" style="fill: #eeeeee; stroke: #000000; stroke-width: 0.2"/>
     <use xlink:href="#mee9aea51c9" x="80.592792" y="134.819115" style="fill: #eeeeee; stroke: #000000; stroke-width: 0.2"/>
     <use xlink:href="#mee9aea51c9" x="139.503074" y="146.839754" style="fill: #eeeeee; stroke: #000000; stroke-width: 0.2"/>
     <use xlink:href="#mee9aea51c9" x="170.169288" y="130.812236" style="fill: #eeeeee; stroke: #000000; stroke-width: 0.2"/>
     <use xlink:href="#mee9aea51c9" x="73.016935" y="122.798477" style="fill: #eeeeee; stroke: #000000; stroke-width: 0.2"/>
     <use xlink:href="#mee9aea51c9" x="93.620732" y="118.791597" style="fill: #eeeeee; stroke: #000000; stroke-width: 0.2"/>
     <use xlink:href="#mee9aea51c9" x="72.081821" y="118.791597" style="fill: #eeeeee; stroke: #000000; stroke-width: 0.2"/>
    </g>
   </g>
   <g id="matplotlib.axis_1">
    <g id="xtick_1">
     <g id="line2d_1">
      <defs>
       <path id="m5b6b09e335" d="M 0 0 
L 0 3.5 
" style="stroke: #000000; stroke-width: 0.8"/>
      </defs>
      <g>
       <use xlink:href="#m5b6b09e335" x="71.462302" y="170.28" style="stroke: #000000; stroke-width: 0.8"/>
      </g>
     </g>
     <g id="text_1">
      <!-- 0 -->
      <g transform="translate(62.554802 198.555625) scale(0.28 -0.28)">
       <defs>
        <path id="DejaVuSans-30" d="M 2034 4250 
Q 1547 4250 1301 3770 
Q 1056 3291 1056 2328 
Q 1056 1369 1301 889 
Q 1547 409 2034 409 
Q 2525 409 2770 889 
Q 3016 1369 3016 2328 
Q 3016 3291 2770 3770 
Q 2525 4250 2034 4250 
z
M 2034 4750 
Q 2819 4750 3233 4129 
Q 3647 3509 3647 2328 
Q 3647 1150 3233 529 
Q 2819 -91 2034 -91 
Q 1250 -91 836 529 
Q 422 1150 422 2328 
Q 422 3509 836 4129 
Q 1250 4750 2034 4750 
z
" transform="scale(0.015625)"/>
       </defs>
       <use xlink:href="#DejaVuSans-30"/>
      </g>
     </g>
    </g>
    <g id="xtick_2">
     <g id="line2d_2">
      <g>
       <use xlink:href="#m5b6b09e335" x="234.779375" y="170.28" style="stroke: #000000; stroke-width: 0.8"/>
      </g>
     </g>
     <g id="text_2">
      <!-- 1 -->
      <g transform="translate(225.871875 198.555625) scale(0.28 -0.28)">
       <defs>
        <path id="DejaVuSans-31" d="M 794 531 
L 1825 531 
L 1825 4091 
L 703 3866 
L 703 4441 
L 1819 4666 
L 2450 4666 
L 2450 531 
L 3481 531 
L 3481 0 
L 794 0 
L 794 531 
z
" transform="scale(0.015625)"/>
       </defs>
       <use xlink:href="#DejaVuSans-31"/>
      </g>
     </g>
    </g>
    <g id="text_3">
     <!-- RWPD Learning rate -->
     <g transform="translate(80.904375 219.016563) scale(0.14 -0.14)">
      <defs>
       <path id="DejaVuSans-52" d="M 2841 2188 
Q 3044 2119 3236 1894 
Q 3428 1669 3622 1275 
L 4263 0 
L 3584 0 
L 2988 1197 
Q 2756 1666 2539 1819 
Q 2322 1972 1947 1972 
L 1259 1972 
L 1259 0 
L 628 0 
L 628 4666 
L 2053 4666 
Q 2853 4666 3247 4331 
Q 3641 3997 3641 3322 
Q 3641 2881 3436 2590 
Q 3231 2300 2841 2188 
z
M 1259 4147 
L 1259 2491 
L 2053 2491 
Q 2509 2491 2742 2702 
Q 2975 2913 2975 3322 
Q 2975 3731 2742 3939 
Q 2509 4147 2053 4147 
L 1259 4147 
z
" transform="scale(0.015625)"/>
       <path id="DejaVuSans-57" d="M 213 4666 
L 850 4666 
L 1831 722 
L 2809 4666 
L 3519 4666 
L 4500 722 
L 5478 4666 
L 6119 4666 
L 4947 0 
L 4153 0 
L 3169 4050 
L 2175 0 
L 1381 0 
L 213 4666 
z
" transform="scale(0.015625)"/>
       <path id="DejaVuSans-50" d="M 1259 4147 
L 1259 2394 
L 2053 2394 
Q 2494 2394 2734 2622 
Q 2975 2850 2975 3272 
Q 2975 3691 2734 3919 
Q 2494 4147 2053 4147 
L 1259 4147 
z
M 628 4666 
L 2053 4666 
Q 2838 4666 3239 4311 
Q 3641 3956 3641 3272 
Q 3641 2581 3239 2228 
Q 2838 1875 2053 1875 
L 1259 1875 
L 1259 0 
L 628 0 
L 628 4666 
z
" transform="scale(0.015625)"/>
       <path id="DejaVuSans-44" d="M 1259 4147 
L 1259 519 
L 2022 519 
Q 2988 519 3436 956 
Q 3884 1394 3884 2338 
Q 3884 3275 3436 3711 
Q 2988 4147 2022 4147 
L 1259 4147 
z
M 628 4666 
L 1925 4666 
Q 3281 4666 3915 4102 
Q 4550 3538 4550 2338 
Q 4550 1131 3912 565 
Q 3275 0 1925 0 
L 628 0 
L 628 4666 
z
" transform="scale(0.015625)"/>
       <path id="DejaVuSans-20" transform="scale(0.015625)"/>
       <path id="DejaVuSans-4c" d="M 628 4666 
L 1259 4666 
L 1259 531 
L 3531 531 
L 3531 0 
L 628 0 
L 628 4666 
z
" transform="scale(0.015625)"/>
       <path id="DejaVuSans-65" d="M 3597 1894 
L 3597 1613 
L 953 1613 
Q 991 1019 1311 708 
Q 1631 397 2203 397 
Q 2534 397 2845 478 
Q 3156 559 3463 722 
L 3463 178 
Q 3153 47 2828 -22 
Q 2503 -91 2169 -91 
Q 1331 -91 842 396 
Q 353 884 353 1716 
Q 353 2575 817 3079 
Q 1281 3584 2069 3584 
Q 2775 3584 3186 3129 
Q 3597 2675 3597 1894 
z
M 3022 2063 
Q 3016 2534 2758 2815 
Q 2500 3097 2075 3097 
Q 1594 3097 1305 2825 
Q 1016 2553 972 2059 
L 3022 2063 
z
" transform="scale(0.015625)"/>
       <path id="DejaVuSans-61" d="M 2194 1759 
Q 1497 1759 1228 1600 
Q 959 1441 959 1056 
Q 959 750 1161 570 
Q 1363 391 1709 391 
Q 2188 391 2477 730 
Q 2766 1069 2766 1631 
L 2766 1759 
L 2194 1759 
z
M 3341 1997 
L 3341 0 
L 2766 0 
L 2766 531 
Q 2569 213 2275 61 
Q 1981 -91 1556 -91 
Q 1019 -91 701 211 
Q 384 513 384 1019 
Q 384 1609 779 1909 
Q 1175 2209 1959 2209 
L 2766 2209 
L 2766 2266 
Q 2766 2663 2505 2880 
Q 2244 3097 1772 3097 
Q 1472 3097 1187 3025 
Q 903 2953 641 2809 
L 641 3341 
Q 956 3463 1253 3523 
Q 1550 3584 1831 3584 
Q 2591 3584 2966 3190 
Q 3341 2797 3341 1997 
z
" transform="scale(0.015625)"/>
       <path id="DejaVuSans-72" d="M 2631 2963 
Q 2534 3019 2420 3045 
Q 2306 3072 2169 3072 
Q 1681 3072 1420 2755 
Q 1159 2438 1159 1844 
L 1159 0 
L 581 0 
L 581 3500 
L 1159 3500 
L 1159 2956 
Q 1341 3275 1631 3429 
Q 1922 3584 2338 3584 
Q 2397 3584 2469 3576 
Q 2541 3569 2628 3553 
L 2631 2963 
z
" transform="scale(0.015625)"/>
       <path id="DejaVuSans-6e" d="M 3513 2113 
L 3513 0 
L 2938 0 
L 2938 2094 
Q 2938 2591 2744 2837 
Q 2550 3084 2163 3084 
Q 1697 3084 1428 2787 
Q 1159 2491 1159 1978 
L 1159 0 
L 581 0 
L 581 3500 
L 1159 3500 
L 1159 2956 
Q 1366 3272 1645 3428 
Q 1925 3584 2291 3584 
Q 2894 3584 3203 3211 
Q 3513 2838 3513 2113 
z
" transform="scale(0.015625)"/>
       <path id="DejaVuSans-69" d="M 603 3500 
L 1178 3500 
L 1178 0 
L 603 0 
L 603 3500 
z
M 603 4863 
L 1178 4863 
L 1178 4134 
L 603 4134 
L 603 4863 
z
" transform="scale(0.015625)"/>
       <path id="DejaVuSans-67" d="M 2906 1791 
Q 2906 2416 2648 2759 
Q 2391 3103 1925 3103 
Q 1463 3103 1205 2759 
Q 947 2416 947 1791 
Q 947 1169 1205 825 
Q 1463 481 1925 481 
Q 2391 481 2648 825 
Q 2906 1169 2906 1791 
z
M 3481 434 
Q 3481 -459 3084 -895 
Q 2688 -1331 1869 -1331 
Q 1566 -1331 1297 -1286 
Q 1028 -1241 775 -1147 
L 775 -588 
Q 1028 -725 1275 -790 
Q 1522 -856 1778 -856 
Q 2344 -856 2625 -561 
Q 2906 -266 2906 331 
L 2906 616 
Q 2728 306 2450 153 
Q 2172 0 1784 0 
Q 1141 0 747 490 
Q 353 981 353 1791 
Q 353 2603 747 3093 
Q 1141 3584 1784 3584 
Q 2172 3584 2450 3431 
Q 2728 3278 2906 2969 
L 2906 3500 
L 3481 3500 
L 3481 434 
z
" transform="scale(0.015625)"/>
       <path id="DejaVuSans-74" d="M 1172 4494 
L 1172 3500 
L 2356 3500 
L 2356 3053 
L 1172 3053 
L 1172 1153 
Q 1172 725 1289 603 
Q 1406 481 1766 481 
L 2356 481 
L 2356 0 
L 1766 0 
Q 1100 0 847 248 
Q 594 497 594 1153 
L 594 3053 
L 172 3053 
L 172 3500 
L 594 3500 
L 594 4494 
L 1172 4494 
z
" transform="scale(0.015625)"/>
      </defs>
      <use xlink:href="#DejaVuSans-52"/>
      <use xlink:href="#DejaVuSans-57" x="65.482422"/>
      <use xlink:href="#DejaVuSans-50" x="164.359375"/>
      <use xlink:href="#DejaVuSans-44" x="224.662109"/>
      <use xlink:href="#DejaVuSans-20" x="301.664062"/>
      <use xlink:href="#DejaVuSans-4c" x="333.451172"/>
      <use xlink:href="#DejaVuSans-65" x="387.414062"/>
      <use xlink:href="#DejaVuSans-61" x="448.9375"/>
      <use xlink:href="#DejaVuSans-72" x="510.216797"/>
      <use xlink:href="#DejaVuSans-6e" x="549.580078"/>
      <use xlink:href="#DejaVuSans-69" x="612.958984"/>
      <use xlink:href="#DejaVuSans-6e" x="640.742188"/>
      <use xlink:href="#DejaVuSans-67" x="704.121094"/>
      <use xlink:href="#DejaVuSans-20" x="767.597656"/>
      <use xlink:href="#DejaVuSans-72" x="799.384766"/>
      <use xlink:href="#DejaVuSans-61" x="840.498047"/>
      <use xlink:href="#DejaVuSans-74" x="901.777344"/>
      <use xlink:href="#DejaVuSans-65" x="940.986328"/>
     </g>
    </g>
   </g>
   <g id="matplotlib.axis_2">
    <g id="ytick_1">
     <g id="line2d_3">
      <defs>
       <path id="m3d47d3f81b" d="M 0 0 
L -3.5 0 
" style="stroke: #000000; stroke-width: 0.8"/>
      </defs>
      <g>
       <use xlink:href="#m3d47d3f81b" x="67.379375" y="162.867273" style="stroke: #000000; stroke-width: 0.8"/>
      </g>
     </g>
     <g id="text_4">
      <!-- 0 -->
      <g transform="translate(42.564375 173.505085) scale(0.28 -0.28)">
       <use xlink:href="#DejaVuSans-30"/>
      </g>
     </g>
    </g>
    <g id="ytick_2">
     <g id="line2d_4">
      <g>
       <use xlink:href="#m3d47d3f81b" x="67.379375" y="62.695283" style="stroke: #000000; stroke-width: 0.8"/>
      </g>
     </g>
     <g id="text_5">
      <!-- 25 -->
      <g transform="translate(24.749375 73.333095) scale(0.28 -0.28)">
       <defs>
        <path id="DejaVuSans-32" d="M 1228 531 
L 3431 531 
L 3431 0 
L 469 0 
L 469 531 
Q 828 903 1448 1529 
Q 2069 2156 2228 2338 
Q 2531 2678 2651 2914 
Q 2772 3150 2772 3378 
Q 2772 3750 2511 3984 
Q 2250 4219 1831 4219 
Q 1534 4219 1204 4116 
Q 875 4013 500 3803 
L 500 4441 
Q 881 4594 1212 4672 
Q 1544 4750 1819 4750 
Q 2544 4750 2975 4387 
Q 3406 4025 3406 3419 
Q 3406 3131 3298 2873 
Q 3191 2616 2906 2266 
Q 2828 2175 2409 1742 
Q 1991 1309 1228 531 
z
" transform="scale(0.015625)"/>
        <path id="DejaVuSans-35" d="M 691 4666 
L 3169 4666 
L 3169 4134 
L 1269 4134 
L 1269 2991 
Q 1406 3038 1543 3061 
Q 1681 3084 1819 3084 
Q 2600 3084 3056 2656 
Q 3513 2228 3513 1497 
Q 3513 744 3044 326 
Q 2575 -91 1722 -91 
Q 1428 -91 1123 -41 
Q 819 9 494 109 
L 494 744 
Q 775 591 1075 516 
Q 1375 441 1709 441 
Q 2250 441 2565 725 
Q 2881 1009 2881 1497 
Q 2881 1984 2565 2268 
Q 2250 2553 1709 2553 
Q 1456 2553 1204 2497 
Q 953 2441 691 2322 
L 691 4666 
z
" transform="scale(0.015625)"/>
       </defs>
       <use xlink:href="#DejaVuSans-32"/>
       <use xlink:href="#DejaVuSans-35" x="63.623047"/>
      </g>
     </g>
    </g>
    <g id="text_6">
     <!-- BDI score -->
     <g transform="translate(17.837812 122.028281) rotate(-90) scale(0.14 -0.14)">
      <defs>
       <path id="DejaVuSans-42" d="M 1259 2228 
L 1259 519 
L 2272 519 
Q 2781 519 3026 730 
Q 3272 941 3272 1375 
Q 3272 1813 3026 2020 
Q 2781 2228 2272 2228 
L 1259 2228 
z
M 1259 4147 
L 1259 2741 
L 2194 2741 
Q 2656 2741 2882 2914 
Q 3109 3088 3109 3444 
Q 3109 3797 2882 3972 
Q 2656 4147 2194 4147 
L 1259 4147 
z
M 628 4666 
L 2241 4666 
Q 2963 4666 3353 4366 
Q 3744 4066 3744 3513 
Q 3744 3084 3544 2831 
Q 3344 2578 2956 2516 
Q 3422 2416 3680 2098 
Q 3938 1781 3938 1306 
Q 3938 681 3513 340 
Q 3088 0 2303 0 
L 628 0 
L 628 4666 
z
" transform="scale(0.015625)"/>
       <path id="DejaVuSans-49" d="M 628 4666 
L 1259 4666 
L 1259 0 
L 628 0 
L 628 4666 
z
" transform="scale(0.015625)"/>
       <path id="DejaVuSans-73" d="M 2834 3397 
L 2834 2853 
Q 2591 2978 2328 3040 
Q 2066 3103 1784 3103 
Q 1356 3103 1142 2972 
Q 928 2841 928 2578 
Q 928 2378 1081 2264 
Q 1234 2150 1697 2047 
L 1894 2003 
Q 2506 1872 2764 1633 
Q 3022 1394 3022 966 
Q 3022 478 2636 193 
Q 2250 -91 1575 -91 
Q 1294 -91 989 -36 
Q 684 19 347 128 
L 347 722 
Q 666 556 975 473 
Q 1284 391 1588 391 
Q 1994 391 2212 530 
Q 2431 669 2431 922 
Q 2431 1156 2273 1281 
Q 2116 1406 1581 1522 
L 1381 1569 
Q 847 1681 609 1914 
Q 372 2147 372 2553 
Q 372 3047 722 3315 
Q 1072 3584 1716 3584 
Q 2034 3584 2315 3537 
Q 2597 3491 2834 3397 
z
" transform="scale(0.015625)"/>
       <path id="DejaVuSans-63" d="M 3122 3366 
L 3122 2828 
Q 2878 2963 2633 3030 
Q 2388 3097 2138 3097 
Q 1578 3097 1268 2742 
Q 959 2388 959 1747 
Q 959 1106 1268 751 
Q 1578 397 2138 397 
Q 2388 397 2633 464 
Q 2878 531 3122 666 
L 3122 134 
Q 2881 22 2623 -34 
Q 2366 -91 2075 -91 
Q 1284 -91 818 406 
Q 353 903 353 1747 
Q 353 2603 823 3093 
Q 1294 3584 2113 3584 
Q 2378 3584 2631 3529 
Q 2884 3475 3122 3366 
z
" transform="scale(0.015625)"/>
       <path id="DejaVuSans-6f" d="M 1959 3097 
Q 1497 3097 1228 2736 
Q 959 2375 959 1747 
Q 959 1119 1226 758 
Q 1494 397 1959 397 
Q 2419 397 2687 759 
Q 2956 1122 2956 1747 
Q 2956 2369 2687 2733 
Q 2419 3097 1959 3097 
z
M 1959 3584 
Q 2709 3584 3137 3096 
Q 3566 2609 3566 1747 
Q 3566 888 3137 398 
Q 2709 -91 1959 -91 
Q 1206 -91 779 398 
Q 353 888 353 1747 
Q 353 2609 779 3096 
Q 1206 3584 1959 3584 
z
" transform="scale(0.015625)"/>
      </defs>
      <use xlink:href="#DejaVuSans-42"/>
      <use xlink:href="#DejaVuSans-44" x="68.603516"/>
      <use xlink:href="#DejaVuSans-49" x="145.605469"/>
      <use xlink:href="#DejaVuSans-20" x="175.097656"/>
      <use xlink:href="#DejaVuSans-73" x="206.884766"/>
      <use xlink:href="#DejaVuSans-63" x="258.984375"/>
      <use xlink:href="#DejaVuSans-6f" x="313.964844"/>
      <use xlink:href="#DejaVuSans-72" x="375.146484"/>
      <use xlink:href="#DejaVuSans-65" x="414.009766"/>
     </g>
    </g>
   </g>
   <g id="line2d_5">
    <path d="M 100.333697 123.842057 
L 207.592748 115.780523 
L 71.462302 126.012017 
L 72.081821 125.965454 
" clip-path="url(#p5cf0837f8f)" style="fill: none; stroke: #666666; stroke-width: 1.5; stroke-linecap: square"/>
   </g>
   <g id="patch_3">
    <path d="M 67.379375 170.28 
L 67.379375 7.2 
" style="fill: none; stroke: #000000; stroke-width: 0.8; stroke-linejoin: miter; stroke-linecap: square"/>
   </g>
   <g id="patch_4">
    <path d="M 67.379375 170.28 
L 234.779375 170.28 
" style="fill: none; stroke: #000000; stroke-width: 0.8; stroke-linejoin: miter; stroke-linecap: square"/>
   </g>
   <g id="text_7">
    <!-- $R^2 = 0.01, p = 0.31$ -->
    <g transform="translate(125.969375 19.7508) scale(0.12 -0.12)">
     <defs>
      <path id="DejaVuSans-Oblique-52" d="M 1613 4147 
L 1294 2491 
L 2106 2491 
Q 2584 2491 2879 2755 
Q 3175 3019 3175 3444 
Q 3175 3784 2976 3965 
Q 2778 4147 2406 4147 
L 1613 4147 
z
M 2772 2241 
Q 2972 2194 3105 2009 
Q 3238 1825 3413 1275 
L 3809 0 
L 3144 0 
L 2778 1197 
Q 2638 1659 2453 1815 
Q 2269 1972 1888 1972 
L 1191 1972 
L 806 0 
L 172 0 
L 1081 4666 
L 2503 4666 
Q 3150 4666 3495 4373 
Q 3841 4081 3841 3531 
Q 3841 3044 3547 2687 
Q 3253 2331 2772 2241 
z
" transform="scale(0.015625)"/>
      <path id="DejaVuSans-3d" d="M 678 2906 
L 4684 2906 
L 4684 2381 
L 678 2381 
L 678 2906 
z
M 678 1631 
L 4684 1631 
L 4684 1100 
L 678 1100 
L 678 1631 
z
" transform="scale(0.015625)"/>
      <path id="DejaVuSans-2e" d="M 684 794 
L 1344 794 
L 1344 0 
L 684 0 
L 684 794 
z
" transform="scale(0.015625)"/>
      <path id="DejaVuSans-2c" d="M 750 794 
L 1409 794 
L 1409 256 
L 897 -744 
L 494 -744 
L 750 256 
L 750 794 
z
" transform="scale(0.015625)"/>
      <path id="DejaVuSans-Oblique-70" d="M 3175 2156 
Q 3175 2616 2975 2859 
Q 2775 3103 2400 3103 
Q 2144 3103 1911 2972 
Q 1678 2841 1497 2591 
Q 1319 2344 1212 1994 
Q 1106 1644 1106 1300 
Q 1106 863 1306 627 
Q 1506 391 1875 391 
Q 2147 391 2380 519 
Q 2613 647 2778 891 
Q 2956 1147 3065 1494 
Q 3175 1841 3175 2156 
z
M 1394 2969 
Q 1625 3272 1939 3428 
Q 2253 3584 2638 3584 
Q 3175 3584 3472 3232 
Q 3769 2881 3769 2247 
Q 3769 1728 3584 1258 
Q 3400 788 3053 416 
Q 2822 169 2531 39 
Q 2241 -91 1919 -91 
Q 1547 -91 1294 64 
Q 1041 219 916 525 
L 556 -1331 
L -19 -1331 
L 922 3500 
L 1497 3500 
L 1394 2969 
z
" transform="scale(0.015625)"/>
      <path id="DejaVuSans-33" d="M 2597 2516 
Q 3050 2419 3304 2112 
Q 3559 1806 3559 1356 
Q 3559 666 3084 287 
Q 2609 -91 1734 -91 
Q 1441 -91 1130 -33 
Q 819 25 488 141 
L 488 750 
Q 750 597 1062 519 
Q 1375 441 1716 441 
Q 2309 441 2620 675 
Q 2931 909 2931 1356 
Q 2931 1769 2642 2001 
Q 2353 2234 1838 2234 
L 1294 2234 
L 1294 2753 
L 1863 2753 
Q 2328 2753 2575 2939 
Q 2822 3125 2822 3475 
Q 2822 3834 2567 4026 
Q 2313 4219 1838 4219 
Q 1578 4219 1281 4162 
Q 984 4106 628 3988 
L 628 4550 
Q 988 4650 1302 4700 
Q 1616 4750 1894 4750 
Q 2613 4750 3031 4423 
Q 3450 4097 3450 3541 
Q 3450 3153 3228 2886 
Q 3006 2619 2597 2516 
z
" transform="scale(0.015625)"/>
     </defs>
     <use xlink:href="#DejaVuSans-Oblique-52" transform="translate(0 0.765625)"/>
     <use xlink:href="#DejaVuSans-32" transform="translate(76.499193 39.046875) scale(0.7)"/>
     <use xlink:href="#DejaVuSans-3d" transform="translate(143.252122 0.765625)"/>
     <use xlink:href="#DejaVuSans-30" transform="translate(246.523607 0.765625)"/>
     <use xlink:href="#DejaVuSans-2e" transform="translate(310.146654 0.765625)"/>
     <use xlink:href="#DejaVuSans-30" transform="translate(341.933763 0.765625)"/>
     <use xlink:href="#DejaVuSans-31" transform="translate(405.55681 0.765625)"/>
     <use xlink:href="#DejaVuSans-2c" transform="translate(469.179857 0.765625)"/>
     <use xlink:href="#DejaVuSans-Oblique-70" transform="translate(520.449388 0.765625)"/>
     <use xlink:href="#DejaVuSans-3d" transform="translate(603.408372 0.765625)"/>
     <use xlink:href="#DejaVuSans-30" transform="translate(706.679857 0.765625)"/>
     <use xlink:href="#DejaVuSans-2e" transform="translate(770.302904 0.765625)"/>
     <use xlink:href="#DejaVuSans-33" transform="translate(802.090013 0.765625)"/>
     <use xlink:href="#DejaVuSans-31" transform="translate(865.71306 0.765625)"/>
    </g>
   </g>
  </g>
 </g>
 <defs>
  <clipPath id="p5cf0837f8f">
   <rect x="67.379375" y="7.2" width="167.4" height="163.08"/>
  </clipPath>
 </defs>
</svg>
