<?xml version="1.0" encoding="utf-8" standalone="no"?>
<!DOCTYPE svg PUBLIC "-//W3C//DTD SVG 1.1//EN"
  "http://www.w3.org/Graphics/SVG/1.1/DTD/svg11.dtd">
<svg xmlns:xlink="http://www.w3.org/1999/xlink" width="326.803125pt" height="262.19625pt" viewBox="0 0 326.803125 262.19625" xmlns="http://www.w3.org/2000/svg" version="1.1">
 <metadata>
  <rdf:RDF xmlns:dc="http://purl.org/dc/elements/1.1/" xmlns:cc="http://creativecommons.org/ns#" xmlns:rdf="http://www.w3.org/1999/02/22-rdf-syntax-ns#">
   <cc:Work>
    <dc:type rdf:resource="http://purl.org/dc/dcmitype/StillImage"/>
    <dc:date>2024-07-09T17:01:36.652366</dc:date>
    <dc:format>image/svg+xml</dc:format>
    <dc:creator>
     <cc:Agent>
      <dc:title>Matplotlib v3.9.1, https://matplotlib.org/</dc:title>
     </cc:Agent>
    </dc:creator>
   </cc:Work>
  </rdf:RDF>
 </metadata>
 <defs>
  <style type="text/css">*{stroke-linejoin: round; stroke-linecap: butt}</style>
 </defs>
 <g id="figure_1">
  <g id="patch_1">
   <path d="M 0 262.19625 
L 326.803125 262.19625 
L 326.803125 0 
L 0 0 
z
" style="fill: #ffffff"/>
  </g>
  <g id="axes_1">
   <g id="patch_2">
    <path d="M 40.603125 224.64 
L 319.603125 224.64 
L 319.603125 7.2 
L 40.603125 7.2 
z
" style="fill: #ffffff"/>
   </g>
   <g id="PathCollection_1">
    <defs>
     <path id="m8436bf3dde" d="M 0 3 
C 0.795609 3 1.55874 2.683901 2.12132 2.12132 
C 2.683901 1.55874 3 0.795609 3 0 
C 3 -0.795609 2.683901 -1.55874 2.12132 -2.12132 
C 1.55874 -2.683901 0.795609 -3 0 -3 
C -0.795609 -3 -1.55874 -2.683901 -2.12132 -2.12132 
C -2.683901 -1.55874 -3 -0.795609 -3 0 
C -3 0.795609 -2.683901 1.55874 -2.12132 2.12132 
C -1.55874 2.683901 -0.795609 3 0 3 
z
" style="stroke: #1f77b4"/>
    </defs>
    <g clip-path="url(#p5b569ca55f)">
     <use xlink:href="#m8436bf3dde" x="72.830498" y="182.701327" style="fill: #1f77b4; stroke: #1f77b4"/>
     <use xlink:href="#m8436bf3dde" x="140.445392" y="204.071351" style="fill: #1f77b4; stroke: #1f77b4"/>
     <use xlink:href="#m8436bf3dde" x="186.144174" y="198.728845" style="fill: #1f77b4; stroke: #1f77b4"/>
     <use xlink:href="#m8436bf3dde" x="90.746733" y="65.166192" style="fill: #1f77b4; stroke: #1f77b4"/>
     <use xlink:href="#m8436bf3dde" x="145.649266" y="166.673808" style="fill: #1f77b4; stroke: #1f77b4"/>
     <use xlink:href="#m8436bf3dde" x="174.427654" y="188.043833" style="fill: #1f77b4; stroke: #1f77b4"/>
     <use xlink:href="#m8436bf3dde" x="182.133082" y="113.248747" style="fill: #1f77b4; stroke: #1f77b4"/>
     <use xlink:href="#m8436bf3dde" x="302.537931" y="193.386339" style="fill: #1f77b4; stroke: #1f77b4"/>
     <use xlink:href="#m8436bf3dde" x="110.24408" y="204.071351" style="fill: #1f77b4; stroke: #1f77b4"/>
     <use xlink:href="#m8436bf3dde" x="181.540879" y="81.19371" style="fill: #1f77b4; stroke: #1f77b4"/>
     <use xlink:href="#m8436bf3dde" x="214.652549" y="172.016314" style="fill: #1f77b4; stroke: #1f77b4"/>
     <use xlink:href="#m8436bf3dde" x="86.367168" y="49.138673" style="fill: #1f77b4; stroke: #1f77b4"/>
     <use xlink:href="#m8436bf3dde" x="212.284082" y="177.358821" style="fill: #1f77b4; stroke: #1f77b4"/>
     <use xlink:href="#m8436bf3dde" x="99.060239" y="145.303784" style="fill: #1f77b4; stroke: #1f77b4"/>
     <use xlink:href="#m8436bf3dde" x="174.910194" y="107.906241" style="fill: #1f77b4; stroke: #1f77b4"/>
     <use xlink:href="#m8436bf3dde" x="139.520428" y="81.19371" style="fill: #1f77b4; stroke: #1f77b4"/>
     <use xlink:href="#m8436bf3dde" x="244.906008" y="107.906241" style="fill: #1f77b4; stroke: #1f77b4"/>
     <use xlink:href="#m8436bf3dde" x="203.902793" y="198.728845" style="fill: #1f77b4; stroke: #1f77b4"/>
     <use xlink:href="#m8436bf3dde" x="170.230562" y="172.016314" style="fill: #1f77b4; stroke: #1f77b4"/>
     <use xlink:href="#m8436bf3dde" x="257.321137" y="161.331302" style="fill: #1f77b4; stroke: #1f77b4"/>
     <use xlink:href="#m8436bf3dde" x="239.468675" y="188.043833" style="fill: #1f77b4; stroke: #1f77b4"/>
     <use xlink:href="#m8436bf3dde" x="171.13032" y="172.016314" style="fill: #1f77b4; stroke: #1f77b4"/>
     <use xlink:href="#m8436bf3dde" x="205.12562" y="182.701327" style="fill: #1f77b4; stroke: #1f77b4"/>
     <use xlink:href="#m8436bf3dde" x="280.4343" y="204.071351" style="fill: #1f77b4; stroke: #1f77b4"/>
     <use xlink:href="#m8436bf3dde" x="160.80032" y="214.756364" style="fill: #1f77b4; stroke: #1f77b4"/>
     <use xlink:href="#m8436bf3dde" x="258.548635" y="204.071351" style="fill: #1f77b4; stroke: #1f77b4"/>
     <use xlink:href="#m8436bf3dde" x="171.966627" y="155.988796" style="fill: #1f77b4; stroke: #1f77b4"/>
     <use xlink:href="#m8436bf3dde" x="173.039288" y="145.303784" style="fill: #1f77b4; stroke: #1f77b4"/>
     <use xlink:href="#m8436bf3dde" x="105.999364" y="198.728845" style="fill: #1f77b4; stroke: #1f77b4"/>
     <use xlink:href="#m8436bf3dde" x="216.092848" y="139.961278" style="fill: #1f77b4; stroke: #1f77b4"/>
     <use xlink:href="#m8436bf3dde" x="167.799961" y="193.386339" style="fill: #1f77b4; stroke: #1f77b4"/>
     <use xlink:href="#m8436bf3dde" x="64.374663" y="177.358821" style="fill: #1f77b4; stroke: #1f77b4"/>
     <use xlink:href="#m8436bf3dde" x="188.799981" y="145.303784" style="fill: #1f77b4; stroke: #1f77b4"/>
     <use xlink:href="#m8436bf3dde" x="137.667455" y="129.276265" style="fill: #1f77b4; stroke: #1f77b4"/>
     <use xlink:href="#m8436bf3dde" x="156.886778" y="155.988796" style="fill: #1f77b4; stroke: #1f77b4"/>
     <use xlink:href="#m8436bf3dde" x="60.593904" y="193.386339" style="fill: #1f77b4; stroke: #1f77b4"/>
     <use xlink:href="#m8436bf3dde" x="221.085593" y="145.303784" style="fill: #1f77b4; stroke: #1f77b4"/>
     <use xlink:href="#m8436bf3dde" x="148.892332" y="134.618771" style="fill: #1f77b4; stroke: #1f77b4"/>
     <use xlink:href="#m8436bf3dde" x="222.822091" y="155.988796" style="fill: #1f77b4; stroke: #1f77b4"/>
     <use xlink:href="#m8436bf3dde" x="306.921307" y="204.071351" style="fill: #1f77b4; stroke: #1f77b4"/>
     <use xlink:href="#m8436bf3dde" x="154.865867" y="198.728845" style="fill: #1f77b4; stroke: #1f77b4"/>
     <use xlink:href="#m8436bf3dde" x="161.670713" y="166.673808" style="fill: #1f77b4; stroke: #1f77b4"/>
     <use xlink:href="#m8436bf3dde" x="155.913284" y="172.016314" style="fill: #1f77b4; stroke: #1f77b4"/>
     <use xlink:href="#m8436bf3dde" x="159.80215" y="129.276265" style="fill: #1f77b4; stroke: #1f77b4"/>
     <use xlink:href="#m8436bf3dde" x="56.75544" y="134.618771" style="fill: #1f77b4; stroke: #1f77b4"/>
     <use xlink:href="#m8436bf3dde" x="208.739138" y="188.043833" style="fill: #1f77b4; stroke: #1f77b4"/>
     <use xlink:href="#m8436bf3dde" x="214.654897" y="198.728845" style="fill: #1f77b4; stroke: #1f77b4"/>
     <use xlink:href="#m8436bf3dde" x="157.317896" y="177.358821" style="fill: #1f77b4; stroke: #1f77b4"/>
     <use xlink:href="#m8436bf3dde" x="94.438107" y="113.248747" style="fill: #1f77b4; stroke: #1f77b4"/>
     <use xlink:href="#m8436bf3dde" x="181.480323" y="193.386339" style="fill: #1f77b4; stroke: #1f77b4"/>
     <use xlink:href="#m8436bf3dde" x="218.911443" y="150.64629" style="fill: #1f77b4; stroke: #1f77b4"/>
     <use xlink:href="#m8436bf3dde" x="97.979063" y="166.673808" style="fill: #1f77b4; stroke: #1f77b4"/>
     <use xlink:href="#m8436bf3dde" x="148.336002" y="204.071351" style="fill: #1f77b4; stroke: #1f77b4"/>
     <use xlink:href="#m8436bf3dde" x="137.368137" y="145.303784" style="fill: #1f77b4; stroke: #1f77b4"/>
     <use xlink:href="#m8436bf3dde" x="218.075773" y="172.016314" style="fill: #1f77b4; stroke: #1f77b4"/>
     <use xlink:href="#m8436bf3dde" x="195.528081" y="172.016314" style="fill: #1f77b4; stroke: #1f77b4"/>
     <use xlink:href="#m8436bf3dde" x="179.497438" y="193.386339" style="fill: #1f77b4; stroke: #1f77b4"/>
     <use xlink:href="#m8436bf3dde" x="151.51917" y="113.248747" style="fill: #1f77b4; stroke: #1f77b4"/>
     <use xlink:href="#m8436bf3dde" x="149.427643" y="107.906241" style="fill: #1f77b4; stroke: #1f77b4"/>
     <use xlink:href="#m8436bf3dde" x="120.198655" y="129.276265" style="fill: #1f77b4; stroke: #1f77b4"/>
     <use xlink:href="#m8436bf3dde" x="289.865137" y="209.413857" style="fill: #1f77b4; stroke: #1f77b4"/>
     <use xlink:href="#m8436bf3dde" x="198.762642" y="134.618771" style="fill: #1f77b4; stroke: #1f77b4"/>
     <use xlink:href="#m8436bf3dde" x="66.10507" y="172.016314" style="fill: #1f77b4; stroke: #1f77b4"/>
     <use xlink:href="#m8436bf3dde" x="230.55617" y="193.386339" style="fill: #1f77b4; stroke: #1f77b4"/>
     <use xlink:href="#m8436bf3dde" x="209.217733" y="209.413857" style="fill: #1f77b4; stroke: #1f77b4"/>
     <use xlink:href="#m8436bf3dde" x="118.801863" y="198.728845" style="fill: #1f77b4; stroke: #1f77b4"/>
     <use xlink:href="#m8436bf3dde" x="211.967894" y="182.701327" style="fill: #1f77b4; stroke: #1f77b4"/>
     <use xlink:href="#m8436bf3dde" x="150.748932" y="198.728845" style="fill: #1f77b4; stroke: #1f77b4"/>
     <use xlink:href="#m8436bf3dde" x="185.52899" y="214.756364" style="fill: #1f77b4; stroke: #1f77b4"/>
     <use xlink:href="#m8436bf3dde" x="202.691628" y="129.276265" style="fill: #1f77b4; stroke: #1f77b4"/>
     <use xlink:href="#m8436bf3dde" x="227.078446" y="209.413857" style="fill: #1f77b4; stroke: #1f77b4"/>
     <use xlink:href="#m8436bf3dde" x="157.558897" y="150.64629" style="fill: #1f77b4; stroke: #1f77b4"/>
     <use xlink:href="#m8436bf3dde" x="127.912412" y="91.878722" style="fill: #1f77b4; stroke: #1f77b4"/>
     <use xlink:href="#m8436bf3dde" x="122.792958" y="91.878722" style="fill: #1f77b4; stroke: #1f77b4"/>
     <use xlink:href="#m8436bf3dde" x="139.830994" y="134.618771" style="fill: #1f77b4; stroke: #1f77b4"/>
     <use xlink:href="#m8436bf3dde" x="169.758615" y="145.303784" style="fill: #1f77b4; stroke: #1f77b4"/>
     <use xlink:href="#m8436bf3dde" x="182.082692" y="214.756364" style="fill: #1f77b4; stroke: #1f77b4"/>
     <use xlink:href="#m8436bf3dde" x="220.631762" y="193.386339" style="fill: #1f77b4; stroke: #1f77b4"/>
     <use xlink:href="#m8436bf3dde" x="187.101189" y="155.988796" style="fill: #1f77b4; stroke: #1f77b4"/>
     <use xlink:href="#m8436bf3dde" x="53.284943" y="172.016314" style="fill: #1f77b4; stroke: #1f77b4"/>
     <use xlink:href="#m8436bf3dde" x="244.960598" y="123.933759" style="fill: #1f77b4; stroke: #1f77b4"/>
     <use xlink:href="#m8436bf3dde" x="90.679201" y="161.331302" style="fill: #1f77b4; stroke: #1f77b4"/>
     <use xlink:href="#m8436bf3dde" x="158.159224" y="198.728845" style="fill: #1f77b4; stroke: #1f77b4"/>
     <use xlink:href="#m8436bf3dde" x="160.586299" y="198.728845" style="fill: #1f77b4; stroke: #1f77b4"/>
     <use xlink:href="#m8436bf3dde" x="189.587683" y="123.933759" style="fill: #1f77b4; stroke: #1f77b4"/>
     <use xlink:href="#m8436bf3dde" x="232.432477" y="172.016314" style="fill: #1f77b4; stroke: #1f77b4"/>
     <use xlink:href="#m8436bf3dde" x="214.229163" y="198.728845" style="fill: #1f77b4; stroke: #1f77b4"/>
     <use xlink:href="#m8436bf3dde" x="199.518509" y="209.413857" style="fill: #1f77b4; stroke: #1f77b4"/>
     <use xlink:href="#m8436bf3dde" x="203.087261" y="161.331302" style="fill: #1f77b4; stroke: #1f77b4"/>
     <use xlink:href="#m8436bf3dde" x="172.286927" y="145.303784" style="fill: #1f77b4; stroke: #1f77b4"/>
     <use xlink:href="#m8436bf3dde" x="197.463563" y="145.303784" style="fill: #1f77b4; stroke: #1f77b4"/>
     <use xlink:href="#m8436bf3dde" x="259.05158" y="214.756364" style="fill: #1f77b4; stroke: #1f77b4"/>
     <use xlink:href="#m8436bf3dde" x="260.178983" y="214.756364" style="fill: #1f77b4; stroke: #1f77b4"/>
     <use xlink:href="#m8436bf3dde" x="203.780542" y="123.933759" style="fill: #1f77b4; stroke: #1f77b4"/>
     <use xlink:href="#m8436bf3dde" x="133.604209" y="166.673808" style="fill: #1f77b4; stroke: #1f77b4"/>
     <use xlink:href="#m8436bf3dde" x="142.705598" y="193.386339" style="fill: #1f77b4; stroke: #1f77b4"/>
     <use xlink:href="#m8436bf3dde" x="209.700338" y="209.413857" style="fill: #1f77b4; stroke: #1f77b4"/>
     <use xlink:href="#m8436bf3dde" x="177.005426" y="209.413857" style="fill: #1f77b4; stroke: #1f77b4"/>
     <use xlink:href="#m8436bf3dde" x="252.953775" y="139.961278" style="fill: #1f77b4; stroke: #1f77b4"/>
     <use xlink:href="#m8436bf3dde" x="136.019264" y="214.756364" style="fill: #1f77b4; stroke: #1f77b4"/>
     <use xlink:href="#m8436bf3dde" x="301.852629" y="198.728845" style="fill: #1f77b4; stroke: #1f77b4"/>
     <use xlink:href="#m8436bf3dde" x="184.191012" y="17.083636" style="fill: #1f77b4; stroke: #1f77b4"/>
     <use xlink:href="#m8436bf3dde" x="140.18884" y="188.043833" style="fill: #1f77b4; stroke: #1f77b4"/>
     <use xlink:href="#m8436bf3dde" x="188.662455" y="134.618771" style="fill: #1f77b4; stroke: #1f77b4"/>
     <use xlink:href="#m8436bf3dde" x="151.516286" y="113.248747" style="fill: #1f77b4; stroke: #1f77b4"/>
     <use xlink:href="#m8436bf3dde" x="108.065193" y="166.673808" style="fill: #1f77b4; stroke: #1f77b4"/>
     <use xlink:href="#m8436bf3dde" x="244.459184" y="209.413857" style="fill: #1f77b4; stroke: #1f77b4"/>
     <use xlink:href="#m8436bf3dde" x="167.684639" y="129.276265" style="fill: #1f77b4; stroke: #1f77b4"/>
     <use xlink:href="#m8436bf3dde" x="97.836423" y="139.961278" style="fill: #1f77b4; stroke: #1f77b4"/>
     <use xlink:href="#m8436bf3dde" x="181.150313" y="182.701327" style="fill: #1f77b4; stroke: #1f77b4"/>
     <use xlink:href="#m8436bf3dde" x="247.660877" y="107.906241" style="fill: #1f77b4; stroke: #1f77b4"/>
     <use xlink:href="#m8436bf3dde" x="136.837083" y="214.756364" style="fill: #1f77b4; stroke: #1f77b4"/>
     <use xlink:href="#m8436bf3dde" x="133.308368" y="155.988796" style="fill: #1f77b4; stroke: #1f77b4"/>
     <use xlink:href="#m8436bf3dde" x="202.425153" y="166.673808" style="fill: #1f77b4; stroke: #1f77b4"/>
     <use xlink:href="#m8436bf3dde" x="156.148722" y="113.248747" style="fill: #1f77b4; stroke: #1f77b4"/>
     <use xlink:href="#m8436bf3dde" x="170.090541" y="209.413857" style="fill: #1f77b4; stroke: #1f77b4"/>
     <use xlink:href="#m8436bf3dde" x="168.494109" y="70.508698" style="fill: #1f77b4; stroke: #1f77b4"/>
     <use xlink:href="#m8436bf3dde" x="109.550811" y="134.618771" style="fill: #1f77b4; stroke: #1f77b4"/>
     <use xlink:href="#m8436bf3dde" x="154.893785" y="198.728845" style="fill: #1f77b4; stroke: #1f77b4"/>
     <use xlink:href="#m8436bf3dde" x="178.778734" y="209.413857" style="fill: #1f77b4; stroke: #1f77b4"/>
     <use xlink:href="#m8436bf3dde" x="174.831764" y="49.138673" style="fill: #1f77b4; stroke: #1f77b4"/>
     <use xlink:href="#m8436bf3dde" x="142.606337" y="204.071351" style="fill: #1f77b4; stroke: #1f77b4"/>
     <use xlink:href="#m8436bf3dde" x="155.270591" y="118.591253" style="fill: #1f77b4; stroke: #1f77b4"/>
     <use xlink:href="#m8436bf3dde" x="270.646495" y="150.64629" style="fill: #1f77b4; stroke: #1f77b4"/>
     <use xlink:href="#m8436bf3dde" x="249.575043" y="81.19371" style="fill: #1f77b4; stroke: #1f77b4"/>
     <use xlink:href="#m8436bf3dde" x="160.855517" y="75.851204" style="fill: #1f77b4; stroke: #1f77b4"/>
     <use xlink:href="#m8436bf3dde" x="175.821003" y="177.358821" style="fill: #1f77b4; stroke: #1f77b4"/>
     <use xlink:href="#m8436bf3dde" x="185.012858" y="193.386339" style="fill: #1f77b4; stroke: #1f77b4"/>
     <use xlink:href="#m8436bf3dde" x="130.804798" y="172.016314" style="fill: #1f77b4; stroke: #1f77b4"/>
     <use xlink:href="#m8436bf3dde" x="230.083774" y="161.331302" style="fill: #1f77b4; stroke: #1f77b4"/>
     <use xlink:href="#m8436bf3dde" x="175.961919" y="155.988796" style="fill: #1f77b4; stroke: #1f77b4"/>
     <use xlink:href="#m8436bf3dde" x="183.146595" y="155.988796" style="fill: #1f77b4; stroke: #1f77b4"/>
    </g>
   </g>
   <g id="matplotlib.axis_1">
    <g id="xtick_1">
     <g id="line2d_1">
      <defs>
       <path id="m0c3dab3581" d="M 0 0 
L 0 3.5 
" style="stroke: #000000; stroke-width: 0.8"/>
      </defs>
      <g>
       <use xlink:href="#m0c3dab3581" x="63.665179" y="224.64" style="stroke: #000000; stroke-width: 0.8"/>
      </g>
     </g>
     <g id="text_1">
      <!-- 10 -->
      <g transform="translate(57.302679 239.238437) scale(0.1 -0.1)">
       <defs>
        <path id="DejaVuSans-31" d="M 794 531 
L 1825 531 
L 1825 4091 
L 703 3866 
L 703 4441 
L 1819 4666 
L 2450 4666 
L 2450 531 
L 3481 531 
L 3481 0 
L 794 0 
L 794 531 
z
" transform="scale(0.015625)"/>
        <path id="DejaVuSans-30" d="M 2034 4250 
Q 1547 4250 1301 3770 
Q 1056 3291 1056 2328 
Q 1056 1369 1301 889 
Q 1547 409 2034 409 
Q 2525 409 2770 889 
Q 3016 1369 3016 2328 
Q 3016 3291 2770 3770 
Q 2525 4250 2034 4250 
z
M 2034 4750 
Q 2819 4750 3233 4129 
Q 3647 3509 3647 2328 
Q 3647 1150 3233 529 
Q 2819 -91 2034 -91 
Q 1250 -91 836 529 
Q 422 1150 422 2328 
Q 422 3509 836 4129 
Q 1250 4750 2034 4750 
z
" transform="scale(0.015625)"/>
       </defs>
       <use xlink:href="#DejaVuSans-31"/>
       <use xlink:href="#DejaVuSans-30" x="63.623047"/>
      </g>
     </g>
    </g>
    <g id="xtick_2">
     <g id="line2d_2">
      <g>
       <use xlink:href="#m0c3dab3581" x="96.840354" y="224.64" style="stroke: #000000; stroke-width: 0.8"/>
      </g>
     </g>
     <g id="text_2">
      <!-- 20 -->
      <g transform="translate(90.477854 239.238437) scale(0.1 -0.1)">
       <defs>
        <path id="DejaVuSans-32" d="M 1228 531 
L 3431 531 
L 3431 0 
L 469 0 
L 469 531 
Q 828 903 1448 1529 
Q 2069 2156 2228 2338 
Q 2531 2678 2651 2914 
Q 2772 3150 2772 3378 
Q 2772 3750 2511 3984 
Q 2250 4219 1831 4219 
Q 1534 4219 1204 4116 
Q 875 4013 500 3803 
L 500 4441 
Q 881 4594 1212 4672 
Q 1544 4750 1819 4750 
Q 2544 4750 2975 4387 
Q 3406 4025 3406 3419 
Q 3406 3131 3298 2873 
Q 3191 2616 2906 2266 
Q 2828 2175 2409 1742 
Q 1991 1309 1228 531 
z
" transform="scale(0.015625)"/>
       </defs>
       <use xlink:href="#DejaVuSans-32"/>
       <use xlink:href="#DejaVuSans-30" x="63.623047"/>
      </g>
     </g>
    </g>
    <g id="xtick_3">
     <g id="line2d_3">
      <g>
       <use xlink:href="#m0c3dab3581" x="130.01553" y="224.64" style="stroke: #000000; stroke-width: 0.8"/>
      </g>
     </g>
     <g id="text_3">
      <!-- 30 -->
      <g transform="translate(123.65303 239.238437) scale(0.1 -0.1)">
       <defs>
        <path id="DejaVuSans-33" d="M 2597 2516 
Q 3050 2419 3304 2112 
Q 3559 1806 3559 1356 
Q 3559 666 3084 287 
Q 2609 -91 1734 -91 
Q 1441 -91 1130 -33 
Q 819 25 488 141 
L 488 750 
Q 750 597 1062 519 
Q 1375 441 1716 441 
Q 2309 441 2620 675 
Q 2931 909 2931 1356 
Q 2931 1769 2642 2001 
Q 2353 2234 1838 2234 
L 1294 2234 
L 1294 2753 
L 1863 2753 
Q 2328 2753 2575 2939 
Q 2822 3125 2822 3475 
Q 2822 3834 2567 4026 
Q 2313 4219 1838 4219 
Q 1578 4219 1281 4162 
Q 984 4106 628 3988 
L 628 4550 
Q 988 4650 1302 4700 
Q 1616 4750 1894 4750 
Q 2613 4750 3031 4423 
Q 3450 4097 3450 3541 
Q 3450 3153 3228 2886 
Q 3006 2619 2597 2516 
z
" transform="scale(0.015625)"/>
       </defs>
       <use xlink:href="#DejaVuSans-33"/>
       <use xlink:href="#DejaVuSans-30" x="63.623047"/>
      </g>
     </g>
    </g>
    <g id="xtick_4">
     <g id="line2d_4">
      <g>
       <use xlink:href="#m0c3dab3581" x="163.190705" y="224.64" style="stroke: #000000; stroke-width: 0.8"/>
      </g>
     </g>
     <g id="text_4">
      <!-- 40 -->
      <g transform="translate(156.828205 239.238437) scale(0.1 -0.1)">
       <defs>
        <path id="DejaVuSans-34" d="M 2419 4116 
L 825 1625 
L 2419 1625 
L 2419 4116 
z
M 2253 4666 
L 3047 4666 
L 3047 1625 
L 3713 1625 
L 3713 1100 
L 3047 1100 
L 3047 0 
L 2419 0 
L 2419 1100 
L 313 1100 
L 313 1709 
L 2253 4666 
z
" transform="scale(0.015625)"/>
       </defs>
       <use xlink:href="#DejaVuSans-34"/>
       <use xlink:href="#DejaVuSans-30" x="63.623047"/>
      </g>
     </g>
    </g>
    <g id="xtick_5">
     <g id="line2d_5">
      <g>
       <use xlink:href="#m0c3dab3581" x="196.365881" y="224.64" style="stroke: #000000; stroke-width: 0.8"/>
      </g>
     </g>
     <g id="text_5">
      <!-- 50 -->
      <g transform="translate(190.003381 239.238437) scale(0.1 -0.1)">
       <defs>
        <path id="DejaVuSans-35" d="M 691 4666 
L 3169 4666 
L 3169 4134 
L 1269 4134 
L 1269 2991 
Q 1406 3038 1543 3061 
Q 1681 3084 1819 3084 
Q 2600 3084 3056 2656 
Q 3513 2228 3513 1497 
Q 3513 744 3044 326 
Q 2575 -91 1722 -91 
Q 1428 -91 1123 -41 
Q 819 9 494 109 
L 494 744 
Q 775 591 1075 516 
Q 1375 441 1709 441 
Q 2250 441 2565 725 
Q 2881 1009 2881 1497 
Q 2881 1984 2565 2268 
Q 2250 2553 1709 2553 
Q 1456 2553 1204 2497 
Q 953 2441 691 2322 
L 691 4666 
z
" transform="scale(0.015625)"/>
       </defs>
       <use xlink:href="#DejaVuSans-35"/>
       <use xlink:href="#DejaVuSans-30" x="63.623047"/>
      </g>
     </g>
    </g>
    <g id="xtick_6">
     <g id="line2d_6">
      <g>
       <use xlink:href="#m0c3dab3581" x="229.541056" y="224.64" style="stroke: #000000; stroke-width: 0.8"/>
      </g>
     </g>
     <g id="text_6">
      <!-- 60 -->
      <g transform="translate(223.178556 239.238437) scale(0.1 -0.1)">
       <defs>
        <path id="DejaVuSans-36" d="M 2113 2584 
Q 1688 2584 1439 2293 
Q 1191 2003 1191 1497 
Q 1191 994 1439 701 
Q 1688 409 2113 409 
Q 2538 409 2786 701 
Q 3034 994 3034 1497 
Q 3034 2003 2786 2293 
Q 2538 2584 2113 2584 
z
M 3366 4563 
L 3366 3988 
Q 3128 4100 2886 4159 
Q 2644 4219 2406 4219 
Q 1781 4219 1451 3797 
Q 1122 3375 1075 2522 
Q 1259 2794 1537 2939 
Q 1816 3084 2150 3084 
Q 2853 3084 3261 2657 
Q 3669 2231 3669 1497 
Q 3669 778 3244 343 
Q 2819 -91 2113 -91 
Q 1303 -91 875 529 
Q 447 1150 447 2328 
Q 447 3434 972 4092 
Q 1497 4750 2381 4750 
Q 2619 4750 2861 4703 
Q 3103 4656 3366 4563 
z
" transform="scale(0.015625)"/>
       </defs>
       <use xlink:href="#DejaVuSans-36"/>
       <use xlink:href="#DejaVuSans-30" x="63.623047"/>
      </g>
     </g>
    </g>
    <g id="xtick_7">
     <g id="line2d_7">
      <g>
       <use xlink:href="#m0c3dab3581" x="262.716231" y="224.64" style="stroke: #000000; stroke-width: 0.8"/>
      </g>
     </g>
     <g id="text_7">
      <!-- 70 -->
      <g transform="translate(256.353731 239.238437) scale(0.1 -0.1)">
       <defs>
        <path id="DejaVuSans-37" d="M 525 4666 
L 3525 4666 
L 3525 4397 
L 1831 0 
L 1172 0 
L 2766 4134 
L 525 4134 
L 525 4666 
z
" transform="scale(0.015625)"/>
       </defs>
       <use xlink:href="#DejaVuSans-37"/>
       <use xlink:href="#DejaVuSans-30" x="63.623047"/>
      </g>
     </g>
    </g>
    <g id="xtick_8">
     <g id="line2d_8">
      <g>
       <use xlink:href="#m0c3dab3581" x="295.891407" y="224.64" style="stroke: #000000; stroke-width: 0.8"/>
      </g>
     </g>
     <g id="text_8">
      <!-- 80 -->
      <g transform="translate(289.528907 239.238437) scale(0.1 -0.1)">
       <defs>
        <path id="DejaVuSans-38" d="M 2034 2216 
Q 1584 2216 1326 1975 
Q 1069 1734 1069 1313 
Q 1069 891 1326 650 
Q 1584 409 2034 409 
Q 2484 409 2743 651 
Q 3003 894 3003 1313 
Q 3003 1734 2745 1975 
Q 2488 2216 2034 2216 
z
M 1403 2484 
Q 997 2584 770 2862 
Q 544 3141 544 3541 
Q 544 4100 942 4425 
Q 1341 4750 2034 4750 
Q 2731 4750 3128 4425 
Q 3525 4100 3525 3541 
Q 3525 3141 3298 2862 
Q 3072 2584 2669 2484 
Q 3125 2378 3379 2068 
Q 3634 1759 3634 1313 
Q 3634 634 3220 271 
Q 2806 -91 2034 -91 
Q 1263 -91 848 271 
Q 434 634 434 1313 
Q 434 1759 690 2068 
Q 947 2378 1403 2484 
z
M 1172 3481 
Q 1172 3119 1398 2916 
Q 1625 2713 2034 2713 
Q 2441 2713 2670 2916 
Q 2900 3119 2900 3481 
Q 2900 3844 2670 4047 
Q 2441 4250 2034 4250 
Q 1625 4250 1398 4047 
Q 1172 3844 1172 3481 
z
" transform="scale(0.015625)"/>
       </defs>
       <use xlink:href="#DejaVuSans-38"/>
       <use xlink:href="#DejaVuSans-30" x="63.623047"/>
      </g>
     </g>
    </g>
    <g id="text_9">
     <!-- WSLS win boundary -->
     <g transform="translate(130.375781 252.916562) scale(0.1 -0.1)">
      <defs>
       <path id="DejaVuSans-57" d="M 213 4666 
L 850 4666 
L 1831 722 
L 2809 4666 
L 3519 4666 
L 4500 722 
L 5478 4666 
L 6119 4666 
L 4947 0 
L 4153 0 
L 3169 4050 
L 2175 0 
L 1381 0 
L 213 4666 
z
" transform="scale(0.015625)"/>
       <path id="DejaVuSans-53" d="M 3425 4513 
L 3425 3897 
Q 3066 4069 2747 4153 
Q 2428 4238 2131 4238 
Q 1616 4238 1336 4038 
Q 1056 3838 1056 3469 
Q 1056 3159 1242 3001 
Q 1428 2844 1947 2747 
L 2328 2669 
Q 3034 2534 3370 2195 
Q 3706 1856 3706 1288 
Q 3706 609 3251 259 
Q 2797 -91 1919 -91 
Q 1588 -91 1214 -16 
Q 841 59 441 206 
L 441 856 
Q 825 641 1194 531 
Q 1563 422 1919 422 
Q 2459 422 2753 634 
Q 3047 847 3047 1241 
Q 3047 1584 2836 1778 
Q 2625 1972 2144 2069 
L 1759 2144 
Q 1053 2284 737 2584 
Q 422 2884 422 3419 
Q 422 4038 858 4394 
Q 1294 4750 2059 4750 
Q 2388 4750 2728 4690 
Q 3069 4631 3425 4513 
z
" transform="scale(0.015625)"/>
       <path id="DejaVuSans-4c" d="M 628 4666 
L 1259 4666 
L 1259 531 
L 3531 531 
L 3531 0 
L 628 0 
L 628 4666 
z
" transform="scale(0.015625)"/>
       <path id="DejaVuSans-20" transform="scale(0.015625)"/>
       <path id="DejaVuSans-77" d="M 269 3500 
L 844 3500 
L 1563 769 
L 2278 3500 
L 2956 3500 
L 3675 769 
L 4391 3500 
L 4966 3500 
L 4050 0 
L 3372 0 
L 2619 2869 
L 1863 0 
L 1184 0 
L 269 3500 
z
" transform="scale(0.015625)"/>
       <path id="DejaVuSans-69" d="M 603 3500 
L 1178 3500 
L 1178 0 
L 603 0 
L 603 3500 
z
M 603 4863 
L 1178 4863 
L 1178 4134 
L 603 4134 
L 603 4863 
z
" transform="scale(0.015625)"/>
       <path id="DejaVuSans-6e" d="M 3513 2113 
L 3513 0 
L 2938 0 
L 2938 2094 
Q 2938 2591 2744 2837 
Q 2550 3084 2163 3084 
Q 1697 3084 1428 2787 
Q 1159 2491 1159 1978 
L 1159 0 
L 581 0 
L 581 3500 
L 1159 3500 
L 1159 2956 
Q 1366 3272 1645 3428 
Q 1925 3584 2291 3584 
Q 2894 3584 3203 3211 
Q 3513 2838 3513 2113 
z
" transform="scale(0.015625)"/>
       <path id="DejaVuSans-62" d="M 3116 1747 
Q 3116 2381 2855 2742 
Q 2594 3103 2138 3103 
Q 1681 3103 1420 2742 
Q 1159 2381 1159 1747 
Q 1159 1113 1420 752 
Q 1681 391 2138 391 
Q 2594 391 2855 752 
Q 3116 1113 3116 1747 
z
M 1159 2969 
Q 1341 3281 1617 3432 
Q 1894 3584 2278 3584 
Q 2916 3584 3314 3078 
Q 3713 2572 3713 1747 
Q 3713 922 3314 415 
Q 2916 -91 2278 -91 
Q 1894 -91 1617 61 
Q 1341 213 1159 525 
L 1159 0 
L 581 0 
L 581 4863 
L 1159 4863 
L 1159 2969 
z
" transform="scale(0.015625)"/>
       <path id="DejaVuSans-6f" d="M 1959 3097 
Q 1497 3097 1228 2736 
Q 959 2375 959 1747 
Q 959 1119 1226 758 
Q 1494 397 1959 397 
Q 2419 397 2687 759 
Q 2956 1122 2956 1747 
Q 2956 2369 2687 2733 
Q 2419 3097 1959 3097 
z
M 1959 3584 
Q 2709 3584 3137 3096 
Q 3566 2609 3566 1747 
Q 3566 888 3137 398 
Q 2709 -91 1959 -91 
Q 1206 -91 779 398 
Q 353 888 353 1747 
Q 353 2609 779 3096 
Q 1206 3584 1959 3584 
z
" transform="scale(0.015625)"/>
       <path id="DejaVuSans-75" d="M 544 1381 
L 544 3500 
L 1119 3500 
L 1119 1403 
Q 1119 906 1312 657 
Q 1506 409 1894 409 
Q 2359 409 2629 706 
Q 2900 1003 2900 1516 
L 2900 3500 
L 3475 3500 
L 3475 0 
L 2900 0 
L 2900 538 
Q 2691 219 2414 64 
Q 2138 -91 1772 -91 
Q 1169 -91 856 284 
Q 544 659 544 1381 
z
M 1991 3584 
L 1991 3584 
z
" transform="scale(0.015625)"/>
       <path id="DejaVuSans-64" d="M 2906 2969 
L 2906 4863 
L 3481 4863 
L 3481 0 
L 2906 0 
L 2906 525 
Q 2725 213 2448 61 
Q 2172 -91 1784 -91 
Q 1150 -91 751 415 
Q 353 922 353 1747 
Q 353 2572 751 3078 
Q 1150 3584 1784 3584 
Q 2172 3584 2448 3432 
Q 2725 3281 2906 2969 
z
M 947 1747 
Q 947 1113 1208 752 
Q 1469 391 1925 391 
Q 2381 391 2643 752 
Q 2906 1113 2906 1747 
Q 2906 2381 2643 2742 
Q 2381 3103 1925 3103 
Q 1469 3103 1208 2742 
Q 947 2381 947 1747 
z
" transform="scale(0.015625)"/>
       <path id="DejaVuSans-61" d="M 2194 1759 
Q 1497 1759 1228 1600 
Q 959 1441 959 1056 
Q 959 750 1161 570 
Q 1363 391 1709 391 
Q 2188 391 2477 730 
Q 2766 1069 2766 1631 
L 2766 1759 
L 2194 1759 
z
M 3341 1997 
L 3341 0 
L 2766 0 
L 2766 531 
Q 2569 213 2275 61 
Q 1981 -91 1556 -91 
Q 1019 -91 701 211 
Q 384 513 384 1019 
Q 384 1609 779 1909 
Q 1175 2209 1959 2209 
L 2766 2209 
L 2766 2266 
Q 2766 2663 2505 2880 
Q 2244 3097 1772 3097 
Q 1472 3097 1187 3025 
Q 903 2953 641 2809 
L 641 3341 
Q 956 3463 1253 3523 
Q 1550 3584 1831 3584 
Q 2591 3584 2966 3190 
Q 3341 2797 3341 1997 
z
" transform="scale(0.015625)"/>
       <path id="DejaVuSans-72" d="M 2631 2963 
Q 2534 3019 2420 3045 
Q 2306 3072 2169 3072 
Q 1681 3072 1420 2755 
Q 1159 2438 1159 1844 
L 1159 0 
L 581 0 
L 581 3500 
L 1159 3500 
L 1159 2956 
Q 1341 3275 1631 3429 
Q 1922 3584 2338 3584 
Q 2397 3584 2469 3576 
Q 2541 3569 2628 3553 
L 2631 2963 
z
" transform="scale(0.015625)"/>
       <path id="DejaVuSans-79" d="M 2059 -325 
Q 1816 -950 1584 -1140 
Q 1353 -1331 966 -1331 
L 506 -1331 
L 506 -850 
L 844 -850 
Q 1081 -850 1212 -737 
Q 1344 -625 1503 -206 
L 1606 56 
L 191 3500 
L 800 3500 
L 1894 763 
L 2988 3500 
L 3597 3500 
L 2059 -325 
z
" transform="scale(0.015625)"/>
      </defs>
      <use xlink:href="#DejaVuSans-57"/>
      <use xlink:href="#DejaVuSans-53" x="98.876953"/>
      <use xlink:href="#DejaVuSans-4c" x="162.353516"/>
      <use xlink:href="#DejaVuSans-53" x="218.066406"/>
      <use xlink:href="#DejaVuSans-20" x="281.542969"/>
      <use xlink:href="#DejaVuSans-77" x="313.330078"/>
      <use xlink:href="#DejaVuSans-69" x="395.117188"/>
      <use xlink:href="#DejaVuSans-6e" x="422.900391"/>
      <use xlink:href="#DejaVuSans-20" x="486.279297"/>
      <use xlink:href="#DejaVuSans-62" x="518.066406"/>
      <use xlink:href="#DejaVuSans-6f" x="581.542969"/>
      <use xlink:href="#DejaVuSans-75" x="642.724609"/>
      <use xlink:href="#DejaVuSans-6e" x="706.103516"/>
      <use xlink:href="#DejaVuSans-64" x="769.482422"/>
      <use xlink:href="#DejaVuSans-61" x="832.958984"/>
      <use xlink:href="#DejaVuSans-72" x="894.238281"/>
      <use xlink:href="#DejaVuSans-79" x="935.351562"/>
     </g>
    </g>
   </g>
   <g id="matplotlib.axis_2">
    <g id="ytick_1">
     <g id="line2d_9">
      <defs>
       <path id="m04d22e6716" d="M 0 0 
L -3.5 0 
" style="stroke: #000000; stroke-width: 0.8"/>
      </defs>
      <g>
       <use xlink:href="#m04d22e6716" x="40.603125" y="214.756364" style="stroke: #000000; stroke-width: 0.8"/>
      </g>
     </g>
     <g id="text_10">
      <!-- 0 -->
      <g transform="translate(27.240625 218.555582) scale(0.1 -0.1)">
       <use xlink:href="#DejaVuSans-30"/>
      </g>
     </g>
    </g>
    <g id="ytick_2">
     <g id="line2d_10">
      <g>
       <use xlink:href="#m04d22e6716" x="40.603125" y="188.043833" style="stroke: #000000; stroke-width: 0.8"/>
      </g>
     </g>
     <g id="text_11">
      <!-- 5 -->
      <g transform="translate(27.240625 191.843052) scale(0.1 -0.1)">
       <use xlink:href="#DejaVuSans-35"/>
      </g>
     </g>
    </g>
    <g id="ytick_3">
     <g id="line2d_11">
      <g>
       <use xlink:href="#m04d22e6716" x="40.603125" y="161.331302" style="stroke: #000000; stroke-width: 0.8"/>
      </g>
     </g>
     <g id="text_12">
      <!-- 10 -->
      <g transform="translate(20.878125 165.130521) scale(0.1 -0.1)">
       <use xlink:href="#DejaVuSans-31"/>
       <use xlink:href="#DejaVuSans-30" x="63.623047"/>
      </g>
     </g>
    </g>
    <g id="ytick_4">
     <g id="line2d_12">
      <g>
       <use xlink:href="#m04d22e6716" x="40.603125" y="134.618771" style="stroke: #000000; stroke-width: 0.8"/>
      </g>
     </g>
     <g id="text_13">
      <!-- 15 -->
      <g transform="translate(20.878125 138.41799) scale(0.1 -0.1)">
       <use xlink:href="#DejaVuSans-31"/>
       <use xlink:href="#DejaVuSans-35" x="63.623047"/>
      </g>
     </g>
    </g>
    <g id="ytick_5">
     <g id="line2d_13">
      <g>
       <use xlink:href="#m04d22e6716" x="40.603125" y="107.906241" style="stroke: #000000; stroke-width: 0.8"/>
      </g>
     </g>
     <g id="text_14">
      <!-- 20 -->
      <g transform="translate(20.878125 111.70546) scale(0.1 -0.1)">
       <use xlink:href="#DejaVuSans-32"/>
       <use xlink:href="#DejaVuSans-30" x="63.623047"/>
      </g>
     </g>
    </g>
    <g id="ytick_6">
     <g id="line2d_14">
      <g>
       <use xlink:href="#m04d22e6716" x="40.603125" y="81.19371" style="stroke: #000000; stroke-width: 0.8"/>
      </g>
     </g>
     <g id="text_15">
      <!-- 25 -->
      <g transform="translate(20.878125 84.992929) scale(0.1 -0.1)">
       <use xlink:href="#DejaVuSans-32"/>
       <use xlink:href="#DejaVuSans-35" x="63.623047"/>
      </g>
     </g>
    </g>
    <g id="ytick_7">
     <g id="line2d_15">
      <g>
       <use xlink:href="#m04d22e6716" x="40.603125" y="54.481179" style="stroke: #000000; stroke-width: 0.8"/>
      </g>
     </g>
     <g id="text_16">
      <!-- 30 -->
      <g transform="translate(20.878125 58.280398) scale(0.1 -0.1)">
       <use xlink:href="#DejaVuSans-33"/>
       <use xlink:href="#DejaVuSans-30" x="63.623047"/>
      </g>
     </g>
    </g>
    <g id="ytick_8">
     <g id="line2d_16">
      <g>
       <use xlink:href="#m04d22e6716" x="40.603125" y="27.768649" style="stroke: #000000; stroke-width: 0.8"/>
      </g>
     </g>
     <g id="text_17">
      <!-- 35 -->
      <g transform="translate(20.878125 31.567867) scale(0.1 -0.1)">
       <use xlink:href="#DejaVuSans-33"/>
       <use xlink:href="#DejaVuSans-35" x="63.623047"/>
      </g>
     </g>
    </g>
    <g id="text_18">
     <!-- BDI score -->
     <g transform="translate(14.798438 139.697344) rotate(-90) scale(0.1 -0.1)">
      <defs>
       <path id="DejaVuSans-42" d="M 1259 2228 
L 1259 519 
L 2272 519 
Q 2781 519 3026 730 
Q 3272 941 3272 1375 
Q 3272 1813 3026 2020 
Q 2781 2228 2272 2228 
L 1259 2228 
z
M 1259 4147 
L 1259 2741 
L 2194 2741 
Q 2656 2741 2882 2914 
Q 3109 3088 3109 3444 
Q 3109 3797 2882 3972 
Q 2656 4147 2194 4147 
L 1259 4147 
z
M 628 4666 
L 2241 4666 
Q 2963 4666 3353 4366 
Q 3744 4066 3744 3513 
Q 3744 3084 3544 2831 
Q 3344 2578 2956 2516 
Q 3422 2416 3680 2098 
Q 3938 1781 3938 1306 
Q 3938 681 3513 340 
Q 3088 0 2303 0 
L 628 0 
L 628 4666 
z
" transform="scale(0.015625)"/>
       <path id="DejaVuSans-44" d="M 1259 4147 
L 1259 519 
L 2022 519 
Q 2988 519 3436 956 
Q 3884 1394 3884 2338 
Q 3884 3275 3436 3711 
Q 2988 4147 2022 4147 
L 1259 4147 
z
M 628 4666 
L 1925 4666 
Q 3281 4666 3915 4102 
Q 4550 3538 4550 2338 
Q 4550 1131 3912 565 
Q 3275 0 1925 0 
L 628 0 
L 628 4666 
z
" transform="scale(0.015625)"/>
       <path id="DejaVuSans-49" d="M 628 4666 
L 1259 4666 
L 1259 0 
L 628 0 
L 628 4666 
z
" transform="scale(0.015625)"/>
       <path id="DejaVuSans-73" d="M 2834 3397 
L 2834 2853 
Q 2591 2978 2328 3040 
Q 2066 3103 1784 3103 
Q 1356 3103 1142 2972 
Q 928 2841 928 2578 
Q 928 2378 1081 2264 
Q 1234 2150 1697 2047 
L 1894 2003 
Q 2506 1872 2764 1633 
Q 3022 1394 3022 966 
Q 3022 478 2636 193 
Q 2250 -91 1575 -91 
Q 1294 -91 989 -36 
Q 684 19 347 128 
L 347 722 
Q 666 556 975 473 
Q 1284 391 1588 391 
Q 1994 391 2212 530 
Q 2431 669 2431 922 
Q 2431 1156 2273 1281 
Q 2116 1406 1581 1522 
L 1381 1569 
Q 847 1681 609 1914 
Q 372 2147 372 2553 
Q 372 3047 722 3315 
Q 1072 3584 1716 3584 
Q 2034 3584 2315 3537 
Q 2597 3491 2834 3397 
z
" transform="scale(0.015625)"/>
       <path id="DejaVuSans-63" d="M 3122 3366 
L 3122 2828 
Q 2878 2963 2633 3030 
Q 2388 3097 2138 3097 
Q 1578 3097 1268 2742 
Q 959 2388 959 1747 
Q 959 1106 1268 751 
Q 1578 397 2138 397 
Q 2388 397 2633 464 
Q 2878 531 3122 666 
L 3122 134 
Q 2881 22 2623 -34 
Q 2366 -91 2075 -91 
Q 1284 -91 818 406 
Q 353 903 353 1747 
Q 353 2603 823 3093 
Q 1294 3584 2113 3584 
Q 2378 3584 2631 3529 
Q 2884 3475 3122 3366 
z
" transform="scale(0.015625)"/>
       <path id="DejaVuSans-65" d="M 3597 1894 
L 3597 1613 
L 953 1613 
Q 991 1019 1311 708 
Q 1631 397 2203 397 
Q 2534 397 2845 478 
Q 3156 559 3463 722 
L 3463 178 
Q 3153 47 2828 -22 
Q 2503 -91 2169 -91 
Q 1331 -91 842 396 
Q 353 884 353 1716 
Q 353 2575 817 3079 
Q 1281 3584 2069 3584 
Q 2775 3584 3186 3129 
Q 3597 2675 3597 1894 
z
M 3022 2063 
Q 3016 2534 2758 2815 
Q 2500 3097 2075 3097 
Q 1594 3097 1305 2825 
Q 1016 2553 972 2059 
L 3022 2063 
z
" transform="scale(0.015625)"/>
      </defs>
      <use xlink:href="#DejaVuSans-42"/>
      <use xlink:href="#DejaVuSans-44" x="68.603516"/>
      <use xlink:href="#DejaVuSans-49" x="145.605469"/>
      <use xlink:href="#DejaVuSans-20" x="175.097656"/>
      <use xlink:href="#DejaVuSans-73" x="206.884766"/>
      <use xlink:href="#DejaVuSans-63" x="258.984375"/>
      <use xlink:href="#DejaVuSans-6f" x="313.964844"/>
      <use xlink:href="#DejaVuSans-72" x="375.146484"/>
      <use xlink:href="#DejaVuSans-65" x="414.009766"/>
     </g>
    </g>
   </g>
   <g id="line2d_17">
    <path d="M 72.830498 146.366069 
L 306.921307 180.965524 
L 53.284943 143.477166 
L 183.146595 162.671181 
" clip-path="url(#p5b569ca55f)" style="fill: none; stroke: #ff0000; stroke-width: 1.5; stroke-linecap: square"/>
   </g>
   <g id="patch_3">
    <path d="M 40.603125 224.64 
L 40.603125 7.2 
" style="fill: none; stroke: #000000; stroke-width: 0.8; stroke-linejoin: miter; stroke-linecap: square"/>
   </g>
   <g id="patch_4">
    <path d="M 40.603125 224.64 
L 319.603125 224.64 
" style="fill: none; stroke: #000000; stroke-width: 0.8; stroke-linejoin: miter; stroke-linecap: square"/>
   </g>
   <g id="text_19">
    <g id="patch_5">
     <path d="M 50.593125 35.472 
L 170.113125 35.472 
L 170.113125 14.112 
L 50.593125 14.112 
z
" style="fill: #ffffff; stroke: #000000; stroke-linejoin: miter"/>
    </g>
    <!-- $R^2 = 0.04, p = 0.03$ -->
    <g transform="translate(54.553125 28.992) scale(0.12 -0.12)">
     <defs>
      <path id="DejaVuSans-Oblique-52" d="M 1613 4147 
L 1294 2491 
L 2106 2491 
Q 2584 2491 2879 2755 
Q 3175 3019 3175 3444 
Q 3175 3784 2976 3965 
Q 2778 4147 2406 4147 
L 1613 4147 
z
M 2772 2241 
Q 2972 2194 3105 2009 
Q 3238 1825 3413 1275 
L 3809 0 
L 3144 0 
L 2778 1197 
Q 2638 1659 2453 1815 
Q 2269 1972 1888 1972 
L 1191 1972 
L 806 0 
L 172 0 
L 1081 4666 
L 2503 4666 
Q 3150 4666 3495 4373 
Q 3841 4081 3841 3531 
Q 3841 3044 3547 2687 
Q 3253 2331 2772 2241 
z
" transform="scale(0.015625)"/>
      <path id="DejaVuSans-3d" d="M 678 2906 
L 4684 2906 
L 4684 2381 
L 678 2381 
L 678 2906 
z
M 678 1631 
L 4684 1631 
L 4684 1100 
L 678 1100 
L 678 1631 
z
" transform="scale(0.015625)"/>
      <path id="DejaVuSans-2e" d="M 684 794 
L 1344 794 
L 1344 0 
L 684 0 
L 684 794 
z
" transform="scale(0.015625)"/>
      <path id="DejaVuSans-2c" d="M 750 794 
L 1409 794 
L 1409 256 
L 897 -744 
L 494 -744 
L 750 256 
L 750 794 
z
" transform="scale(0.015625)"/>
      <path id="DejaVuSans-Oblique-70" d="M 3175 2156 
Q 3175 2616 2975 2859 
Q 2775 3103 2400 3103 
Q 2144 3103 1911 2972 
Q 1678 2841 1497 2591 
Q 1319 2344 1212 1994 
Q 1106 1644 1106 1300 
Q 1106 863 1306 627 
Q 1506 391 1875 391 
Q 2147 391 2380 519 
Q 2613 647 2778 891 
Q 2956 1147 3065 1494 
Q 3175 1841 3175 2156 
z
M 1394 2969 
Q 1625 3272 1939 3428 
Q 2253 3584 2638 3584 
Q 3175 3584 3472 3232 
Q 3769 2881 3769 2247 
Q 3769 1728 3584 1258 
Q 3400 788 3053 416 
Q 2822 169 2531 39 
Q 2241 -91 1919 -91 
Q 1547 -91 1294 64 
Q 1041 219 916 525 
L 556 -1331 
L -19 -1331 
L 922 3500 
L 1497 3500 
L 1394 2969 
z
" transform="scale(0.015625)"/>
     </defs>
     <use xlink:href="#DejaVuSans-Oblique-52" transform="translate(0 0.765625)"/>
     <use xlink:href="#DejaVuSans-32" transform="translate(76.499193 39.046875) scale(0.7)"/>
     <use xlink:href="#DejaVuSans-3d" transform="translate(143.252122 0.765625)"/>
     <use xlink:href="#DejaVuSans-30" transform="translate(246.523607 0.765625)"/>
     <use xlink:href="#DejaVuSans-2e" transform="translate(310.146654 0.765625)"/>
     <use xlink:href="#DejaVuSans-30" transform="translate(341.933763 0.765625)"/>
     <use xlink:href="#DejaVuSans-34" transform="translate(405.55681 0.765625)"/>
     <use xlink:href="#DejaVuSans-2c" transform="translate(469.179857 0.765625)"/>
     <use xlink:href="#DejaVuSans-Oblique-70" transform="translate(520.449388 0.765625)"/>
     <use xlink:href="#DejaVuSans-3d" transform="translate(603.408372 0.765625)"/>
     <use xlink:href="#DejaVuSans-30" transform="translate(706.679857 0.765625)"/>
     <use xlink:href="#DejaVuSans-2e" transform="translate(770.302904 0.765625)"/>
     <use xlink:href="#DejaVuSans-30" transform="translate(802.090013 0.765625)"/>
     <use xlink:href="#DejaVuSans-33" transform="translate(865.71306 0.765625)"/>
    </g>
   </g>
   <g id="legend_1">
    <g id="patch_6">
     <path d="M 204.685937 44.55625 
L 312.603125 44.55625 
Q 314.603125 44.55625 314.603125 42.55625 
L 314.603125 14.2 
Q 314.603125 12.2 312.603125 12.2 
L 204.685937 12.2 
Q 202.685937 12.2 202.685937 14.2 
L 202.685937 42.55625 
Q 202.685937 44.55625 204.685937 44.55625 
z
" style="fill: #ffffff; opacity: 0.8; stroke: #cccccc; stroke-linejoin: miter"/>
    </g>
    <g id="PathCollection_2">
     <g>
      <use xlink:href="#m8436bf3dde" x="216.685937" y="21.173437" style="fill: #1f77b4; stroke: #1f77b4"/>
     </g>
    </g>
    <g id="text_20">
     <!-- Data points -->
     <g transform="translate(234.685937 23.798437) scale(0.1 -0.1)">
      <defs>
       <path id="DejaVuSans-74" d="M 1172 4494 
L 1172 3500 
L 2356 3500 
L 2356 3053 
L 1172 3053 
L 1172 1153 
Q 1172 725 1289 603 
Q 1406 481 1766 481 
L 2356 481 
L 2356 0 
L 1766 0 
Q 1100 0 847 248 
Q 594 497 594 1153 
L 594 3053 
L 172 3053 
L 172 3500 
L 594 3500 
L 594 4494 
L 1172 4494 
z
" transform="scale(0.015625)"/>
       <path id="DejaVuSans-70" d="M 1159 525 
L 1159 -1331 
L 581 -1331 
L 581 3500 
L 1159 3500 
L 1159 2969 
Q 1341 3281 1617 3432 
Q 1894 3584 2278 3584 
Q 2916 3584 3314 3078 
Q 3713 2572 3713 1747 
Q 3713 922 3314 415 
Q 2916 -91 2278 -91 
Q 1894 -91 1617 61 
Q 1341 213 1159 525 
z
M 3116 1747 
Q 3116 2381 2855 2742 
Q 2594 3103 2138 3103 
Q 1681 3103 1420 2742 
Q 1159 2381 1159 1747 
Q 1159 1113 1420 752 
Q 1681 391 2138 391 
Q 2594 391 2855 752 
Q 3116 1113 3116 1747 
z
" transform="scale(0.015625)"/>
      </defs>
      <use xlink:href="#DejaVuSans-44"/>
      <use xlink:href="#DejaVuSans-61" x="77.001953"/>
      <use xlink:href="#DejaVuSans-74" x="138.28125"/>
      <use xlink:href="#DejaVuSans-61" x="177.490234"/>
      <use xlink:href="#DejaVuSans-20" x="238.769531"/>
      <use xlink:href="#DejaVuSans-70" x="270.556641"/>
      <use xlink:href="#DejaVuSans-6f" x="334.033203"/>
      <use xlink:href="#DejaVuSans-69" x="395.214844"/>
      <use xlink:href="#DejaVuSans-6e" x="422.998047"/>
      <use xlink:href="#DejaVuSans-74" x="486.376953"/>
      <use xlink:href="#DejaVuSans-73" x="525.585938"/>
     </g>
    </g>
    <g id="line2d_18">
     <path d="M 206.685937 34.976562 
L 216.685937 34.976562 
L 226.685937 34.976562 
" style="fill: none; stroke: #ff0000; stroke-width: 1.5; stroke-linecap: square"/>
    </g>
    <g id="text_21">
     <!-- Regression line -->
     <g transform="translate(234.685937 38.476562) scale(0.1 -0.1)">
      <defs>
       <path id="DejaVuSans-52" d="M 2841 2188 
Q 3044 2119 3236 1894 
Q 3428 1669 3622 1275 
L 4263 0 
L 3584 0 
L 2988 1197 
Q 2756 1666 2539 1819 
Q 2322 1972 1947 1972 
L 1259 1972 
L 1259 0 
L 628 0 
L 628 4666 
L 2053 4666 
Q 2853 4666 3247 4331 
Q 3641 3997 3641 3322 
Q 3641 2881 3436 2590 
Q 3231 2300 2841 2188 
z
M 1259 4147 
L 1259 2491 
L 2053 2491 
Q 2509 2491 2742 2702 
Q 2975 2913 2975 3322 
Q 2975 3731 2742 3939 
Q 2509 4147 2053 4147 
L 1259 4147 
z
" transform="scale(0.015625)"/>
       <path id="DejaVuSans-67" d="M 2906 1791 
Q 2906 2416 2648 2759 
Q 2391 3103 1925 3103 
Q 1463 3103 1205 2759 
Q 947 2416 947 1791 
Q 947 1169 1205 825 
Q 1463 481 1925 481 
Q 2391 481 2648 825 
Q 2906 1169 2906 1791 
z
M 3481 434 
Q 3481 -459 3084 -895 
Q 2688 -1331 1869 -1331 
Q 1566 -1331 1297 -1286 
Q 1028 -1241 775 -1147 
L 775 -588 
Q 1028 -725 1275 -790 
Q 1522 -856 1778 -856 
Q 2344 -856 2625 -561 
Q 2906 -266 2906 331 
L 2906 616 
Q 2728 306 2450 153 
Q 2172 0 1784 0 
Q 1141 0 747 490 
Q 353 981 353 1791 
Q 353 2603 747 3093 
Q 1141 3584 1784 3584 
Q 2172 3584 2450 3431 
Q 2728 3278 2906 2969 
L 2906 3500 
L 3481 3500 
L 3481 434 
z
" transform="scale(0.015625)"/>
       <path id="DejaVuSans-6c" d="M 603 4863 
L 1178 4863 
L 1178 0 
L 603 0 
L 603 4863 
z
" transform="scale(0.015625)"/>
      </defs>
      <use xlink:href="#DejaVuSans-52"/>
      <use xlink:href="#DejaVuSans-65" x="64.982422"/>
      <use xlink:href="#DejaVuSans-67" x="126.505859"/>
      <use xlink:href="#DejaVuSans-72" x="189.982422"/>
      <use xlink:href="#DejaVuSans-65" x="228.845703"/>
      <use xlink:href="#DejaVuSans-73" x="290.369141"/>
      <use xlink:href="#DejaVuSans-73" x="342.46875"/>
      <use xlink:href="#DejaVuSans-69" x="394.568359"/>
      <use xlink:href="#DejaVuSans-6f" x="422.351562"/>
      <use xlink:href="#DejaVuSans-6e" x="483.533203"/>
      <use xlink:href="#DejaVuSans-20" x="546.912109"/>
      <use xlink:href="#DejaVuSans-6c" x="578.699219"/>
      <use xlink:href="#DejaVuSans-69" x="606.482422"/>
      <use xlink:href="#DejaVuSans-6e" x="634.265625"/>
      <use xlink:href="#DejaVuSans-65" x="697.644531"/>
     </g>
    </g>
   </g>
  </g>
 </g>
 <defs>
  <clipPath id="p5b569ca55f">
   <rect x="40.603125" y="7.2" width="279" height="217.44"/>
  </clipPath>
 </defs>
</svg>
